<svg width="22" height="22" viewBox="0 0 22 22" fill="none" xmlns="http://www.w3.org/2000/svg">
<path d="M12.6055 15.0974C12.7937 15.1838 13.0057 15.2036 13.2067 15.1534C13.4076 15.1032 13.5855 14.986 13.7109 14.8213L14.0344 14.3975C14.2042 14.1711 14.4243 13.9874 14.6774 13.8609C14.9305 13.7343 15.2096 13.6684 15.4925 13.6684H18.2265C18.7099 13.6684 19.1735 13.8605 19.5153 14.2023C19.8571 14.5441 20.0491 15.0077 20.0491 15.4911V18.225C20.0491 18.7084 19.8571 19.172 19.5153 19.5138C19.1735 19.8556 18.7099 20.0477 18.2265 20.0477C13.876 20.0477 9.7036 18.3194 6.6273 15.2431C3.551 12.1668 1.82275 7.99447 1.82275 3.64393C1.82275 3.16053 2.01478 2.69694 2.35659 2.35513C2.6984 2.01332 3.162 1.82129 3.64539 1.82129H6.37935C6.86274 1.82129 7.32634 2.01332 7.66815 2.35513C8.00996 2.69694 8.20199 3.16053 8.20199 3.64393V6.37788C8.20199 6.66084 8.13611 6.93991 8.00957 7.19299C7.88303 7.44608 7.6993 7.66622 7.47293 7.836L7.04643 8.15587C6.87913 8.28361 6.76121 8.46534 6.7127 8.67017C6.66419 8.875 6.68809 9.09031 6.78033 9.27952C8.02581 11.8092 10.0742 13.8551 12.6055 15.0974Z" stroke="white" stroke-width="1.82264" stroke-linecap="round" stroke-linejoin="round"/>
</svg>
