<svg width="157" height="31" viewBox="0 0 157 31" fill="none" xmlns="http://www.w3.org/2000/svg">
<path d="M9.93834 29.9297H4.02702V15.1764H0.00012207V10.3731H4.02687V6.95511C4.02687 2.90483 5.8079 0 11.7032 0C12.9501 0 14.9076 0.251611 14.9076 0.251611V4.71181H12.8516C10.7566 4.71181 9.93866 5.34979 9.93866 7.11358V10.3731H14.8292L14.3937 15.1764H9.9385L9.93834 29.9297ZM23.502 9.9892C23.4159 9.9892 23.3273 9.99234 23.2396 9.99454C17.7582 9.99454 15.2504 14.1224 15.2504 19.982C15.2504 27.3635 18.5034 30.3178 23.2824 30.3178C26.0166 30.3178 27.813 29.1657 28.9049 27.0155V29.9318H34.5274V10.3751H28.9049V13.3826C28.0134 11.4477 26.1667 10.0121 23.502 9.9892ZM24.9316 14.6104C27.2338 14.6104 28.6156 16.2181 28.6156 18.9526L28.6209 21.7456C28.6209 23.5887 27.4797 25.745 24.9316 25.745C21.0144 25.745 21.119 21.5104 21.119 20.1C21.119 15.3556 23.2061 14.6104 24.9316 14.6104ZM36.7981 20.1545C36.7981 17.778 36.6845 10.0019 46.8037 10.0019C50.8658 10.0019 52.5619 11.295 52.5619 11.295L51.1987 15.5282C51.1987 15.5282 49.5047 14.5944 47.2974 14.5944C44.4703 14.5944 42.6664 16.2352 42.6664 19.1221L42.6695 21.1922C42.6695 23.9662 44.4101 25.8179 47.3032 25.8179C49.3141 25.8179 51.1675 24.8752 51.1675 24.8752L52.5273 29.0201C52.5273 29.0201 50.9764 30.3213 46.8321 30.3213C37.197 30.3213 36.7982 23.3447 36.7982 20.1545H36.7981ZM85.5288 9.99454C91.0102 9.99454 93.5576 14.1224 93.5576 19.982C93.5576 27.3635 90.3044 30.3178 85.5255 30.3178C82.7912 30.3178 80.77 29.1658 79.6782 27.0155V29.9318L74.1264 29.9296V0.594631L80.0209 0.0799438V13.1177C80.8717 10.8367 83.6674 9.99454 85.5288 9.99454ZM83.8762 14.6104C81.574 14.6104 80.0209 16.2181 80.0209 18.9526L80.0154 21.7456C80.012 23.5887 81.091 25.745 83.8762 25.745C87.7934 25.745 87.6888 21.5104 87.6888 20.1C87.6888 15.3556 85.6019 14.6104 83.8762 14.6104ZM62.7894 10.0107C56.5724 10.0107 53.2902 13.4043 53.2902 19.4351V20.5556C53.2902 28.383 57.8994 30.3983 63.3945 30.3983C68.7358 30.3983 71.1534 28.9026 71.1534 28.9026L70.0504 24.9195C70.0504 24.9195 67.2065 26.1309 64.1013 26.1309C60.8821 26.1309 59.4977 25.3095 59.1428 22.2123H71.6247V19.0169C71.6247 12.475 67.941 10.0106 62.7893 10.0106L62.7894 10.0107ZM62.9393 13.9991C65.0913 13.9991 66.4858 15.3203 66.4092 18.3844H59.1536C59.2795 15.1595 60.7833 13.9991 62.9393 13.9991ZM105.311 9.98386C98.9266 9.98386 95.5655 13.5859 95.5655 20.0409C95.5655 28.8975 101.359 30.3232 105.322 30.3232C111.122 30.3232 114.982 27.1966 114.982 20.1213C114.982 12.7572 110.642 9.98386 105.311 9.98386ZM105.231 14.6264C108.038 14.6264 109.151 16.7299 109.151 19.1243V21.1829C109.151 24.0835 107.594 25.7612 105.22 25.7612C103 25.7612 101.44 24.1919 101.44 21.1829V19.1243C101.44 15.9152 103.296 14.6264 105.231 14.6264ZM126.725 9.98386C120.34 9.98386 116.979 13.5859 116.979 20.0409C116.979 28.8975 122.773 30.3232 126.735 30.3232C132.536 30.3232 136.395 27.1966 136.395 20.1213C136.395 12.7572 132.056 9.98386 126.725 9.98386ZM126.644 14.6264C129.452 14.6264 130.564 16.7299 130.564 19.1243V21.1829C130.564 24.0835 129.007 25.7612 126.634 25.7612C124.413 25.7612 122.853 24.1919 122.853 21.1829V19.1243C122.853 15.9152 124.71 14.6264 126.644 14.6264ZM138.623 29.9297V0.594631L144.534 0.0801008V19.7423L150.399 10.3732H156.643L150.524 20.0769L156.878 29.9297H150.617L144.534 20.3626V29.9297H138.623Z" fill="#1877F2"/>
</svg>
