<svg width="123" height="24" viewBox="0 0 123 24" fill="none" xmlns="http://www.w3.org/2000/svg">
<path d="M7.75203 23.3458H3.14107V11.8379H0V8.09121H3.14095V5.42513C3.14095 2.26583 4.53019 0 9.12867 0C10.1013 0 11.6282 0.196262 11.6282 0.196262V3.67531H10.0244C8.3903 3.67531 7.75227 4.17295 7.75227 5.54875V8.09121H11.567L11.2273 11.8379H7.75215L7.75203 23.3458ZM18.332 7.79179C18.2648 7.79179 18.1957 7.79424 18.1273 7.79596C13.8517 7.79596 11.8955 11.0158 11.8955 15.5864C11.8955 21.3441 14.433 23.6486 18.1607 23.6486C20.2934 23.6486 21.6947 22.7498 22.5463 21.0727V23.3474H26.932V8.0928H22.5463V10.4388C21.8509 8.92942 20.4105 7.80968 18.332 7.79179ZM19.4471 11.3964C21.2429 11.3964 22.3207 12.6504 22.3207 14.7835L22.3249 16.9621C22.3249 18.3997 21.4346 20.0817 19.4471 20.0817C16.3916 20.0817 16.4732 16.7785 16.4732 15.6784C16.4732 11.9777 18.1012 11.3964 19.4471 11.3964ZM28.7032 15.7209C28.7032 13.8672 28.6146 7.80171 36.5078 7.80171C39.6763 7.80171 40.9993 8.81034 40.9993 8.81034L39.936 12.1124C39.936 12.1124 38.6146 11.3839 36.8929 11.3839C34.6877 11.3839 33.2806 12.6638 33.2806 14.9157L33.2831 16.5303C33.2831 18.6941 34.6407 20.1385 36.8974 20.1385C38.466 20.1385 39.9116 19.4032 39.9116 19.4032L40.9723 22.6363C40.9723 22.6363 39.7626 23.6513 36.53 23.6513C29.0144 23.6513 28.7033 18.2093 28.7033 15.7209H28.7032ZM66.7142 7.79596C70.9898 7.79596 72.9768 11.0158 72.9768 15.5864C72.9768 21.3441 70.4393 23.6486 66.7116 23.6486C64.5788 23.6486 63.0023 22.75 62.1506 21.0727V23.3474L57.8201 23.3457V0.463825L62.4179 0.0623578V10.2321C63.0815 8.45286 65.2623 7.79596 66.7142 7.79596ZM65.4251 11.3964C63.6294 11.3964 62.4179 12.6504 62.4179 14.7835L62.4137 16.9621C62.411 18.3997 63.2526 20.0817 65.4251 20.0817C68.4807 20.0817 68.3991 16.7785 68.3991 15.6784C68.3991 11.9777 66.7712 11.3964 65.4251 11.3964ZM48.977 7.80857C44.1276 7.80857 41.5674 10.4557 41.5674 15.1598V16.0338C41.5674 22.1394 45.1627 23.7113 49.449 23.7113C53.6153 23.7113 55.5011 22.5446 55.5011 22.5446L54.6407 19.4378C54.6407 19.4378 52.4224 20.3827 50.0003 20.3827C47.4893 20.3827 46.4094 19.742 46.1326 17.326H55.8687V14.8336C55.8687 9.73076 52.9953 7.80845 48.9769 7.80845L48.977 7.80857ZM49.0939 10.9196C50.7725 10.9196 51.8603 11.9502 51.8005 14.3402H46.141C46.2392 11.8247 47.4122 10.9196 49.0939 10.9196ZM82.1448 7.78763C77.1648 7.78763 74.543 10.5973 74.543 15.6323C74.543 22.5407 79.0623 23.6527 82.1531 23.6527C86.6778 23.6527 89.6881 21.2139 89.6881 15.6951C89.6881 9.95092 86.3034 7.78763 82.1448 7.78763ZM82.0822 11.4089C84.2719 11.4089 85.1396 13.0497 85.1396 14.9174V16.5231C85.1396 18.7856 83.9255 20.0943 82.0738 20.0943C80.3421 20.0943 79.125 18.8702 79.125 16.5231V14.9174C79.125 12.4142 80.5732 11.4089 82.0822 11.4089ZM98.8478 7.78763C93.8678 7.78763 91.2461 10.5973 91.2461 15.6323C91.2461 22.5407 95.7654 23.6527 98.8561 23.6527C103.381 23.6527 106.391 21.2139 106.391 15.6951C106.391 9.95092 103.006 7.78763 98.8478 7.78763ZM98.7852 11.4089C100.975 11.4089 101.843 13.0497 101.843 14.9174V16.5231C101.843 18.7856 100.628 20.0943 98.7768 20.0943C97.0451 20.0943 95.828 18.8702 95.828 16.5231V14.9174C95.828 12.4142 97.2762 11.4089 98.7852 11.4089ZM108.129 23.3458V0.463825L112.74 0.0624804V15.3994L117.315 8.09133H122.184L117.412 15.6604L122.368 23.3458H117.485L112.74 15.8832V23.3458H108.129Z" fill="white"/>
</svg>
