<svg width="97" height="42" viewBox="0 0 97 42" fill="none" xmlns="http://www.w3.org/2000/svg">
<path d="M41.1744 16.6281C41.1744 21.174 37.6098 24.5237 33.2351 24.5237C28.8605 24.5237 25.2959 21.174 25.2959 16.6281C25.2959 12.0502 28.8605 8.73242 33.2351 8.73242C37.6098 8.73242 41.1744 12.0502 41.1744 16.6281ZM37.699 16.6281C37.699 13.7874 35.633 11.8437 33.2351 11.8437C30.8372 11.8437 28.7713 13.7874 28.7713 16.6281C28.7713 19.4403 30.8372 21.4125 33.2351 21.4125C35.633 21.4125 37.699 19.4368 37.699 16.6281Z" fill="white"/>
<path d="M58.3004 16.6281C58.3004 21.174 54.7358 24.5237 50.3611 24.5237C45.9865 24.5237 42.4219 21.174 42.4219 16.6281C42.4219 12.0537 45.9865 8.73242 50.3611 8.73242C54.7358 8.73242 58.3004 12.0502 58.3004 16.6281ZM54.825 16.6281C54.825 13.7874 52.759 11.8437 50.3611 11.8437C47.9632 11.8437 45.8972 13.7874 45.8972 16.6281C45.8972 19.4403 47.9632 21.4125 50.3611 21.4125C52.759 21.4125 54.825 19.4368 54.825 16.6281Z" fill="white"/>
<path d="M74.716 9.20946V23.3846C74.716 29.2155 71.269 31.597 67.1941 31.597C63.3584 31.597 61.0498 29.0375 60.1791 26.9445L63.2049 25.6879C63.7437 26.9729 65.0641 28.4893 67.1906 28.4893C69.7991 28.4893 71.4153 26.8839 71.4153 23.8617V22.7261H71.2942C70.5162 23.6837 69.0177 24.5202 67.1264 24.5202C63.1693 24.5202 59.5439 21.0814 59.5439 16.6566C59.5439 12.1997 63.1693 8.73242 67.1264 8.73242C69.0139 8.73242 70.5127 9.56898 71.2942 10.4981H71.4153V9.21301H74.716V9.20946ZM71.6617 16.6566C71.6617 13.8764 69.8026 11.8437 67.4368 11.8437C65.0389 11.8437 63.03 13.8764 63.03 16.6566C63.03 19.4083 65.0389 21.4125 67.4368 21.4125C69.8026 21.4125 71.6617 19.4083 71.6617 16.6566Z" fill="white"/>
<path d="M80.1572 0.899414V24.0382H76.7676V0.899414H80.1572Z" fill="white"/>
<path d="M93.3672 19.2254L96.0648 21.0196C95.1942 22.3047 93.0961 24.5189 89.4707 24.5189C84.9749 24.5189 81.6172 21.0516 81.6172 16.6232C81.6172 11.9278 85.0034 8.72754 89.082 8.72754C93.1888 8.72754 95.1977 11.9883 95.8543 13.7504L96.2146 14.6475L85.635 19.019C86.4449 20.6031 87.7045 21.4112 89.4707 21.4112C91.2407 21.4112 92.4681 20.5426 93.3672 19.2254ZM85.0641 16.3847L92.1362 13.455C91.7473 12.4689 90.5771 11.7819 89.1996 11.7819C87.4334 11.7819 84.9749 13.3375 85.0641 16.3847Z" fill="white"/>
<path d="M12.4637 14.5739V11.2241H23.7785C23.8891 11.8079 23.9462 12.4985 23.9462 13.246C23.9462 15.7593 23.2577 18.867 21.0381 21.0812C18.8794 23.324 16.1211 24.52 12.4673 24.52C5.69485 24.52 0 19.0165 0 12.26C0 5.50347 5.69485 0 12.4673 0C16.2139 0 18.8829 1.46664 20.8883 3.37826L18.519 5.74198C17.081 4.39637 15.1328 3.34977 12.4637 3.34977C7.51821 3.34977 3.65028 7.32609 3.65028 12.26C3.65028 17.1939 7.51821 21.1702 12.4637 21.1702C15.6715 21.1702 17.4985 19.8851 18.6688 18.7175C19.618 17.7706 20.2424 16.4179 20.4886 14.5703L12.4637 14.5739Z" fill="white"/>
<path d="M89.441 41.0284C89.585 40.1667 89.585 39.4487 89.7289 38.7307C89.8729 38.2999 89.7289 38.1563 89.441 37.8691C88.8653 37.2947 88.4334 36.8638 87.8577 36.1458C88.7213 36.0022 89.441 35.8586 90.1607 35.715C90.4486 35.715 90.5928 35.5712 90.7367 35.284C91.1686 34.5659 91.4565 33.9915 91.8883 33.1299C92.3201 33.8479 92.608 34.4223 93.0398 35.1403C93.1838 35.4276 93.4717 35.715 93.9035 35.715C94.6232 35.8586 95.3429 36.0022 96.2066 36.1458C95.6308 36.7202 95.199 37.2947 94.6232 37.8691C94.3353 38.1563 94.1914 38.4435 94.3353 38.7307C94.4793 39.4487 94.4793 40.1667 94.6232 41.0284C93.9035 40.5976 93.1838 40.3104 92.4641 40.0231C92.1762 39.8795 92.0322 39.8795 91.7444 40.0231C90.8807 40.3104 90.1607 40.7412 89.441 41.0284ZM86.2743 36.1458C85.6985 36.7202 85.1227 37.2947 84.6909 37.8691C84.403 38.1563 84.403 38.2999 84.403 38.7307C84.547 39.4487 84.547 40.3104 84.6909 41.0284C84.1151 40.7412 83.5393 40.5976 83.1075 40.3104C82.5317 39.8795 81.956 39.8795 81.2363 40.3104C80.8044 40.5976 80.2287 40.7412 79.6529 41.0284C79.7968 40.1667 79.7968 39.4487 79.9408 38.5871C79.9408 38.2999 79.9408 38.0127 79.6529 37.8691C79.0769 37.2947 78.6451 36.7202 78.0693 36.1458C78.9329 36.0022 79.6529 35.8586 80.3726 35.715C80.6605 35.715 80.9484 35.4276 81.0923 35.1403C81.3802 34.4223 81.812 33.8479 82.2439 33.1299C82.6757 33.8479 82.9636 34.5659 83.3954 35.1403C83.5394 35.4276 83.6833 35.5712 84.1151 35.715L86.2743 36.1458ZM68.2811 36.1458C69.1448 36.0022 69.8645 35.8586 70.5842 35.715C70.8721 35.715 71.16 35.5712 71.3039 35.284C71.5918 34.5659 72.0237 33.9915 72.4555 33.2735C72.8873 33.9915 73.1752 34.5659 73.607 35.284C73.751 35.5712 74.0389 35.8586 74.4707 35.8586C75.1904 36.0022 75.9101 36.1458 76.7738 36.2894C76.198 36.8638 75.6222 37.4383 75.1904 38.0127C74.9025 38.2999 74.9025 38.4435 74.9025 38.8743C75.0465 39.5923 75.0465 40.454 75.1904 41.172C74.4707 40.8848 73.751 40.454 73.0313 40.1667C72.7434 40.0231 72.4555 40.0231 72.1676 40.1667C71.4479 40.454 70.8721 40.7412 70.0085 41.172C70.1524 40.3104 70.1524 39.5923 70.2963 38.7307C70.2963 38.4435 70.2963 38.1563 70.0085 38.0127C69.2887 37.4383 68.8569 36.8638 68.2811 36.1458ZM58.4928 36.1458C59.3564 36.0022 60.0761 35.8586 60.7959 35.715C61.0837 35.715 61.2277 35.5712 61.3716 35.284C61.8035 34.5659 62.0913 33.9915 62.5232 33.1299C62.955 33.8479 63.2429 34.5659 63.6747 35.1403C63.8187 35.4276 63.9626 35.5712 64.3944 35.5712C65.1142 35.7148 65.8339 35.8584 66.6975 36.0022C66.1218 36.5766 65.6899 37.151 65.1142 37.7255C64.8263 38.0127 64.6823 38.2999 64.8263 38.5871C64.9702 39.3051 64.9702 40.0231 65.1142 40.8848C64.3944 40.5976 63.6747 40.1667 62.955 39.8795C62.6671 39.7359 62.5232 39.7359 62.2353 39.8795C61.5156 40.1667 60.7959 40.5976 60.0761 40.8848C60.2201 40.0231 60.2201 39.3051 60.364 38.5871C60.508 38.1563 60.364 38.0127 60.0761 37.7255C59.5004 37.2947 59.0685 36.7202 58.4928 36.1458ZM55.3258 41.0284C54.6061 40.5976 53.8863 40.3104 53.1666 40.0231C52.8787 39.8795 52.5909 39.8795 52.303 40.0231C51.5833 40.3104 50.8635 40.7412 50.1438 41.0284C50.2878 40.1667 50.2878 39.4487 50.4317 38.7307C50.4317 38.2999 50.4317 38.1563 50.1438 37.8691C49.712 37.4383 49.2802 37.0074 48.8483 36.433C48.5604 36.1458 48.7044 36.1458 48.9923 36.0022C49.568 35.8584 50.2878 35.715 50.8635 35.715C51.1514 35.715 51.4393 35.5712 51.5833 35.284C51.8711 34.5659 52.303 33.9915 52.7348 33.1299C53.1666 33.8479 53.5985 34.5659 53.8863 35.284C54.0303 35.5712 54.1742 35.715 54.6061 35.715C55.3258 35.8586 56.0455 36.0022 56.9092 36.1458C56.3334 36.7202 55.9015 37.2947 55.3258 37.7255C55.0379 38.0127 54.8939 38.2999 55.0379 38.7307C55.1818 39.4487 55.3258 40.1667 55.3258 41.0284Z" fill="white"/>
<path d="M1.07227 32.5498H2.76115C3.68616 32.5498 4.34389 32.633 4.73436 32.7994C5.12862 32.962 5.44515 33.2344 5.68399 33.6164C5.92282 33.9984 6.04224 34.4504 6.04224 34.9723C6.04224 35.5207 5.90957 35.9801 5.64418 36.3507C5.38261 36.7176 4.98644 36.9955 4.45572 37.1847L6.43461 40.8949H4.69455L2.81232 37.3606H2.66449V40.8949H1.07227V32.5498ZM2.66449 35.8118H3.16489C3.67288 35.8118 4.02165 35.7456 4.2112 35.6134C4.40454 35.4809 4.50121 35.2616 4.50121 34.9551C4.50121 34.7736 4.45383 34.6167 4.35906 34.4843C4.26428 34.3481 4.13727 34.2517 3.97805 34.195C3.81883 34.1346 3.52693 34.1041 3.10232 34.1041H2.66449V35.8118Z" fill="white"/>
<path d="M13.7471 38.2556H8.76002C8.83206 38.6943 9.02349 39.0442 9.33437 39.3052C9.64902 39.5624 10.049 39.6909 10.5342 39.6909C11.1142 39.6909 11.6127 39.4885 12.0297 39.084L13.3376 39.6967C13.0116 40.158 12.6211 40.5003 12.1662 40.7236C11.7113 40.9429 11.1711 41.0526 10.5456 41.0526C9.57509 41.0526 8.78466 40.748 8.17432 40.1392C7.56398 39.5264 7.25879 38.7605 7.25879 37.8415C7.25879 36.8997 7.56207 36.1187 8.16864 35.4985C8.77897 34.8746 9.54285 34.5625 10.4603 34.5625C11.4346 34.5625 12.2269 34.8746 12.8372 35.4985C13.4476 36.1187 13.7527 36.9394 13.7527 37.9607L13.7471 38.2556ZM12.189 37.0358C12.0866 36.6917 11.8838 36.4119 11.5805 36.1963C11.281 35.9807 10.9323 35.8731 10.5342 35.8731C10.102 35.8731 9.72294 35.9939 9.39691 36.236C9.19219 36.3873 9.00265 36.6541 8.82826 37.0358H12.189Z" fill="white"/>
<path d="M14.3457 34.7217H15.9265L17.4903 38.3636L19.0484 34.7217H20.6236L17.9907 40.8939H16.9842L14.3457 34.7217Z" fill="white"/>
<path d="M22.1476 32.1797C22.4206 32.1797 22.6537 32.278 22.8471 32.4748C23.0442 32.6714 23.1427 32.9096 23.1427 33.1896C23.1427 33.4656 23.0461 33.7019 22.8528 33.8985C22.6594 34.0916 22.4282 34.1881 22.159 34.1881C21.8823 34.1881 21.6454 34.0895 21.4482 33.893C21.2549 33.6924 21.1582 33.4505 21.1582 33.1668C21.1582 32.8945 21.2549 32.6619 21.4482 32.469C21.6416 32.2761 21.8747 32.1797 22.1476 32.1797ZM21.3686 34.7214H22.9267V40.8936H21.3686V34.7214Z" fill="white"/>
<path d="M30.5343 38.2556H25.5473C25.6193 38.6943 25.8107 39.0442 26.1214 39.3052C26.4361 39.5624 26.836 39.6909 27.3214 39.6909C27.9014 39.6909 28.3998 39.4885 28.817 39.084L30.1248 39.6967C29.7987 40.158 29.4084 40.5003 28.9535 40.7236C28.4984 40.9429 27.9582 41.0526 27.3328 41.0526C26.3623 41.0526 25.5717 40.748 24.9615 40.1392C24.351 39.5264 24.0459 38.7605 24.0459 37.8415C24.0459 36.8997 24.3492 36.1187 24.9557 35.4985C25.5662 34.8746 26.3301 34.5625 27.2474 34.5625C28.2217 34.5625 29.014 34.8746 29.6243 35.4985C30.2348 36.1187 30.5399 36.9394 30.5399 37.9607L30.5343 38.2556ZM28.9761 37.0358C28.8738 36.6917 28.6709 36.4119 28.3677 36.1963C28.0682 35.9807 27.7195 35.8731 27.3214 35.8731C26.8891 35.8731 26.5102 35.9939 26.1841 36.236C25.9794 36.3873 25.7898 36.6541 25.6155 37.0358H28.9761Z" fill="white"/>
<path d="M31.1084 34.7217H32.6266L33.872 38.2333L35.2138 34.7217H36.1408L37.4545 38.1935L38.6997 34.7217H40.2295L37.9718 40.8939H36.9882L35.6689 37.3765L34.3099 40.8939H33.3374L31.1084 34.7217Z" fill="white"/>
<path d="M44.8994 35.5835L43.9384 36.5423C43.5478 36.1566 43.1933 35.9637 42.8749 35.9637C42.7007 35.9637 42.5642 36.0016 42.4654 36.0771C42.3669 36.1491 42.3178 36.2397 42.3178 36.3494C42.3178 36.4326 42.348 36.5102 42.4086 36.582C42.4731 36.6501 42.6285 36.7447 42.8749 36.8658L43.4437 37.1495C44.0425 37.4444 44.4538 37.745 44.6774 38.0515C44.9013 38.3578 45.0131 38.717 45.0131 39.1293C45.0131 39.6777 44.8102 40.1354 44.4047 40.5021C44.0027 40.869 43.4625 41.0526 42.7841 41.0526C41.8817 41.0526 41.1613 40.7008 40.623 39.9974L41.5785 38.9592C41.7604 39.1709 41.9728 39.3431 42.2153 39.4753C42.4617 39.604 42.6797 39.6684 42.8693 39.6684C43.074 39.6684 43.2389 39.6191 43.364 39.5208C43.4891 39.4225 43.5515 39.3089 43.5515 39.1804C43.5515 38.9422 43.3261 38.7096 42.8749 38.4826L42.3518 38.2216C41.3509 37.7186 40.8506 37.0888 40.8506 36.3325C40.8506 35.8445 41.0381 35.4285 41.4136 35.0844C41.7925 34.7365 42.2761 34.5625 42.8635 34.5625C43.2655 34.5625 43.6426 34.6513 43.9952 34.829C44.3516 35.0031 44.653 35.2545 44.8994 35.5835Z" fill="white"/>
</svg>
