<svg width="126" height="29" viewBox="0 0 126 29" fill="none" xmlns="http://www.w3.org/2000/svg">
<path fill-rule="evenodd" clip-rule="evenodd" d="M15.8802 28.4497H25.4318V12.3057L6.32866 6.79745V0H0V28.4497H9.55158V19.4841H15.8802V28.4497Z" fill="white"/>
<path fill-rule="evenodd" clip-rule="evenodd" d="M80.5143 12.4233V21.1838C80.5143 21.6819 80.6022 22.18 80.7194 22.6781C80.8659 23.1762 81.071 23.6157 81.3933 24.0259C81.7156 24.4361 82.1258 24.7876 82.5946 25.022C83.7665 25.5201 85.085 25.5201 86.257 25.022C86.7258 24.7876 87.136 24.4361 87.4583 24.0259C87.7512 23.6157 87.9856 23.1469 88.1321 22.6781C88.2786 22.2093 88.3372 21.7112 88.3372 21.1838V12.4526H91.8532V21.5061C91.8532 23.8208 91.0914 26.8972 87.3704 28.2743C85.4952 28.9775 83.4149 28.9775 81.5398 28.2743C78.522 27.1316 77.0277 24.8755 77.0277 21.5061V12.394L80.5143 12.4233ZM70.7283 14.5329C71.4901 15.2947 72.1054 16.2029 72.5156 17.1991C72.9551 18.2246 73.1895 19.338 73.1602 20.4806C73.1602 22.7074 72.2812 24.8462 70.699 26.4284C69.9372 27.1902 68.9997 27.8055 68.0035 28.2157C65.8646 29.0947 63.4621 29.0947 61.3525 28.2157C60.3564 27.8055 59.4481 27.1902 58.657 26.4284C57.0748 24.8462 56.1959 22.7074 56.1959 20.4806C56.1959 19.3673 56.401 18.2539 56.8404 17.1991C58.1882 14.0934 61.2646 12.0424 64.6634 12.0424C66.9487 12.0131 69.1169 12.9214 70.7283 14.5329ZM108.788 12.4526V15.4705L100.379 25.2857H109.257V28.4501H95.8965V25.4029L104.247 15.617H96.1895V12.4526H108.788ZM125.518 12.4526V15.4705L117.109 25.2857H125.987V28.4501H112.626V25.4029L120.977 15.617H112.919V12.4526H125.518ZM41.6341 6.79785V13.5367C43.5092 12.0131 46.4099 11.6322 48.7538 12.5991C51.215 13.6246 52.6213 15.8513 52.6213 18.7813V28.4501H49.0761V19.9533C49.0761 17.9609 48.0506 15.617 45.2086 15.617C42.1029 15.617 41.6341 18.3418 41.6341 19.9533V28.4501H38.0889V6.79785H41.6341ZM69.1169 22.5023C69.5564 21.1838 69.5564 19.7189 69.1169 18.4004C68.9118 17.8144 68.5895 17.287 68.1793 16.8182C67.7691 16.3787 67.271 16.0271 66.685 15.7927C65.4252 15.2947 63.9895 15.2947 62.7296 15.7927C62.1729 16.0271 61.6748 16.3787 61.2353 16.8182C60.8252 17.287 60.5029 17.8144 60.2978 18.4004C59.8583 19.7189 59.8583 21.1838 60.2978 22.5023C60.5029 23.0883 60.8252 23.6157 61.2353 24.0845C61.6455 24.524 62.1436 24.8755 62.7296 25.1099C63.9895 25.608 65.4252 25.608 66.685 25.1099C67.2417 24.8755 67.7398 24.524 68.1793 24.0845C68.5895 23.6157 68.9118 23.0883 69.1169 22.5023Z" fill="white"/>
</svg>
