<svg width="177" height="41" viewBox="0 0 177 41" fill="none" xmlns="http://www.w3.org/2000/svg">
<path fill-rule="evenodd" clip-rule="evenodd" d="M22.295 39.9418H35.7049V17.2766L8.8851 9.54326V0H0V39.9418H13.4099V27.3546H22.295V39.9418Z" fill="#4DBC15"/>
<path fill-rule="evenodd" clip-rule="evenodd" d="M113.038 17.4413V29.7406C113.038 30.4399 113.161 31.1392 113.326 31.8385C113.531 32.5378 113.819 33.1548 114.272 33.7307C114.724 34.3066 115.3 34.8002 115.958 35.1293C117.604 35.8286 119.455 35.8286 121.1 35.1293C121.758 34.8002 122.334 34.3066 122.787 33.7307C123.198 33.1548 123.527 32.4966 123.733 31.8385C123.938 31.1803 124.021 30.481 124.021 29.7406V17.4825H128.957V30.1931C128.957 33.4427 127.887 37.7619 122.663 39.6952C120.031 40.6825 117.11 40.6825 114.477 39.6952C110.241 38.091 108.143 34.9236 108.143 30.1931V17.4002L113.038 17.4413ZM99.2987 20.403C100.368 21.4725 101.232 22.7477 101.808 24.1463C102.425 25.586 102.754 27.1491 102.713 28.7534C102.713 31.8796 101.479 34.8825 99.2576 37.1037C98.1881 38.1732 96.8718 39.0371 95.4732 39.613C92.4703 40.847 89.0973 40.847 86.1356 39.613C84.737 39.0371 83.4618 38.1732 82.3512 37.1037C80.1299 34.8825 78.8959 31.8796 78.8959 28.7534C78.8959 27.1903 79.1838 25.6271 79.8008 24.1463C81.693 19.786 86.0122 16.9066 90.7838 16.9066C93.9923 16.8654 97.0363 18.1406 99.2987 20.403ZM152.733 17.4825V21.7193L140.927 35.4995H153.391V39.942H134.633V35.664L146.357 21.925H135.045V17.4825H152.733ZM176.221 17.4825V21.7193L164.415 35.4995H176.879V39.942H158.121V35.664L169.845 21.925H158.533V17.4825H176.221ZM58.4519 9.54346V19.0044C61.0845 16.8654 65.1569 16.3307 68.4476 17.6881C71.903 19.1279 73.8774 22.2541 73.8774 26.3676V39.942H68.9001V28.013C68.9001 25.2158 67.4604 21.925 63.4704 21.925C59.1101 21.925 58.4519 25.7505 58.4519 28.013V39.942H53.4746V9.54346H58.4519ZM97.0363 31.5917C97.6533 29.7406 97.6533 27.6839 97.0363 25.8328C96.7483 25.0101 96.2959 24.2697 95.72 23.6115C95.1441 22.9945 94.4448 22.5009 93.6221 22.1718C91.8533 21.4725 89.8377 21.4725 88.0689 22.1718C87.2874 22.5009 86.5881 22.9945 85.9711 23.6115C85.3952 24.2697 84.9427 25.0101 84.6547 25.8328C84.0377 27.6839 84.0377 29.7406 84.6547 31.5917C84.9427 32.4144 85.3952 33.1548 85.9711 33.813C86.5469 34.43 87.2462 34.9236 88.0689 35.2527C89.8377 35.952 91.8533 35.952 93.6221 35.2527C94.4037 34.9236 95.103 34.43 95.72 33.813C96.2959 33.1548 96.7483 32.4144 97.0363 31.5917Z" fill="black"/>
</svg>
