<svg width="169" height="31" viewBox="0 0 169 31" fill="none" xmlns="http://www.w3.org/2000/svg">
<path d="M14.8865 2.96391C14.9431 2.84955 15.0306 2.75328 15.139 2.68598C15.2474 2.61867 15.3724 2.58301 15.5 2.58301C15.6277 2.58301 15.7527 2.61867 15.8611 2.68598C15.9695 2.75328 16.057 2.84955 16.1136 2.96391L19.0973 9.00762C19.2939 9.40541 19.5841 9.74956 19.9429 10.0105C20.3017 10.2715 20.7185 10.4415 21.1575 10.506L27.8303 11.4825C27.9567 11.5008 28.0755 11.5541 28.1732 11.6364C28.2709 11.7187 28.3436 11.8267 28.3832 11.9482C28.4227 12.0697 28.4274 12.1999 28.3968 12.3239C28.3662 12.4479 28.3015 12.5609 28.21 12.6501L23.3844 17.3492C23.0661 17.6593 22.828 18.0422 22.6905 18.4647C22.5531 18.8873 22.5203 19.3369 22.5952 19.775L23.7344 26.4141C23.7567 26.5405 23.7431 26.6706 23.695 26.7896C23.647 26.9086 23.5664 27.0117 23.4626 27.0871C23.3588 27.1625 23.2358 27.2072 23.1078 27.2161C22.9798 27.225 22.8518 27.1978 22.7385 27.1375L16.7736 24.0013C16.3806 23.7949 15.9433 23.6871 15.4994 23.6871C15.0555 23.6871 14.6182 23.7949 14.2252 24.0013L8.26155 27.1375C8.14831 27.1974 8.02052 27.2244 7.89271 27.2153C7.76491 27.2062 7.64222 27.1614 7.53859 27.0861C7.43497 27.0107 7.35458 26.9078 7.30656 26.789C7.25854 26.6702 7.24482 26.5403 7.26696 26.4141L8.40492 19.7762C8.48009 19.338 8.44753 18.8881 8.31003 18.4653C8.17254 18.0424 7.93425 17.6594 7.61571 17.3492L2.79005 12.6514C2.69781 12.5623 2.63245 12.4491 2.60141 12.3247C2.57037 12.2003 2.5749 12.0697 2.61448 11.9477C2.65406 11.8257 2.7271 11.7173 2.82528 11.6348C2.92346 11.5524 3.04283 11.4991 3.1698 11.4812L9.84125 10.506C10.2808 10.442 10.6981 10.2722 11.0575 10.0112C11.4168 9.75022 11.7073 9.4058 11.904 9.00762L14.8865 2.96391Z" fill="#EAC848" stroke="#EAC848" stroke-width="1.33333" stroke-linecap="round" stroke-linejoin="round"/>
<path d="M49.4065 2.96391C49.4613 2.84955 49.5459 2.75328 49.6509 2.68598C49.7558 2.61867 49.8768 2.58301 50.0003 2.58301C50.1238 2.58301 50.2448 2.61867 50.3497 2.68598C50.4546 2.75328 50.5393 2.84955 50.594 2.96391L53.4815 9.00762C53.6718 9.40541 53.9526 9.74956 54.2998 10.0105C54.6471 10.2715 55.0505 10.4415 55.4753 10.506L61.9328 11.4825C62.0552 11.5008 62.1701 11.5541 62.2647 11.6364C62.3592 11.7187 62.4296 11.8267 62.4678 11.9482C62.5061 12.0697 62.5106 12.1999 62.481 12.3239C62.4514 12.4479 62.3888 12.5609 62.3003 12.6501L57.6303 17.3492C57.3223 17.6593 57.0919 18.0422 56.9588 18.4647C56.8258 18.8873 56.7941 19.3369 56.8665 19.775L57.969 26.4141C57.9906 26.5405 57.9774 26.6706 57.9309 26.7896C57.8844 26.9086 57.8065 27.0117 57.706 27.0871C57.6055 27.1625 57.4865 27.2072 57.3626 27.2161C57.2387 27.225 57.1149 27.1978 57.0053 27.1375L51.2328 24.0013C50.8524 23.7949 50.4293 23.6871 49.9997 23.6871C49.5701 23.6871 49.1469 23.7949 48.7665 24.0013L42.9953 27.1375C42.8857 27.1974 42.762 27.2244 42.6384 27.2153C42.5147 27.2062 42.3959 27.1614 42.2957 27.0861C42.1954 27.0107 42.1176 26.9078 42.0711 26.789C42.0246 26.6702 42.0114 26.5403 42.0328 26.4141L43.134 19.7762C43.2068 19.338 43.1753 18.8881 43.0422 18.4653C42.9092 18.0424 42.6786 17.6594 42.3703 17.3492L37.7003 12.6514C37.611 12.5623 37.5478 12.4491 37.5177 12.3247C37.4877 12.2003 37.4921 12.0697 37.5304 11.9477C37.5687 11.8257 37.6394 11.7173 37.7344 11.6348C37.8294 11.5524 37.9449 11.4991 38.0678 11.4812L44.524 10.506C44.9494 10.442 45.3533 10.2722 45.701 10.0112C46.0488 9.75022 46.3299 9.4058 46.5203 9.00762L49.4065 2.96391Z" fill="#EAC848" stroke="#EAC848" stroke-width="1.33333" stroke-linecap="round" stroke-linejoin="round"/>
<path d="M83.8865 2.96391C83.9431 2.84955 84.0306 2.75328 84.139 2.68598C84.2474 2.61867 84.3724 2.58301 84.5 2.58301C84.6277 2.58301 84.7527 2.61867 84.8611 2.68598C84.9695 2.75328 85.057 2.84955 85.1136 2.96391L88.0973 9.00762C88.2939 9.40541 88.5841 9.74956 88.9429 10.0105C89.3017 10.2715 89.7185 10.4415 90.1575 10.506L96.8303 11.4825C96.9567 11.5008 97.0755 11.5541 97.1732 11.6364C97.2709 11.7187 97.3436 11.8267 97.3832 11.9482C97.4227 12.0697 97.4274 12.1999 97.3968 12.3239C97.3662 12.4479 97.3015 12.5609 97.21 12.6501L92.3844 17.3492C92.0661 17.6593 91.828 18.0422 91.6905 18.4647C91.5531 18.8873 91.5203 19.3369 91.5952 19.775L92.7344 26.4141C92.7567 26.5405 92.7431 26.6706 92.695 26.7896C92.647 26.9086 92.5664 27.0117 92.4626 27.0871C92.3588 27.1625 92.2358 27.2072 92.1078 27.2161C91.9798 27.225 91.8518 27.1978 91.7385 27.1375L85.7736 24.0013C85.3806 23.7949 84.9433 23.6871 84.4994 23.6871C84.0555 23.6871 83.6182 23.7949 83.2252 24.0013L77.2615 27.1375C77.1483 27.1974 77.0205 27.2244 76.8927 27.2153C76.7649 27.2062 76.6422 27.1614 76.5386 27.0861C76.435 27.0107 76.3546 26.9078 76.3066 26.789C76.2585 26.6702 76.2448 26.5403 76.267 26.4141L77.4049 19.7762C77.4801 19.338 77.4475 18.8881 77.31 18.4653C77.1725 18.0424 76.9342 17.6594 76.6157 17.3492L71.79 12.6514C71.6978 12.5623 71.6325 12.4491 71.6014 12.3247C71.5704 12.2003 71.5749 12.0697 71.6145 11.9477C71.6541 11.8257 71.7271 11.7173 71.8253 11.6348C71.9235 11.5524 72.0428 11.4991 72.1698 11.4812L78.8413 10.506C79.2808 10.442 79.6981 10.2722 80.0575 10.0112C80.4168 9.75022 80.7073 9.4058 80.904 9.00762L83.8865 2.96391Z" fill="#EAC848" stroke="#EAC848" stroke-width="1.33333" stroke-linecap="round" stroke-linejoin="round"/>
<path d="M118.407 2.96391C118.461 2.84955 118.546 2.75328 118.651 2.68598C118.756 2.61867 118.877 2.58301 119 2.58301C119.124 2.58301 119.245 2.61867 119.35 2.68598C119.455 2.75328 119.539 2.84955 119.594 2.96391L122.482 9.00762C122.672 9.40541 122.953 9.74956 123.3 10.0105C123.647 10.2715 124.05 10.4415 124.475 10.506L130.933 11.4825C131.055 11.5008 131.17 11.5541 131.265 11.6364C131.359 11.7187 131.43 11.8267 131.468 11.9482C131.506 12.0697 131.511 12.1999 131.481 12.3239C131.451 12.4479 131.389 12.5609 131.3 12.6501L126.63 17.3492C126.322 17.6593 126.092 18.0422 125.959 18.4647C125.826 18.8873 125.794 19.3369 125.867 19.775L126.969 26.4141C126.991 26.5405 126.977 26.6706 126.931 26.7896C126.884 26.9086 126.806 27.0117 126.706 27.0871C126.605 27.1625 126.487 27.2072 126.363 27.2161C126.239 27.225 126.115 27.1978 126.005 27.1375L120.233 24.0013C119.852 23.7949 119.429 23.6871 119 23.6871C118.57 23.6871 118.147 23.7949 117.767 24.0013L111.995 27.1375C111.886 27.1974 111.762 27.2244 111.638 27.2153C111.515 27.2062 111.396 27.1614 111.296 27.0861C111.195 27.0107 111.118 26.9078 111.071 26.789C111.025 26.6702 111.011 26.5403 111.033 26.4141L112.134 19.7762C112.207 19.338 112.175 18.8881 112.042 18.4653C111.909 18.0424 111.679 17.6594 111.37 17.3492L106.7 12.6514C106.611 12.5623 106.548 12.4491 106.518 12.3247C106.488 12.2003 106.492 12.0697 106.53 11.9477C106.569 11.8257 106.639 11.7173 106.734 11.6348C106.829 11.5524 106.945 11.4991 107.068 11.4812L113.524 10.506C113.949 10.442 114.353 10.2722 114.701 10.0112C115.049 9.75022 115.33 9.4058 115.52 9.00762L118.407 2.96391Z" fill="#EAC848" stroke="#EAC848" stroke-width="1.33333" stroke-linecap="round" stroke-linejoin="round"/>
<path d="M152.887 2.96391C152.943 2.84955 153.031 2.75328 153.139 2.68598C153.247 2.61867 153.372 2.58301 153.5 2.58301C153.628 2.58301 153.753 2.61867 153.861 2.68598C153.97 2.75328 154.057 2.84955 154.114 2.96391L157.097 9.00762C157.294 9.40541 157.584 9.74956 157.943 10.0105C158.302 10.2715 158.719 10.4415 159.158 10.506L165.83 11.4825C165.957 11.5008 166.076 11.5541 166.173 11.6364C166.271 11.7187 166.344 11.8267 166.383 11.9482C166.423 12.0697 166.427 12.1999 166.397 12.3239C166.366 12.4479 166.302 12.5609 166.21 12.6501L161.384 17.3492C161.066 17.6593 160.828 18.0422 160.691 18.4647C160.553 18.8873 160.52 19.3369 160.595 19.775L161.734 26.4141C161.757 26.5405 161.743 26.6706 161.695 26.7896C161.647 26.9086 161.566 27.0117 161.463 27.0871C161.359 27.1625 161.236 27.2072 161.108 27.2161C160.98 27.225 160.852 27.1978 160.739 27.1375L154.774 24.0013C154.381 23.7949 153.943 23.6871 153.499 23.6871C153.055 23.6871 152.618 23.7949 152.225 24.0013L146.262 27.1375C146.148 27.1974 146.021 27.2244 145.893 27.2153C145.765 27.2062 145.642 27.1614 145.539 27.0861C145.435 27.0107 145.355 26.9078 145.307 26.789C145.259 26.6702 145.245 26.5403 145.267 26.4141L146.405 19.7762C146.48 19.338 146.448 18.8881 146.31 18.4653C146.173 18.0424 145.934 17.6594 145.616 17.3492L140.79 12.6514C140.698 12.5623 140.632 12.4491 140.601 12.3247C140.57 12.2003 140.575 12.0697 140.614 11.9477C140.654 11.8257 140.727 11.7173 140.825 11.6348C140.923 11.5524 141.043 11.4991 141.17 11.4812L147.841 10.506C148.281 10.442 148.698 10.2722 149.057 10.0112C149.417 9.75022 149.707 9.4058 149.904 9.00762L152.887 2.96391Z" fill="#EAC848" stroke="#EAC848" stroke-width="1.33333" stroke-linecap="round" stroke-linejoin="round"/>
</svg>
