<svg width="38" height="38" viewBox="0 0 38 38" fill="none" xmlns="http://www.w3.org/2000/svg">
<path d="M18.626 7.95215C24.5109 7.95225 29.2988 12.74 29.2988 18.625C29.2987 24.5099 24.5108 29.2977 18.626 29.2979C12.741 29.2979 7.95322 24.5099 7.95312 18.625C7.95312 12.74 12.741 7.95215 18.626 7.95215ZM18.626 9.58496C13.641 9.58496 9.58594 13.64 9.58594 18.625C9.58603 23.6099 13.641 27.665 18.626 27.665C23.6109 27.6649 27.6659 23.6099 27.666 18.625C27.666 13.64 23.6109 9.58506 18.626 9.58496Z" fill="#EAC848" stroke="#EAC848" stroke-width="0.5"/>
<path d="M23.9385 13.8857C24.2282 13.5403 24.7441 13.4948 25.0889 13.7852L25.1494 13.8418C25.4382 14.1384 25.461 14.6107 25.1895 14.9346L18.625 22.7578C18.4727 22.9387 18.2491 23.0447 18.0127 23.0488H17.999C17.7673 23.0488 17.5463 22.9496 17.3916 22.7773H17.3906L14.0195 19.0107V19.0098C13.7206 18.6741 13.7482 18.1574 14.085 17.8574C14.4202 17.5569 14.936 17.5866 15.2363 17.9209H15.2373L17.9805 20.9863L23.9385 13.8857Z" fill="#EAC848" stroke="#EAC848" stroke-width="0.5"/>
<path d="M15.4756 1.50586C17.2416 -0.168209 20.0083 -0.168277 21.7734 1.50586L23.7852 3.41211L23.9902 3.58984C24.4863 3.98073 25.0958 4.20219 25.7334 4.21973L28.5029 4.29297C30.9359 4.35786 32.8921 6.31412 32.957 8.74707L33.0303 11.5166C33.0503 12.2441 33.3367 12.9358 33.8379 13.4648L35.7441 15.4766C37.4182 17.2426 37.4183 20.0084 35.7441 21.7744L33.8379 23.7852C33.3367 24.3142 33.0503 25.0059 33.0303 25.7334L32.957 28.5029C32.8921 30.9359 30.9359 32.8921 28.5029 32.957L25.7334 33.0312H25.7324C25.0952 33.0481 24.4862 33.2694 23.9902 33.6602L23.7852 33.8379L21.7734 35.7432L21.7744 35.7441C20.8918 36.5818 19.7578 37 18.625 37C17.4922 37 16.359 36.5816 15.4756 35.7441L13.4648 33.8379C12.9368 33.3369 12.244 33.0504 11.5166 33.0312L8.74707 32.957C6.31412 32.8921 4.35786 30.9359 4.29297 28.5029L4.21875 25.7334V25.7324C4.2019 25.0952 3.98061 24.4862 3.58984 23.9902L3.41211 23.7852L1.50586 21.7734C-0.168275 20.0083 -0.168189 17.2425 1.50586 15.4766L3.41211 13.4648L3.58984 13.2598C3.98071 12.7637 4.202 12.154 4.21875 11.5166L4.29297 8.74707C4.35786 6.31412 6.31412 4.35786 8.74707 4.29297L11.5166 4.21973C12.2441 4.1997 12.9358 3.91332 13.4648 3.41211L15.4756 1.50586ZM18.625 1.88281C17.8957 1.88281 17.1668 2.1518 16.5986 2.69043L14.5879 4.59668C13.7673 5.37537 12.6916 5.8206 11.5605 5.85059L8.79004 5.9248C7.22522 5.96677 5.96672 7.22525 5.9248 8.79004L5.85059 11.5605C5.82063 12.6915 5.37539 13.7672 4.59668 14.5879L2.69043 16.5986C1.61339 17.7348 1.61339 19.5152 2.69043 20.6514L4.59668 22.6621C5.37539 23.4827 5.82063 24.5584 5.85059 25.6895L5.9248 28.46C5.96674 30.0248 7.22523 31.2833 8.79004 31.3252L11.5605 31.3994C12.6916 31.4294 13.7673 31.8746 14.5879 32.6533L16.5986 34.5596C17.7348 35.6366 19.5152 35.6366 20.6514 34.5596L22.6621 32.6533C23.4827 31.8746 24.5584 31.4294 25.6895 31.3994L28.46 31.3252C30.0248 31.2833 31.2833 30.0248 31.3252 28.46L31.3994 25.6895C31.4294 24.5584 31.8746 23.4827 32.6533 22.6621L34.5596 20.6514C35.6366 19.5152 35.6366 17.7348 34.5596 16.5986L32.6533 14.5879C31.8746 13.7672 31.4294 12.6915 31.3994 11.5605L31.3252 8.79004C31.2833 7.22524 30.0248 5.96677 28.46 5.9248L25.6895 5.85059C24.5584 5.8206 23.4827 5.37537 22.6621 4.59668L20.6514 2.69043C20.0832 2.1518 19.3543 1.88281 18.625 1.88281Z" fill="#EAC848" stroke="#EAC848" stroke-width="0.5"/>
</svg>
