<svg width="99" height="47" viewBox="0 0 99 47" fill="none" xmlns="http://www.w3.org/2000/svg">
<path d="M67.8449 21.1468C67.2638 22.0578 67.0207 24.9204 67.222 26.823C67.2912 27.4503 67.4055 27.9737 67.5777 28.2842C67.8095 28.7177 68.1991 28.9762 68.6434 28.9903C68.9251 29.0046 69.1037 28.9589 74.4608 27.2675C74.4608 27.2675 76.8417 26.5266 76.8545 26.5219C77.4437 26.3722 77.8461 25.8394 77.8847 25.1569C77.9234 24.4554 77.5515 23.839 76.9463 23.6152L75.2657 22.9437C69.5062 20.6172 69.2503 20.5289 68.9573 20.5257C68.5145 20.5052 68.1202 20.7275 67.8449 21.1468Z" fill="white"/>
<path d="M80.7208 38.4735C80.8158 38.2087 80.8254 38.0275 80.8399 32.5167C80.8399 32.5167 80.8544 30.0814 80.8592 30.0546C80.8947 29.4619 80.5019 28.9165 79.8548 28.6722C79.1899 28.42 78.4737 28.5745 78.0697 29.0662C78.0697 29.0662 76.8978 30.4282 76.8929 30.4298C72.8606 35.0719 72.6916 35.2831 72.595 35.5606C72.5338 35.7214 72.5096 35.8916 72.529 36.065C72.5548 36.3094 72.6658 36.5568 72.8574 36.7775C73.791 37.8699 78.2773 39.4855 79.7067 39.2459C80.2041 39.1576 80.5679 38.8803 80.7208 38.4735Z" fill="white"/>
<path d="M89.8159 36.5543C91.1713 36.0263 94.1235 32.3504 94.3295 30.9381C94.4003 30.4446 94.2442 30.0222 93.8966 29.7495C93.6728 29.5825 93.4941 29.5178 88.145 27.7965C88.145 27.7965 85.7932 27.0368 85.7675 27.0241C85.196 26.8066 84.549 27.0068 84.1127 27.5349C83.6588 28.0755 83.588 28.7863 83.9533 29.327L84.8982 30.8325C88.0774 35.8891 88.3172 36.2454 88.5458 36.4219C88.8999 36.6915 89.3523 36.7403 89.8159 36.5543Z" fill="white"/>
<path d="M87.0549 23.5426C93.1396 22.1018 93.373 22.0262 93.6145 21.8716C93.9831 21.6258 94.165 21.2222 94.1345 20.7226C94.1345 20.7052 94.136 20.691 94.1345 20.6736C93.9767 19.2125 91.3609 15.4057 90.0715 14.7878C89.6127 14.575 89.1555 14.5892 88.7789 14.8352C88.5439 14.9896 88.3684 15.2102 85.1136 19.5766C85.1136 19.5766 83.6406 21.5406 83.623 21.5579C83.235 22.0183 83.2302 22.6819 83.6068 23.251C83.9981 23.8388 84.6645 24.1258 85.2729 23.9603C85.2729 23.9603 85.2456 24.0012 85.2407 24.0107C85.5385 23.8988 86.0795 23.7695 87.0549 23.5426Z" fill="white"/>
<path d="M80.9438 18.6217C80.8376 16.2604 80.1148 5.74816 80.0295 5.26267C79.9055 4.81816 79.553 4.50448 79.0459 4.37995C77.4959 4.00164 71.5575 5.6331 70.4581 6.74438C70.1072 7.10377 69.9752 7.54986 70.0798 7.94393C70.2521 8.29072 77.6069 19.6226 77.6069 19.6226C78.6951 21.3502 79.582 21.0807 79.8717 20.9925C80.1614 20.9042 81.0436 20.6346 80.9438 18.6217Z" fill="white"/>
<path d="M68.3321 19.9556C67.7526 20.8651 67.5079 23.7292 67.7091 25.6303C67.7799 26.2576 67.8959 26.7809 68.0649 27.0931C68.2966 27.5249 68.6863 27.7819 69.1305 27.7976C69.4154 27.8119 69.5925 27.7645 74.9496 26.0779C74.9496 26.0779 77.3303 25.3339 77.3401 25.3292C77.934 25.1809 78.3332 24.6467 78.3719 23.9641C78.4104 23.2642 78.0419 22.6463 77.4334 22.4224C77.4334 22.4224 75.7545 21.7526 75.7512 21.7526C69.9949 19.4275 69.7357 19.3361 69.446 19.333C69.0017 19.3157 68.6073 19.5347 68.3321 19.9556Z" fill="white"/>
<path d="M81.2082 37.2785C81.3015 37.0137 81.3128 36.8324 81.3289 31.3218C81.3289 31.3218 81.3418 28.8865 81.3434 28.8627C81.3821 28.2654 80.9877 27.7215 80.3421 27.4787C79.6773 27.2282 78.9609 27.3826 78.5586 27.8729C78.5586 27.8729 77.3834 29.2379 77.3802 29.2379C73.3479 33.8769 73.1789 34.0913 73.0807 34.3656C73.0211 34.5264 72.997 34.6997 73.0162 34.8716C73.0404 35.1175 73.1547 35.3603 73.343 35.5872C74.2783 36.6748 78.763 38.2905 80.1957 38.0509C80.6931 37.9627 81.0553 37.6884 81.2082 37.2785Z" fill="white"/>
<path d="M90.3067 35.3591C91.6588 34.8311 94.6079 31.1567 94.8155 29.7428C94.8879 29.251 94.7302 28.827 94.3841 28.5558C94.1571 28.3887 93.9849 28.3242 88.631 26.6029C88.631 26.6029 86.2825 25.843 86.2518 25.8289C85.6836 25.6129 85.0349 25.8131 84.5987 26.3395C84.1447 26.8802 84.0771 27.5943 84.4393 28.1334L85.3842 29.6403C88.5618 34.6939 88.8049 35.0517 89.0334 35.2267C89.3876 35.4993 89.8382 35.5435 90.3067 35.3591Z" fill="white"/>
<path d="M87.5401 22.3491C93.6247 20.9053 93.8598 20.8297 94.0996 20.6751C94.4682 20.4324 94.6533 20.0257 94.6211 19.5308C94.6211 19.515 94.6243 19.4977 94.6211 19.4804C94.4649 18.0176 91.8476 14.2124 90.5582 13.5945C90.101 13.3801 89.6439 13.3943 89.264 13.6433C89.029 13.7931 88.8568 14.0201 85.5987 18.3832C85.5987 18.3832 84.1274 20.3457 84.1097 20.3646C83.7218 20.8265 83.7153 21.4885 84.0952 22.0559C84.488 22.6439 85.1512 22.9309 85.7596 22.7653C85.7596 22.7653 85.7356 22.8078 85.7291 22.8158C86.0285 22.7054 86.5645 22.5762 87.5401 22.3491Z" fill="white"/>
<path d="M81.4321 17.4306C81.3274 15.0693 80.6015 4.55544 80.5162 4.06837C80.3939 3.62701 80.0413 3.31175 79.5359 3.18723C77.9825 2.8105 72.0459 4.43879 70.9464 5.55008C70.5922 5.91105 70.4619 6.35556 70.5682 6.74963C70.742 7.098 78.0968 18.4299 78.0968 18.4299C79.1833 20.1559 80.0703 19.888 80.3617 19.7982C80.6498 19.7115 81.532 19.4435 81.4321 17.4306Z" fill="white"/>
<path d="M6.09408 42.3508C6.8603 43.046 8.31227 43.243 10.0765 42.8915C11.7297 42.5715 12.7551 41.848 13.7418 38.7758L18.6563 23.656C18.9107 22.8538 18.8914 22.157 18.6 21.6401C18.3633 21.2239 17.9689 20.9417 17.412 20.7967C16.5363 20.5618 15.4433 20.5855 14.7543 22.89L12.1756 31.4665C12.1756 31.4665 6.92308 21.7503 6.91986 21.7487C6.58826 21.0994 5.61599 20.6343 4.62602 21.019C3.33502 21.4997 2.90523 22.6362 3.42035 24.1006C3.42035 24.1006 9.8093 36.8322 9.82379 36.8669C9.82379 36.8669 9.99764 37.3209 9.99764 37.395C9.99764 37.395 10.0556 37.7402 10.0556 37.7529C10.0427 38.243 9.8753 38.6561 9.57589 38.9319C9.28132 39.203 8.87245 39.3448 8.39436 39.3259C8.39436 39.3259 7.39795 39.3039 7.32229 39.3039C6.29851 39.4268 5.65463 40.0022 5.55161 40.8912C5.47917 41.4634 5.6675 41.9662 6.09408 42.3508Z" fill="white"/>
<path d="M31.2682 28.0146H24.4269C24.2418 27.882 24.1516 27.6599 24.2901 26.9915C24.377 26.64 24.4704 26.3247 24.7441 25.8834C24.8326 25.751 24.9243 25.6154 25.0128 25.4798C25.5135 24.8603 26.1911 24.4631 26.9623 24.2866C29.3672 23.7113 31.0445 24.9076 31.3165 26.949C31.4468 27.8395 31.3615 28.0146 31.2682 28.0146ZM35.4728 26.848C35.2523 24.6633 34.391 22.9578 32.9793 21.9127C31.4759 20.7951 29.3478 20.4389 26.8286 20.8802C23.6703 21.4162 21.7741 23.6261 21.3395 27.2799C20.805 31.6479 21.539 34.9392 23.4691 36.8008C24.9243 38.2083 27.0765 38.7679 29.694 38.4211C33.4268 37.9073 35.1058 35.9006 35.1058 34.6317C35.1058 33.6986 34.5295 32.964 33.6827 32.8521C33.1983 32.7576 32.7893 32.8521 31.8847 33.645C30.5809 34.7578 29.0693 35.2056 27.7301 34.8729C26.7095 34.6192 25.9127 33.9302 25.5521 32.9861C25.5521 32.9861 25.3911 32.3619 25.4007 32.4312C25.2913 31.8685 25.2415 31.3105 25.5955 31.0835L25.6906 31.0205H33.8904C34.647 31.0205 35.0301 30.9243 35.2506 30.6911C35.7014 30.2008 35.666 28.8011 35.4728 26.848Z" fill="white"/>
<path d="M42.9059 15.2939C42.2572 15.0354 41.5247 15.1048 40.8825 15.4799C40.2644 15.8377 40.0068 16.3831 40.0068 17.3683V36.5138C40.0068 36.5138 40.1146 37.198 40.1259 37.228C40.2644 37.7056 40.625 38.1122 41.1255 38.3345C41.6809 38.5866 42.3216 38.582 42.8946 38.3188C43.6077 38.0161 44.0278 37.3178 44.0278 36.4524V17.2705C44.0278 17.2705 43.9039 16.3437 43.9039 16.3264C43.7896 15.8819 43.4145 15.4972 42.9059 15.2939Z" fill="white"/>
<path d="M58.3803 34.7401C55.6727 34.7401 55.2413 32.3868 55.156 30.6102C55.1511 30.6054 55.1206 29.5698 55.1206 29.5698C55.1206 29.5698 55.1511 28.8007 55.1511 28.7707C55.3266 25.6969 55.9754 24.4848 57.6317 24.1475C58.744 23.8952 59.594 24.0182 60.2315 24.5211C61.1892 25.2761 61.6109 26.8744 61.5724 29.5414C61.5449 32.6641 60.9897 34.7401 58.3803 34.7401ZM58.5815 20.6827C56.7673 20.3202 55.2156 20.6244 53.7234 21.6143C53.7234 21.6143 53.5559 21.7468 53.4915 21.7846L53.358 21.8508L52.9491 22.0306L52.8331 21.5812L52.735 21.4188L52.7012 21.318L52.6899 21.288C52.6899 21.288 52.5902 21.1572 52.5756 21.1367C52.1474 20.4842 50.9836 20.1847 49.9341 20.7711C49.4206 21.0563 49.126 21.4583 49.126 22.6579V41.4488C49.126 42.4781 49.456 43.118 50.1771 43.4553C50.7857 43.7549 51.4698 43.7785 52.0573 43.5311C52.5564 43.3167 52.9233 42.9384 53.0601 42.4781L53.1809 41.6726V38.4207L53.1454 37.8974L53.1599 37.743L53.1809 37.6688L53.3789 37.0494L53.9793 37.4403C53.9793 37.4403 54.1306 37.538 54.195 37.6042L54.3753 37.7208C54.377 37.7224 54.5845 37.8407 54.5845 37.8407C54.5877 37.8407 54.7777 37.932 54.7777 37.932C56.3875 38.676 58.5412 38.5894 60.2749 37.7146C62.4577 36.5986 63.5361 34.6187 63.7857 31.2944C64.3072 24.6503 62.7458 21.4756 58.5815 20.6827Z" fill="white"/>
<path d="M66.9929 36.2118H67.2166C67.3986 36.2118 67.5692 36.2023 67.5692 36.0022C67.5692 35.8225 67.413 35.8035 67.273 35.8035H66.9929V36.2118ZM66.8094 35.6427H67.2891C67.603 35.6427 67.7494 35.7547 67.7494 36.0101C67.7494 36.2402 67.5998 36.3363 67.4034 36.3568L67.7817 36.9227H67.5837L67.2263 36.3726H66.9929V36.9227H66.8094V35.6427ZM67.2328 37.2191C67.7624 37.2191 68.189 36.8108 68.189 36.2702C68.189 35.7389 67.7624 35.3291 67.2328 35.3291C66.7015 35.3291 66.2749 35.7389 66.2749 36.2811C66.2749 36.8108 66.7015 37.2191 67.2328 37.2191ZM67.2328 35.1699C67.851 35.1699 68.3708 35.6459 68.3708 36.2702C68.3708 36.9054 67.851 37.3798 67.2328 37.3798C66.6131 37.3798 66.0947 36.9054 66.0947 36.2811C66.0947 35.6459 66.6131 35.1699 67.2328 35.1699Z" fill="white"/>
</svg>
