<svg width="138" height="66" viewBox="0 0 138 66" fill="none" xmlns="http://www.w3.org/2000/svg">
<g clip-path="url(#clip0_1_295)">
<path d="M135.224 36.775C134.345 36.1245 134.2 36.0249 128.916 34.3207C133.493 33.2187 133.689 33.1013 134.501 32.5791C136.338 31.3597 137.319 29.3371 137.177 27.1462L137.158 26.9072C136.786 23.3906 132.159 16.756 129.045 15.2666C126.991 14.3062 124.706 14.4412 122.907 15.6251C122.06 16.174 121.947 16.2492 118.468 20.8989C118.129 15.4658 117.476 5.88564 117.316 4.98936L117.282 4.78355L117.23 4.58438C116.636 2.4798 114.95 0.899695 112.717 0.350867C108.99 -0.558686 99.1346 2.16111 96.4905 4.83003C94.9379 6.41676 94.3413 8.55233 94.8768 10.5551L94.9853 10.9535L95.1683 11.323C95.4215 11.8342 96.0881 12.9164 101.808 21.7043L103.917 24.9575C98.7956 22.9059 98.5921 22.8994 97.5322 22.8906C95.5141 22.8041 93.4915 23.8621 92.2733 25.7297L92.2507 25.7653C91.6224 26.7566 91.2337 28.1044 90.9921 29.5162C89.3422 27.3386 86.8585 25.5927 83.0934 24.869C80.4245 24.3445 77.9205 24.6609 75.5609 25.5948C73.4005 24.2449 70.4309 24.0877 67.9472 25.4753C67.1811 25.9025 66.6071 26.4115 66.1573 26.9536V23.9705L65.92 22.1978L65.8477 21.8792C65.3483 19.956 63.8657 18.334 61.8815 17.5373L61.8633 17.5283C59.6849 16.6675 57.2418 16.8733 55.1694 18.0882C52.9613 19.3652 51.8291 21.4852 51.8291 24.3844V30.4679C51.0427 29.2684 50.0709 28.2283 48.9206 27.374C45.8199 25.0725 41.6616 24.2958 36.9021 25.1322C34.1428 25.6015 31.8353 26.781 30.007 28.5116C29.9776 28.4562 29.9483 28.3876 29.9189 28.3322C28.99 26.7035 27.4827 25.5837 25.5527 25.088C22.3299 24.2228 18.2394 25.296 16.5512 30.9393C16.5512 30.9393 16.2778 31.8511 15.9026 33.097C15.1636 31.7691 13.2472 28.142 13.1681 28.0335C11.4415 25.4708 7.98376 24.36 4.89214 25.5639C1.90446 26.6659 0.175598 29.2397 0.175598 32.2649C0.175598 33.2187 0.345091 34.2123 0.699905 35.2215L0.788047 35.4671C0.788047 35.4671 6.92609 47.7096 8.70241 51.2525C5.84809 51.9895 3.81412 54.0743 3.48417 56.9334C3.45027 57.2056 3.43218 57.48 3.43218 57.75C3.43218 59.5691 4.20284 61.3064 5.61758 62.581C7.76454 64.522 11.1002 65.1637 15.0167 64.378C19.2722 63.5593 21.7198 61.0475 23.4351 55.7206L26.0453 47.6897C26.895 51.0711 28.4409 53.2798 29.9075 54.6961C32.0162 56.7387 35.8785 58.9981 42.2719 58.1528C47.0223 57.5021 50.3104 55.4198 52.0869 52.9721L52.2021 53.563C52.7083 55.3092 54.0846 56.8604 55.9332 57.6859C57.8655 58.5622 60.1028 58.5466 62.0645 57.6461C63.0882 57.2101 63.9562 56.5218 64.6317 55.6609V58.1927C64.6317 62.3775 67.1042 64.1568 68.5777 64.8471C70.5009 65.7943 72.8039 65.8696 74.8085 65.0177C76.7023 64.2142 78.108 62.6851 78.6594 60.8283L78.7452 60.5429L79.003 58.8168C79.003 58.8168 79.003 58.1505 79.003 58.0753C81.5724 58.3321 84.2551 57.9227 86.6167 56.7232C87.6609 56.1921 88.5739 55.5525 89.3897 54.8178H91.1253C92.07 55.3047 93.1434 55.6079 94.2982 55.6079C95.4576 55.6079 96.5289 55.3047 97.4713 54.8178H102.504C105.838 56.6545 110.71 58.0466 113.318 57.6084C115.565 57.2189 117.334 55.8026 118.082 53.8174L118.121 53.7178C118.437 52.815 118.489 52.6467 118.512 47.5458C121.368 52.0648 121.517 52.1844 122.32 52.804C124.044 54.1207 126.311 54.4106 128.403 53.5851C131.764 52.2639 136.898 45.8728 137.414 42.3651C137.457 42.0597 137.482 41.7499 137.482 41.4467C137.482 39.61 136.673 37.908 135.224 36.775ZM83.0754 24.8645C83.082 24.869 83.0866 24.869 83.0934 24.869C83.098 24.8733 83.1025 24.8733 83.1092 24.8733L83.0754 24.8645ZM128.408 53.5851H128.403C128.397 53.5851 128.394 53.5917 128.387 53.5939L128.408 53.5851Z" fill="white"/>
<path d="M135.224 36.775C134.345 36.1245 134.2 36.0249 128.916 34.3207C133.493 33.2187 133.689 33.1013 134.501 32.5791C136.338 31.3597 137.319 29.3371 137.177 27.1462L137.158 26.9072C136.786 23.3906 132.159 16.756 129.045 15.2666C126.991 14.3062 124.706 14.4412 122.907 15.6251C122.06 16.174 121.947 16.2492 118.468 20.8989C118.129 15.4658 117.476 5.88564 117.316 4.98936L117.282 4.78355L117.23 4.58438C116.636 2.4798 114.95 0.899695 112.717 0.350867C108.99 -0.558686 99.1346 2.16111 96.4905 4.83003C94.9379 6.41676 94.3413 8.55233 94.8768 10.5551L94.9853 10.9535L95.1683 11.323C95.4215 11.8342 96.0881 12.9164 101.808 21.7043L103.917 24.9575C98.7956 22.9059 98.5921 22.8994 97.5322 22.8906C95.5141 22.8041 93.4915 23.8621 92.2733 25.7297L92.2507 25.7653C91.6224 26.7566 91.2337 28.1044 90.9921 29.5162C89.3422 27.3386 86.8585 25.5927 83.0934 24.869C80.4245 24.3445 77.9205 24.6609 75.5609 25.5948C73.4005 24.2449 70.4309 24.0877 67.9472 25.4753C67.1811 25.9025 66.6071 26.4115 66.1573 26.9536V23.9705L65.92 22.1978L65.8477 21.8792C65.3483 19.956 63.8657 18.334 61.8815 17.5373L61.8633 17.5283C59.6849 16.6675 57.2418 16.8733 55.1694 18.0882C52.9613 19.3652 51.8291 21.4852 51.8291 24.3844V30.4679C51.0427 29.2684 50.0709 28.2283 48.9206 27.374C45.8199 25.0725 41.6616 24.2958 36.9021 25.1322C34.1428 25.6015 31.8353 26.781 30.007 28.5116C29.9776 28.4562 29.9483 28.3876 29.9189 28.3322C28.99 26.7035 27.4827 25.5837 25.5527 25.088C22.3299 24.2228 18.2394 25.296 16.5512 30.9393C16.5512 30.9393 16.2778 31.8511 15.9026 33.097C15.1636 31.7691 13.2472 28.142 13.1681 28.0335C11.4415 25.4708 7.98376 24.36 4.89214 25.5639C1.90446 26.6659 0.175598 29.2397 0.175598 32.2649C0.175598 33.2187 0.345091 34.2123 0.699905 35.2215L0.788047 35.4671C0.788047 35.4671 6.92609 47.7096 8.70241 51.2525C5.84809 51.9895 3.81412 54.0743 3.48417 56.9334C3.45027 57.2056 3.43218 57.48 3.43218 57.75C3.43218 59.5691 4.20284 61.3064 5.61758 62.581C7.76454 64.522 11.1002 65.1637 15.0167 64.378C19.2722 63.5593 21.7198 61.0475 23.4351 55.7206L26.0453 47.6897C26.895 51.0711 28.4409 53.2798 29.9075 54.6961C32.0162 56.7387 35.8785 58.9981 42.2719 58.1528C47.0223 57.5021 50.3104 55.4198 52.0869 52.9721L52.2021 53.563C52.7083 55.3092 54.0846 56.8604 55.9332 57.6859C57.8655 58.5622 60.1028 58.5466 62.0645 57.6461C63.0882 57.2101 63.9562 56.5218 64.6317 55.6609V58.1927C64.6317 62.3775 67.1042 64.1568 68.5777 64.8471C70.5009 65.7943 72.8039 65.8696 74.8085 65.0177C76.7023 64.2142 78.108 62.6851 78.6594 60.8283L78.7452 60.5429L79.003 58.8168C79.003 58.8168 79.003 58.1505 79.003 58.0753C81.5725 58.3321 84.2551 57.9227 86.6167 56.7232C87.6609 56.1921 88.5739 55.5525 89.3897 54.8178H91.1253C92.07 55.3047 93.1434 55.6079 94.2982 55.6079C95.4576 55.6079 96.5289 55.3047 97.4713 54.8178H102.504C105.838 56.6545 110.71 58.0466 113.318 57.6084C115.565 57.2189 117.334 55.8026 118.082 53.8174L118.121 53.7178C118.437 52.815 118.489 52.6467 118.512 47.5458C121.368 52.0648 121.517 52.1844 122.32 52.804C124.044 54.1207 126.311 54.4106 128.403 53.5851C131.764 52.2639 136.898 45.8728 137.414 42.3651C137.457 42.0597 137.482 41.7499 137.482 41.4467C137.482 39.61 136.673 37.908 135.224 36.775Z" stroke="#BDBCBC" stroke-width="0.639433" stroke-linecap="round" stroke-linejoin="round"/>
<path d="M83.075 24.8652C83.084 24.8698 83.0863 24.8698 83.0931 24.8698C83.1 24.8742 83.1022 24.8742 83.1113 24.8742L83.075 24.8652Z" stroke="#BDBCBC" stroke-width="0.639433" stroke-linecap="round" stroke-linejoin="round"/>
<path d="M128.41 53.5859H128.403C128.399 53.5859 128.396 53.5927 128.389 53.595L128.41 53.5859Z" stroke="#BDBCBC" stroke-width="0.639433" stroke-linecap="round" stroke-linejoin="round"/>
<path d="M95.2493 29.6897C94.4335 30.9688 94.0922 34.9876 94.3748 37.6588C94.472 38.5395 94.6324 39.2743 94.8742 39.7102C95.1995 40.3188 95.7466 40.6818 96.3703 40.7016C96.7659 40.7216 97.0166 40.6574 104.538 38.2829C104.538 38.2829 107.88 37.2427 107.898 37.2361C108.726 37.0259 109.29 36.2779 109.345 35.3197C109.399 34.3348 108.877 33.4695 108.027 33.1552L105.668 32.2125C97.5817 28.9462 97.2224 28.8222 96.811 28.8178C96.1894 28.7889 95.6357 29.101 95.2493 29.6897Z" fill="#E9E9E9"/>
<path d="M113.327 54.0146C113.461 53.6429 113.474 53.3885 113.494 45.6517C113.494 45.6517 113.515 42.2326 113.522 42.195C113.571 41.3629 113.02 40.5971 112.111 40.2542C111.178 39.9 110.172 40.117 109.605 40.8073C109.605 40.8073 107.96 42.7195 107.953 42.7217C102.292 49.239 102.055 49.5355 101.919 49.9251C101.833 50.1508 101.799 50.3898 101.826 50.6332C101.863 50.9763 102.018 51.3237 102.287 51.6335C103.598 53.1672 109.897 55.4354 111.903 55.099C112.602 54.9751 113.113 54.5857 113.327 54.0146Z" fill="#E9E9E9"/>
<path d="M126.096 51.3218C127.999 50.5805 132.144 45.4198 132.433 43.4369C132.533 42.7441 132.313 42.1511 131.825 41.7683C131.511 41.5337 131.26 41.4429 123.75 39.0263C123.75 39.0263 120.449 37.9597 120.413 37.9419C119.61 37.6366 118.702 37.9175 118.089 38.659C117.452 39.4181 117.353 40.416 117.865 41.1751L119.192 43.2886C123.655 50.3879 123.992 50.888 124.313 51.1359C124.81 51.5144 125.445 51.5829 126.096 51.3218Z" fill="#E9E9E9"/>
<path d="M122.22 33.0514C130.763 31.0286 131.091 30.9224 131.43 30.7055C131.947 30.3603 132.202 29.7937 132.16 29.0923C132.16 29.0679 132.162 29.0479 132.16 29.0236C131.938 26.9721 128.266 21.6276 126.455 20.7602C125.811 20.4614 125.169 20.4813 124.641 20.8266C124.311 21.0434 124.064 21.3532 119.495 27.4834C119.495 27.4834 117.427 30.2407 117.402 30.265C116.857 30.9114 116.851 31.843 117.379 32.642C117.929 33.4673 118.864 33.8701 119.718 33.6378C119.718 33.6378 119.68 33.6953 119.673 33.7086C120.091 33.5515 120.851 33.37 122.22 33.0514Z" fill="#E9E9E9"/>
<path d="M113.641 26.1442C113.492 22.829 112.477 8.07043 112.358 7.38883C112.184 6.76475 111.689 6.32437 110.977 6.14953C108.801 5.61841 100.463 7.90889 98.9199 9.46907C98.4273 9.97363 98.2419 10.5999 98.3888 11.1532C98.6306 11.64 108.956 27.5494 108.956 27.5494C110.484 29.9749 111.729 29.5966 112.136 29.4727C112.543 29.3487 113.781 28.9702 113.641 26.1442Z" fill="#E9E9E9"/>
<path d="M95.9323 28.0166C95.1188 29.2935 94.7752 33.3145 95.0577 35.9835C95.1571 36.8642 95.32 37.599 95.5572 38.0372C95.8826 38.6435 96.4296 39.0042 97.0533 39.0263C97.4533 39.0463 97.7019 38.9799 105.223 36.6119C105.223 36.6119 108.565 35.5674 108.579 35.5608C109.413 35.3527 109.973 34.6026 110.028 33.6444C110.082 32.6616 109.564 31.7942 108.71 31.4799C108.71 31.4799 106.353 30.5394 106.348 30.5394C98.2668 27.2752 97.9029 27.1468 97.4962 27.1425C96.8724 27.1181 96.3188 27.4257 95.9323 28.0166Z" fill="#BF2519"/>
<path d="M114.011 52.3377C114.142 51.9659 114.158 51.7113 114.181 43.9747C114.181 43.9747 114.199 40.5557 114.201 40.5223C114.255 39.6837 113.702 38.9202 112.795 38.5793C111.862 38.2276 110.856 38.4443 110.291 39.1326C110.291 39.1326 108.642 41.0491 108.637 41.0491C102.976 47.562 102.739 47.863 102.601 48.2481C102.517 48.4739 102.483 48.7172 102.51 48.9585C102.544 49.3037 102.705 49.6445 102.969 49.9632C104.282 51.4901 110.578 53.7585 112.59 53.4221C113.288 53.2982 113.797 52.9131 114.011 52.3377Z" fill="#BF2519"/>
<path d="M126.785 49.6443C128.683 48.903 132.824 43.7444 133.115 41.7594C133.217 41.0688 132.996 40.4736 132.51 40.0928C132.191 39.8583 131.949 39.7677 124.433 37.351C124.433 37.351 121.135 36.2842 121.092 36.2644C120.295 35.9611 119.384 36.2423 118.771 36.9813C118.134 37.7404 118.039 38.743 118.548 39.4998L119.874 41.6154C124.335 48.7104 124.677 49.2128 124.997 49.4584C125.495 49.8412 126.127 49.9031 126.785 49.6443Z" fill="#BF2519"/>
<path d="M122.9 31.3778C131.443 29.3507 131.773 29.2446 132.11 29.0277C132.627 28.6868 132.887 28.1158 132.842 27.421C132.842 27.3989 132.846 27.3746 132.842 27.3502C132.622 25.2965 128.948 19.9543 127.138 19.0868C126.496 18.7858 125.854 18.8057 125.321 19.1554C124.991 19.3656 124.749 19.6844 120.175 25.8098C120.175 25.8098 118.109 28.5651 118.084 28.5917C117.54 29.2401 117.531 30.1695 118.064 30.9662C118.615 31.7917 119.546 32.1946 120.401 31.9621C120.401 31.9621 120.367 32.0218 120.358 32.033C120.778 31.878 121.531 31.6966 122.9 31.3778Z" fill="#BF2519"/>
<path d="M114.326 24.4712C114.179 21.156 113.16 6.39515 113.04 5.71132C112.868 5.09168 112.373 4.64907 111.664 4.47425C109.483 3.94534 101.148 6.23138 99.6046 7.79157C99.1073 8.29835 98.9243 8.92243 99.0735 9.47567C99.3176 9.96476 109.643 25.8742 109.643 25.8742C111.169 28.2974 112.414 27.9213 112.823 27.7951C113.228 27.6735 114.466 27.2972 114.326 24.4712Z" fill="#BF2519"/>
<path d="M8.55488 59.4588C9.63062 60.4349 11.6691 60.7113 14.146 60.2179C16.467 59.7686 17.9066 58.7529 19.2919 54.4397L26.1915 33.2124C26.5487 32.086 26.5216 31.1078 26.1126 30.382C25.7802 29.7978 25.2265 29.4015 24.4447 29.198C23.2153 28.8682 21.6806 28.9015 20.7134 32.1369L17.093 44.1778C17.093 44.1778 9.71875 30.5368 9.71424 30.5346C9.24868 29.6229 7.88367 28.97 6.49381 29.5101C4.68131 30.1849 4.0779 31.7805 4.8011 33.8364C4.8011 33.8364 13.7709 51.711 13.7912 51.7597C13.7912 51.7597 14.0353 52.397 14.0353 52.5011C14.0353 52.5011 14.1166 52.9858 14.1166 53.0035C14.0985 53.6917 13.8635 54.2716 13.4432 54.6589C13.0296 55.0394 12.4556 55.2386 11.7844 55.212C11.7844 55.212 10.3854 55.1811 10.2792 55.1811C8.8419 55.3537 7.93792 56.1615 7.79328 57.4097C7.69158 58.2129 7.95599 58.9188 8.55488 59.4588Z" fill="#231F20"/>
<path d="M43.8989 39.3321H34.294C34.0342 39.146 33.9076 38.8341 34.102 37.8958C34.224 37.4023 34.3552 36.9596 34.7393 36.34C34.8637 36.1541 34.9924 35.9638 35.1167 35.7734C35.8196 34.9037 36.7709 34.346 37.8536 34.0982C41.23 33.2905 43.5848 34.9701 43.9667 37.836C44.1497 39.0863 44.0299 39.3321 43.8989 39.3321ZM49.8019 37.6943C49.4923 34.627 48.2832 32.2327 46.3012 30.7654C44.1905 29.1964 41.2028 28.6962 37.6659 29.3158C33.2319 30.0683 30.5697 33.1709 29.9595 38.3007C29.2092 44.433 30.2397 49.0539 32.9494 51.6674C34.9924 53.6436 38.014 54.4293 41.6887 53.9424C46.9294 53.2209 49.2867 50.4037 49.2867 48.6222C49.2867 47.3122 48.4776 46.2808 47.2888 46.1238C46.6087 45.991 46.0345 46.1238 44.7644 47.237C42.9339 48.7993 40.8118 49.4279 38.9315 48.9608C37.4986 48.6046 36.3801 47.6374 35.8738 46.3119C35.8738 46.3119 35.6478 45.4355 35.6613 45.5328C35.5077 44.7429 35.4377 43.9595 35.9348 43.6407L36.0682 43.5523H47.5803C48.6425 43.5523 49.1804 43.4172 49.49 43.0898C50.1228 42.4015 50.0731 40.4363 49.8019 37.6943Z" fill="#231F20"/>
<path d="M60.2384 21.4724C59.3276 21.1094 58.2992 21.2069 57.3976 21.7335C56.5298 22.2359 56.1682 23.0016 56.1682 24.3847V51.2641C56.1682 51.2641 56.3195 52.2246 56.3354 52.2667C56.5298 52.9372 57.036 53.5082 57.7387 53.8202C58.5185 54.1742 59.418 54.1676 60.2224 53.7981C61.2237 53.3732 61.8134 52.3929 61.8134 51.1778V24.2475C61.8134 24.2475 61.6395 22.9463 61.6395 22.922C61.479 22.2979 60.9524 21.7579 60.2384 21.4724Z" fill="#231F20"/>
<path d="M81.9608 48.7748C78.1595 48.7748 77.5538 45.4709 77.434 42.9767C77.4272 42.97 77.3843 41.5161 77.3843 41.5161C77.3843 41.5161 77.4272 40.4362 77.4272 40.3941C77.6735 36.0787 78.5844 34.377 80.9098 33.9034C82.4714 33.5492 83.6648 33.7218 84.5597 34.4279C85.9044 35.4879 86.4964 37.7318 86.4423 41.4762C86.4038 45.8602 85.6242 48.7748 81.9608 48.7748ZM82.2433 29.039C79.6962 28.53 77.5177 28.9572 75.4227 30.3469C75.4227 30.3469 75.1876 30.533 75.0972 30.586L74.9097 30.679L74.3357 30.9313L74.1728 30.3005L74.035 30.0725L73.9876 29.931L73.9718 29.8889C73.9718 29.8889 73.8317 29.7052 73.8113 29.6764C73.2101 28.7603 71.5762 28.3398 70.1027 29.1631C69.3818 29.5635 68.9682 30.1279 68.9682 31.8121V58.1935C68.9682 59.6386 69.4315 60.537 70.444 61.0106C71.2983 61.4312 72.2588 61.4643 73.0837 61.1169C73.7843 60.8159 74.2994 60.2848 74.4915 59.6386L74.661 58.5076V53.9422L74.6113 53.2075L74.6316 52.9907L74.661 52.8867L74.9391 52.017L75.7821 52.5658C75.7821 52.5658 75.9945 52.703 76.0848 52.7959L76.338 52.9597C76.3403 52.9619 76.6317 53.1279 76.6317 53.1279C76.6362 53.1279 76.9029 53.2562 76.9029 53.2562C79.163 54.3007 82.1867 54.179 84.6207 52.9509C87.6852 51.3841 89.1993 48.6045 89.5497 43.9372C90.2818 34.6093 88.0897 30.1522 82.2433 29.039Z" fill="#231F20"/>
<path d="M94.0543 50.8397H94.3684C94.6239 50.8397 94.8634 50.8264 94.8634 50.5454C94.8634 50.2931 94.6442 50.2665 94.4475 50.2665H94.0543V50.8397ZM93.7967 50.0407H94.4701C94.9109 50.0407 95.1164 50.198 95.1164 50.5565C95.1164 50.8795 94.9063 51.0145 94.6307 51.0433L95.1618 51.8378H94.8837L94.3821 51.0654H94.0543V51.8378H93.7967V50.0407ZM94.3912 52.2539C95.1347 52.2539 95.7335 51.6807 95.7335 50.9217C95.7335 50.1757 95.1347 49.6005 94.3912 49.6005C93.6452 49.6005 93.0464 50.1757 93.0464 50.937C93.0464 51.6807 93.6452 52.2539 94.3912 52.2539ZM94.3912 49.377C95.259 49.377 95.9888 50.0452 95.9888 50.9217C95.9888 51.8134 95.259 52.4795 94.3912 52.4795C93.5211 52.4795 92.7933 51.8134 92.7933 50.937C92.7933 50.0452 93.5211 49.377 94.3912 49.377Z" fill="#231F20"/>
</g>
<defs>
<clipPath id="clip0_1_295">
<rect width="137.633" height="65.7578" fill="white"/>
</clipPath>
</defs>
</svg>
