<svg width="15" height="18" viewBox="0 0 15 18" fill="none" xmlns="http://www.w3.org/2000/svg">
<path d="M11.4589 17.0526L11.7599 17.1009C12.0134 17.1336 12.2692 17.0478 12.4478 16.8705L14.6998 14.6405C14.8491 14.4901 14.9314 14.2893 14.9241 14.0742C14.9205 13.9694 14.8948 13.8659 14.8485 13.77C14.8022 13.6741 14.7364 13.5878 14.6548 13.516L11.0648 10.3494C10.7647 10.0873 10.3097 10.0619 9.99663 10.297L8.21555 11.6199C7.65291 11.1731 6.71991 10.3817 6.03013 9.47875C5.34034 8.57578 4.83859 7.48903 4.56535 6.85094L6.4499 5.66344C6.78369 5.45548 6.90876 5.03973 6.73173 4.68647L4.67926 0.466856C4.58446 0.277335 4.41714 0.123729 4.21179 0.051185C3.99829 -0.0226633 3.77242 -0.0192604 3.5736 0.0756414L0.633059 1.39493C0.399217 1.50006 0.233115 1.70322 0.186582 1.94139C0.0742323 2.48596 -0.815571 7.359 2.6001 11.8209C5.67654 15.8482 10.1746 16.8388 11.4601 17.0449L11.4589 17.0526Z" fill="#14110E"/>
</svg>
