<svg width="38" height="35" viewBox="0 0 38 35" fill="none" xmlns="http://www.w3.org/2000/svg">
<path d="M3.35059 18.6809V34.0805H38.0003V18.6809H3.35059ZM36.6446 31.3697C35.896 31.3697 35.2892 31.9766 35.2892 32.7248C35.2892 32.7435 35.2942 32.761 35.2945 32.7792H6.05638C6.05685 32.761 6.06168 32.7435 6.06168 32.7248C6.06168 31.9766 5.45487 31.3697 4.70621 31.3697C4.68799 31.3697 4.67055 31.3745 4.65187 31.3745V21.3869C4.67055 21.3875 4.68799 21.3925 4.70621 21.3925C5.45487 21.3925 6.06168 20.7853 6.06168 20.0367C6.06168 20.018 6.05685 20.0004 6.05638 19.9823H35.2945C35.2942 20.0004 35.2892 20.018 35.2892 20.0367C35.2892 20.7853 35.896 21.3925 36.6446 21.3925C36.6635 21.3925 36.6806 21.3875 36.699 21.3869V31.3745C36.6806 31.3745 36.6635 31.3697 36.6446 31.3697ZM24.3897 26.3802C24.3897 29.2257 22.7267 31.5322 20.6755 31.5322C18.6242 31.5322 16.9612 29.2257 16.9612 26.3802C16.9612 23.5358 18.6242 21.2297 20.6755 21.2297C22.7267 21.2297 24.3897 23.5358 24.3897 26.3802Z" fill="#EAC848"/>
<path d="M19.2559 16.2866C18.6147 16.4585 18.0719 16.8447 17.6504 17.3797H22.6226C21.6322 16.4262 20.4082 15.9785 19.2559 16.2866Z" fill="#EAC848"/>
<path d="M11.1962 17.3796L33.1098 11.5081C33.114 11.5261 33.1137 11.5437 33.1184 11.5613C33.3121 12.2848 34.0554 12.7137 34.7785 12.5204C34.7963 12.5149 34.812 12.5067 34.8296 12.5012L36.137 17.3796H37.4845L35.3864 9.55078L6.16797 17.3796H11.1962Z" fill="#EAC848"/>
<path d="M16.1684 10.682C15.1483 11.2709 14.6027 12.4309 14.5635 13.7828L21.1698 12.0124C19.6607 10.4321 17.6447 9.82948 16.1684 10.682Z" fill="#EAC848"/>
<path d="M0.323725 17.5984L3.69052 16.6969L28.3149 2.47955C28.3234 2.49605 28.3277 2.51303 28.3367 2.52907C28.7112 3.17777 29.5405 3.39965 30.1887 3.02563C30.2048 3.01629 30.2171 3.00368 30.2331 2.99371L33.5279 8.70162L34.8294 8.35236L30.0072 0L0 17.3248L0.323725 17.5984Z" fill="#EAC848"/>
</svg>
