<svg width="35" height="36" viewBox="0 0 35 36" fill="none" xmlns="http://www.w3.org/2000/svg">
<path d="M3.85339 5.47215C2.8548 7.71432 2.21183 10.0179 1.94143 12.3241C1.66999 14.639 1.78082 16.9503 2.27085 19.1937C2.77475 21.5003 3.65607 23.6166 4.89032 25.4839C7.41988 29.311 12.164 32.6843 17.0312 34.1309C21.8983 32.6843 26.6425 29.311 29.1722 25.4839C30.4064 23.6168 31.2877 21.5003 31.7916 19.1937C32.2816 16.9503 32.3925 14.639 32.121 12.3241C31.8506 10.0183 31.2076 7.71451 30.2088 5.47215C28.2047 4.44601 26.0918 3.6151 23.9235 3.00115C21.6632 2.36112 19.3447 1.95723 17.0312 1.80053C14.7178 1.95723 12.3993 2.36112 10.1387 3.00135C7.97053 3.6153 5.85749 4.44601 3.85339 5.47215ZM17.0312 36L16.786 35.9304C14.1379 35.1794 11.4782 33.8892 9.0945 32.1997C6.73253 30.5257 4.76046 28.5459 3.39146 26.4747C2.03452 24.4218 1.06693 22.1012 0.515548 19.577C-0.0170822 17.1389 -0.137716 14.6281 0.156961 12.1149C0.460594 9.52532 1.19751 6.94407 2.34724 4.44265L2.47527 4.16403L2.74685 4.02196C4.94112 2.87311 7.2634 1.94814 9.64919 1.27255C12.0499 0.592603 14.5137 0.165786 16.9721 0.00375788L17.0312 0L17.0903 0.00375788C19.5488 0.165786 22.0125 0.592603 24.4132 1.27235C26.799 1.94814 29.1212 2.87311 31.3153 4.02196L31.587 4.16423L31.7149 4.44265C32.8649 6.94447 33.6018 9.52571 33.9055 12.1149C34.2001 14.6281 34.0796 17.1389 33.5468 19.577C32.9955 22.101 32.0279 24.4218 30.671 26.4747C29.302 28.5459 27.3299 30.5257 24.968 32.1997C22.5842 33.8892 19.9245 35.1794 17.2764 35.9304L17.0312 36Z" fill="#EAC848"/>
<path d="M25.888 23.1751C25.6558 24.1185 25.2389 25.0347 24.6487 25.8986C23.7646 27.1927 22.6173 28.2039 21.2387 28.9039C19.9491 29.5588 18.4944 29.905 17.0314 29.905C15.5687 29.905 14.1137 29.5588 12.8241 28.9039C11.4455 28.2039 10.2982 27.1927 9.41407 25.8984C8.82382 25.0347 8.40692 24.1185 8.1748 23.1751C7.39532 20.009 8.28431 16.4364 10.817 12.5565C11.7385 11.1446 12.7926 9.7887 13.8118 8.47742C14.6167 7.4418 15.4488 6.3714 16.1938 5.29922L17.0314 4.09326L17.869 5.29922C18.614 6.3714 19.4459 7.4418 20.2505 8.47722C21.2697 9.7885 22.3239 11.1446 23.2453 12.5563C23.9474 13.6318 24.5307 14.6971 24.9787 15.7228L25.2573 16.3605L17.3037 24.3143L12.47 19.4806L13.9127 18.0379L17.3037 21.4289L22.8197 15.9131C22.4638 15.184 22.034 14.4325 21.5373 13.6717C20.6615 12.3302 19.6336 11.0079 18.6398 9.72902C18.1061 9.04236 17.5608 8.34068 17.0314 7.62715C16.5018 8.34068 15.9564 9.04275 15.4225 9.72942C14.4287 11.0081 13.4009 12.3302 12.5254 13.6717C10.314 17.059 9.51682 20.0924 10.1557 22.6876C10.3295 23.3933 10.6466 24.0863 11.0984 24.7476C11.7871 25.7554 12.6785 26.5418 13.748 27.085C14.7526 27.5952 15.8881 27.865 17.0314 27.865C18.1747 27.865 19.3101 27.5952 20.3147 27.085C21.3843 26.5418 22.2757 25.7554 22.9643 24.7476C23.4162 24.0863 23.7334 23.3933 23.9071 22.6876C24.1642 21.6431 24.1885 20.5182 23.9804 19.3342L25.6823 17.632C26.2202 19.5934 26.2876 21.5522 25.888 23.1751Z" fill="#EAC848"/>
</svg>
