<svg width="41" height="41" viewBox="0 0 41 41" fill="none" xmlns="http://www.w3.org/2000/svg">
<path d="M34.1668 22.2084C34.1668 30.7501 28.1877 35.021 21.081 37.498C20.7089 37.6241 20.3046 37.6181 19.9364 37.481C12.8127 35.021 6.8335 30.7501 6.8335 22.2084V10.2501C6.8335 9.79704 7.01348 9.36252 7.33386 9.04214C7.65423 8.72177 8.08875 8.54178 8.54183 8.54178C11.9585 8.54178 16.2293 6.49178 19.2018 3.89512C19.5637 3.58591 20.0241 3.41602 20.5002 3.41602C20.9762 3.41602 21.4366 3.58591 21.7985 3.89512C24.7881 6.50887 29.0418 8.54178 32.4585 8.54178C32.9116 8.54178 33.3461 8.72177 33.6665 9.04214C33.9868 9.36252 34.1668 9.79704 34.1668 10.2501V22.2084Z" stroke="#EAC848" stroke-width="1.66667" stroke-linecap="round" stroke-linejoin="round"/>
<path d="M15.375 20.4999L18.7917 23.9166L25.625 17.0833" stroke="#EAC848" stroke-width="1.66667" stroke-linecap="round" stroke-linejoin="round"/>
</svg>
