<svg width="44" height="44" viewBox="0 0 44 44" fill="none" xmlns="http://www.w3.org/2000/svg">
<rect width="44" height="44" rx="2.4" fill="#2C65B0"/>
<path d="M22 32.8333V35.4166" stroke="white" stroke-width="1.66667" stroke-linecap="round" stroke-linejoin="round"/>
<path d="M22 9.58325V12.1666" stroke="white" stroke-width="1.66667" stroke-linecap="round" stroke-linejoin="round"/>
<path d="M28.667 32.8333V35.4166" stroke="white" stroke-width="1.66667" stroke-linecap="round" stroke-linejoin="round"/>
<path d="M28.667 9.58325V12.1666" stroke="white" stroke-width="1.66667" stroke-linecap="round" stroke-linejoin="round"/>
<path d="M8.66699 22.5H11.3337" stroke="white" stroke-width="1.66667" stroke-linecap="round" stroke-linejoin="round"/>
<path d="M8.66699 28.9583H11.3337" stroke="white" stroke-width="1.66667" stroke-linecap="round" stroke-linejoin="round"/>
<path d="M8.66699 16.0417H11.3337" stroke="white" stroke-width="1.66667" stroke-linecap="round" stroke-linejoin="round"/>
<path d="M32.667 22.5H35.3337" stroke="white" stroke-width="1.66667" stroke-linecap="round" stroke-linejoin="round"/>
<path d="M32.667 28.9583H35.3337" stroke="white" stroke-width="1.66667" stroke-linecap="round" stroke-linejoin="round"/>
<path d="M32.667 16.0417H35.3337" stroke="white" stroke-width="1.66667" stroke-linecap="round" stroke-linejoin="round"/>
<path d="M15.333 32.8333V35.4166" stroke="white" stroke-width="1.66667" stroke-linecap="round" stroke-linejoin="round"/>
<path d="M15.333 9.58325V12.1666" stroke="white" stroke-width="1.66667" stroke-linecap="round" stroke-linejoin="round"/>
<path d="M29.9997 12.1667H13.9997C12.5269 12.1667 11.333 13.3233 11.333 14.7501V30.2501C11.333 31.6768 12.5269 32.8334 13.9997 32.8334H29.9997C31.4724 32.8334 32.6663 31.6768 32.6663 30.2501V14.7501C32.6663 13.3233 31.4724 12.1667 29.9997 12.1667Z" stroke="white" stroke-width="1.66667" stroke-linecap="round" stroke-linejoin="round"/>
<path d="M26.0003 17.3333H18.0003C17.2639 17.3333 16.667 17.9116 16.667 18.6249V26.3749C16.667 27.0883 17.2639 27.6666 18.0003 27.6666H26.0003C26.7367 27.6666 27.3337 27.0883 27.3337 26.3749V18.6249C27.3337 17.9116 26.7367 17.3333 26.0003 17.3333Z" stroke="white" stroke-width="1.66667" stroke-linecap="round" stroke-linejoin="round"/>
</svg>
