<svg width="40" height="39" viewBox="0 0 40 39" fill="none" xmlns="http://www.w3.org/2000/svg">
<path d="M20 26H20.0175" stroke="#EAC848" stroke-width="1.66667" stroke-linecap="round" stroke-linejoin="round"/>
<path d="M26.6665 26H26.684" stroke="#EAC848" stroke-width="1.66667" stroke-linecap="round" stroke-linejoin="round"/>
<path d="M5 30.875C5 31.737 5.35119 32.5636 5.97631 33.1731C6.60143 33.7826 7.44928 34.125 8.33333 34.125H31.6667C32.5507 34.125 33.3986 33.7826 34.0237 33.1731C34.6488 32.5636 35 31.737 35 30.875V13.8125C35.0002 13.6667 34.9601 13.5236 34.884 13.3981C34.8079 13.2727 34.6986 13.1695 34.5676 13.0993C34.4365 13.0292 34.2885 12.9948 34.1391 12.9996C33.9897 13.0044 33.8444 13.0483 33.7183 13.1268L26.2817 17.7482C26.1556 17.8267 26.0103 17.8706 25.8609 17.8754C25.7115 17.8802 25.5635 17.8458 25.4324 17.7757C25.3014 17.7055 25.1921 17.6023 25.116 17.4769C25.0399 17.3514 24.9998 17.2083 25 17.0625V13.8125C25.0002 13.6667 24.9601 13.5236 24.884 13.3981C24.8079 13.2727 24.6986 13.1695 24.5676 13.0993C24.4365 13.0292 24.2885 12.9948 24.1391 12.9996C23.9897 13.0044 23.8444 13.0483 23.7183 13.1268L16.2833 17.7482C16.1573 17.8271 16.0118 17.8714 15.8621 17.8764C15.7124 17.8815 15.5642 17.8471 15.4328 17.7769C15.3015 17.7067 15.192 17.6034 15.1158 17.4776C15.0397 17.3519 14.9996 17.2085 15 17.0625V8.125C15 7.26305 14.6488 6.4364 14.0237 5.8269C13.3986 5.21741 12.5507 4.875 11.6667 4.875H8.33333C7.44928 4.875 6.60143 5.21741 5.97631 5.8269C5.35119 6.4364 5 7.26305 5 8.125V30.875Z" stroke="#EAC848" stroke-width="1.66667" stroke-linecap="round" stroke-linejoin="round"/>
<path d="M13.3335 26H13.351" stroke="#EAC848" stroke-width="1.66667" stroke-linecap="round" stroke-linejoin="round"/>
</svg>
