<svg width="16" height="16" viewBox="0 0 16 16" fill="none" xmlns="http://www.w3.org/2000/svg">
<g clip-path="url(#clip0_17123_6557)">
<path d="M9.22101 11.0453C9.35869 11.1085 9.51381 11.1229 9.6608 11.0862C9.8078 11.0495 9.9379 10.9638 10.0297 10.8433L10.2663 10.5333C10.3905 10.3677 10.5516 10.2333 10.7367 10.1407C10.9219 10.0481 11.126 9.99992 11.333 9.99992H13.333C13.6866 9.99992 14.0258 10.1404 14.2758 10.3904C14.5259 10.6405 14.6663 10.9796 14.6663 11.3333V13.3333C14.6663 13.6869 14.5259 14.026 14.2758 14.2761C14.0258 14.5261 13.6866 14.6666 13.333 14.6666C10.1504 14.6666 7.09816 13.4023 4.84773 11.1519C2.59729 8.90143 1.33301 5.84918 1.33301 2.66659C1.33301 2.31296 1.47348 1.97382 1.72353 1.72378C1.97358 1.47373 2.31272 1.33325 2.66634 1.33325H4.66634C5.01996 1.33325 5.3591 1.47373 5.60915 1.72378C5.8592 1.97382 5.99967 2.31296 5.99967 2.66659V4.66659C5.99967 4.87358 5.95148 5.07773 5.85891 5.26287C5.76634 5.44801 5.63194 5.60906 5.46634 5.73325L5.15434 5.96725C5.03195 6.0607 4.94569 6.19364 4.9102 6.34349C4.87472 6.49333 4.8922 6.65084 4.95967 6.78925C5.8708 8.63983 7.36929 10.1365 9.22101 11.0453Z" stroke="white" stroke-width="1.33333" stroke-linecap="round" stroke-linejoin="round"/>
</g>
<defs>
<clipPath id="clip0_17123_6557">
<rect width="16" height="16" fill="white"/>
</clipPath>
</defs>
</svg>
