<svg width="44" height="44" viewBox="0 0 44 44" fill="none" xmlns="http://www.w3.org/2000/svg">
<rect width="44" height="44" rx="2.4" fill="#2C65B0"/>
<path d="M21.9997 7.58325L17.7497 11.8333H12.083V17.4999L7.83301 21.7499L12.083 25.9999V31.6666H17.7497L21.9997 35.9166L26.2497 31.6666H31.9163V25.9999L36.1663 21.7499L31.9163 17.4999V11.8333H26.2497L21.9997 7.58325Z" stroke="white" stroke-width="2" stroke-linejoin="round"/>
<path d="M22 26C23.1272 26 24.2082 25.5522 25.0052 24.7552C25.8022 23.9582 26.25 22.8772 26.25 21.75C26.25 20.6228 25.8022 19.5418 25.0052 18.7448C24.2082 17.9478 23.1272 17.5 22 17.5C20.8728 17.5 19.7918 17.9478 18.9948 18.7448C18.1978 19.5418 17.75 20.6228 17.75 21.75C17.75 22.8772 18.1978 23.9582 18.9948 24.7552C19.7918 25.5522 20.8728 26 22 26Z" stroke="white" stroke-width="2" stroke-linejoin="round"/>
</svg>
