<svg width="67" height="67" viewBox="0 0 67 67" fill="none" xmlns="http://www.w3.org/2000/svg">
<rect width="67" height="67" fill="#2C65B0"/>
<path d="M15.9137 20.0461C15.9137 18.3683 18.637 15.6697 23.2612 13.7815V49.4776H15.9137V20.0461ZM27.0146 18.8322V43.1216H24.9745V18.8322H27.0146ZM28.7282 12.1917C30.4539 11.8743 32.2088 11.714 33.9547 11.714C35.7005 11.714 37.4555 11.8743 39.1816 12.1917V17.9752V17.9769V43.9769V43.9786V49.4776H28.7282V12.1917ZM42.935 18.8322V43.1216H40.8949V18.8322H42.935ZM44.6485 13.7815C49.2714 15.6714 51.995 18.3701 51.995 20.0461V49.4776H44.6485V13.7815ZM15.0569 51.1916H24.1177C24.5909 51.1916 24.9745 50.8071 24.9745 50.3346V44.8356H27.0146V50.3346C27.0146 50.8071 27.3981 51.1916 27.8713 51.1916H40.0383C40.5114 51.1916 40.8949 50.8071 40.8949 50.3346V44.8356H42.935V50.3346C42.935 50.8071 43.3187 51.1916 43.7918 51.1916H52.8518C53.325 51.1916 53.7087 50.8071 53.7087 50.3346V20.0461C53.7087 17.1647 49.7487 13.7453 44.0784 11.7312C43.8162 11.6381 43.5249 11.6778 43.2977 11.8382C43.0702 11.9985 42.935 12.2606 42.935 12.5382V17.1199H40.8949V11.4881C40.8949 11.0812 40.6106 10.7311 40.2133 10.6483C38.1542 10.219 36.0484 10 33.9547 10C31.8612 10 29.7554 10.219 27.6959 10.6483C27.299 10.7311 27.0146 11.0812 27.0146 11.4881V17.1199H24.9745V12.5382C24.9745 12.2606 24.8393 11.9985 24.6121 11.8382C24.3846 11.6778 24.0934 11.6381 23.831 11.7312C18.1604 13.7453 14.2002 17.1647 14.2002 20.0461V50.3346C14.2002 50.8071 14.5837 51.1916 15.0569 51.1916Z" fill="white"/>
<path d="M54.1954 56.2095H13.7135V54.2972H54.1954V56.2095ZM55.0523 52.585H12.8569C12.3835 52.585 12 52.9677 12 53.442V57.0648C12 57.5391 12.3835 57.9218 12.8569 57.9218H55.0523C55.5254 57.9218 55.9091 57.5391 55.9091 57.0648V53.442C55.9091 52.9677 55.5254 52.585 55.0523 52.585Z" fill="white"/>
</svg>
