<svg width="20" height="20" viewBox="0 0 20 20" fill="none" xmlns="http://www.w3.org/2000/svg">
<path d="M11.5743 14.0416C11.7606 14.1272 11.9705 14.1467 12.1694 14.097C12.3682 14.0474 12.5443 13.9314 12.6684 13.7683L12.9886 13.3489C13.1566 13.1249 13.3745 12.943 13.625 12.8178C13.8755 12.6925 14.1517 12.6273 14.4318 12.6273H17.1376C17.6161 12.6273 18.0749 12.8174 18.4132 13.1557C18.7515 13.494 18.9416 13.9528 18.9416 14.4313V17.1372C18.9416 17.6156 18.7515 18.0744 18.4132 18.4127C18.0749 18.751 17.6161 18.9411 17.1376 18.9411C12.8318 18.9411 8.70226 17.2306 5.65755 14.1859C2.61284 11.1412 0.902344 7.01165 0.902344 2.70578C0.902344 2.22735 1.0924 1.76851 1.4307 1.43021C1.769 1.09191 2.22784 0.901855 2.70627 0.901855H5.41215C5.89058 0.901855 6.34941 1.09191 6.68771 1.43021C7.02601 1.76851 7.21607 2.22735 7.21607 2.70578V5.41166C7.21607 5.69171 7.15087 5.96791 7.02562 6.2184C6.90038 6.46888 6.71854 6.68677 6.4945 6.8548L6.07238 7.17139C5.9068 7.29782 5.79009 7.47768 5.74208 7.68041C5.69407 7.88314 5.71772 8.09623 5.80901 8.2835C7.0417 10.7872 9.06908 12.8121 11.5743 14.0416Z" stroke="#EAC848" stroke-width="1.80392" stroke-linecap="round" stroke-linejoin="round"/>
</svg>
