<svg width="280" height="51" viewBox="0 0 280 51" fill="none" xmlns="http://www.w3.org/2000/svg">
<g clip-path="url(#clip0_17123_6739)">
<mask id="mask0_17123_6739" style="mask-type:luminance" maskUnits="userSpaceOnUse" x="0" y="0" width="280" height="51">
<path d="M280 0H0V51H280V0Z" fill="white"/>
</mask>
<g mask="url(#mask0_17123_6739)">
<path d="M275.265 49.1797C275.265 50.1887 274.454 51 273.445 51H6.91392C5.90465 51 5.09349 50.1887 5.09349 49.1797L0 1.82042C0 0.820605 0.820615 0 1.82045 0H278.17C279.179 0 279.991 0.820605 279.991 1.82042L275.265 49.1797Z" fill="#2C65B0"/>
<path d="M206.777 3.7168H203.881C206.117 6.05598 208.06 8.40461 209.776 10.7438H208.861C207.107 8.03675 205.258 5.68813 203.532 3.7168H203.391C215.124 18.2424 212.38 37.9368 210.135 47.284H215.408C216.389 43.4077 216.813 39.7007 216.813 36.2014H220.859C221.69 40.6438 221.916 44.4546 221.992 47.284H257.014C256.929 47.2181 240.658 25.4769 206.777 3.7168ZM210.767 13.8941C210.427 13.2905 210.088 12.7057 209.739 12.1397H210.767C211.172 12.7246 211.569 13.3094 211.946 13.8941H210.767ZM212.078 16.3937H213.493C214.2 17.6104 214.841 18.8083 215.436 20.0062H213.681C213.182 18.7612 212.644 17.5539 212.078 16.3937ZM216.266 29.3913C215.955 27.4388 215.521 25.5618 214.983 23.7602H217.153C217.954 25.6844 218.624 27.5708 219.181 29.3913H216.266Z" fill="white"/>
<path d="M200.56 3.7168C209.049 38.5594 176.216 45.6619 170.349 47.284H202.767C215.312 26.5522 208.955 11.6304 202.966 3.7168H200.56Z" fill="white"/>
<path d="M275.369 2.46191H4.62222C3.61294 2.46191 2.80176 3.28252 2.80176 4.28232L7.21609 46.718C7.21609 47.727 8.03672 48.5383 9.03657 48.5383H271.181C272.19 48.5383 273.002 47.727 273.002 46.718L277.19 4.28232C277.19 3.27309 276.378 2.46191 275.369 2.46191ZM271.502 45.2182C271.37 46.3879 271.228 47.0385 270.228 47.0385H9.99865C8.98938 47.0385 8.7913 46.2462 8.72529 45.2182L4.30151 5.235C4.30151 4.22575 4.57503 3.96164 5.57487 3.96164H274.407C275.416 3.96164 275.68 4.23518 275.68 5.235L271.502 45.2182Z" fill="white"/>
<path d="M39.2102 29.2779H36.6727V19.9777L32.9564 29.2779L29.2401 19.9777V29.2779H26.6934V13.2148H29.2401L32.9564 22.232L36.6727 13.2148H39.2102V29.2779Z" fill="white"/>
<path d="M50.6804 29.2776H48.1903V28.674C47.4828 29.2682 46.5489 29.5606 45.3888 29.5606C44.0307 29.5606 43.0119 29.0984 42.342 28.1741C41.6724 27.2497 41.333 26.165 41.333 24.9388V17.5534H43.8042V24.8916C43.7758 25.4953 43.9739 26.0424 44.4079 26.5328C44.8416 27.0233 45.3794 27.2497 46.0395 27.2119C46.728 27.2119 47.2469 27.0139 47.6055 26.6083C47.9638 26.2121 48.1429 25.6368 48.1429 24.8822V17.5439H50.6804V29.2776Z" fill="white"/>
<path d="M55.925 29.2774H53.3311V14.2424L55.925 12.9502V29.2774Z" fill="white"/>
<path d="M58.5847 14.1953L61.0748 12.9502V18.1568C61.7823 17.5626 62.7162 17.2702 63.8763 17.2702C65.2344 17.2702 66.2532 17.7323 66.9228 18.6567C67.5927 19.581 67.9321 20.6657 67.9321 21.892V29.2774H65.4609V21.9391C65.4893 21.3354 65.2912 20.7883 64.8572 20.2979C64.4232 19.8074 63.8857 19.581 63.2252 19.6188C62.5367 19.6188 62.0182 19.8168 61.6596 20.2224C61.3013 20.6186 61.1221 21.1939 61.1221 21.9485V29.2868H58.5752V14.1953H58.5847Z" fill="white"/>
<path d="M79.5721 23.4011C79.5532 25.014 79.2328 26.3346 78.6102 27.3626C77.78 28.7492 76.4688 29.4849 74.6767 29.5698C72.8846 29.4943 71.5734 28.7586 70.7436 27.3626C70.121 26.344 69.8002 25.0235 69.7812 23.4011C69.8002 21.7222 70.121 20.3734 70.7436 19.3453C71.5923 18.0059 72.9035 17.3079 74.6767 17.2607C76.4499 17.3079 77.7611 18.0059 78.6102 19.3453C79.2328 20.3734 79.5532 21.7222 79.5721 23.4011ZM74.6578 27.0231C75.5822 27.0231 76.2613 26.5704 76.6953 25.6554C76.9877 25.014 77.1293 24.2689 77.1293 23.4294C77.1293 22.5333 76.9877 21.7694 76.6953 21.128C76.2802 20.213 75.6012 19.7603 74.6578 19.7603C73.7431 19.7603 73.0826 20.213 72.6675 21.128C72.3846 21.7694 72.2339 22.5333 72.2339 23.4294C72.2339 24.2783 72.3752 25.0235 72.6675 25.6554C73.1489 26.5704 73.809 27.0231 74.6578 27.0231Z" fill="white"/>
<path d="M84.5802 29.2774H81.9863V14.2424L84.5802 12.9502V29.2774Z" fill="white"/>
<path d="M90.4572 29.2774H87.8633V14.2424L90.4572 12.9502V29.2774Z" fill="white"/>
<path d="M102.304 29.278H99.8324V28.8913C99.2097 29.3346 98.5117 29.5704 97.7478 29.5893C96.4651 29.5704 95.4084 29.212 94.5692 28.4952C93.7295 27.7877 93.3145 26.7502 93.3145 25.392C93.3145 24.2224 93.7011 23.2414 94.4749 22.4586C95.2482 21.6662 96.3045 21.2795 97.6251 21.2984C98.361 21.2984 99.0495 21.3833 99.6907 21.5625C99.7191 20.3929 99.1344 19.7515 97.9175 19.6477C96.8798 19.6195 95.9462 19.9024 95.1161 20.5155L93.8428 18.5725C94.9934 17.7519 96.3329 17.3274 97.8516 17.2803C99.0965 17.2803 100.153 17.6387 101.002 18.3461C101.86 19.0535 102.294 20.0911 102.313 21.4493V29.278H102.304ZM99.6154 26.571V23.93C98.9079 23.7413 98.2099 23.6376 97.5024 23.6376C96.9461 23.6376 96.4837 23.8262 96.1159 24.1847C95.7482 24.5525 95.569 24.9675 95.5876 25.4297C95.5876 25.9107 95.7766 26.3635 96.1538 26.7974C96.531 27.2312 97.0404 27.4482 97.6816 27.4482C98.361 27.4576 99.0117 27.1558 99.6154 26.571Z" fill="white"/>
<path d="M104.511 17.412H107.001V18.1571C107.709 17.5629 108.643 17.2705 109.803 17.2705C111.161 17.2705 112.18 17.7327 112.85 18.6571C113.519 19.5814 113.859 20.6661 113.859 21.8923V29.2777H111.387V21.9394C111.416 21.3358 111.218 20.7887 110.784 20.2982C110.35 19.8078 109.812 19.5814 109.152 19.6191C108.464 19.6191 107.945 19.8172 107.577 20.2228C107.218 20.6189 107.039 21.1943 107.039 21.9489V29.2871H104.492V17.412H104.511Z" fill="white"/>
<path d="M120.932 29.5697C117.735 29.5697 116.141 27.5796 116.141 23.5992C116.141 19.4395 117.753 17.3362 120.979 17.2701C121.941 17.289 122.677 17.5626 123.187 18.1096V14.2236L125.733 12.9502V29.2774H123.187V28.8718C122.517 29.3339 121.762 29.5697 120.932 29.5697ZM118.631 23.5709C118.649 26.0515 119.404 27.2966 120.913 27.3155C121.809 27.3343 122.554 26.9571 123.139 26.1836V20.911C122.677 20.1281 121.96 19.732 120.979 19.732C119.414 19.8263 118.631 21.1091 118.631 23.5709Z" fill="white"/>
<path d="M145.221 24.4864C145.221 25.7785 144.834 26.901 144.061 27.8536C143.287 28.8063 142.156 29.2779 140.665 29.2779H134.336V13.2148H140.429C141.693 13.2148 142.75 13.6016 143.599 14.375C144.448 15.1484 144.872 16.2331 144.872 17.6197C144.853 19.2326 144.334 20.355 143.316 20.9776C144.58 21.7038 145.221 22.8734 145.221 24.4864ZM142.608 24.5524C142.59 23.9581 142.42 23.4582 142.08 23.0526C141.74 22.6471 141.306 22.4301 140.76 22.4207H136.854V26.7406H140.665C141.259 26.7406 141.731 26.5143 142.08 26.071C142.438 25.6182 142.608 25.1183 142.608 24.5524ZM142.42 17.8178C142.42 17.2235 142.259 16.7519 141.948 16.3746C141.637 16.0068 141.184 15.8276 140.59 15.8276H136.873V19.7325H140.561C141.108 19.7325 141.542 19.525 141.882 19.1194C142.221 18.7138 142.401 18.2799 142.42 17.8178Z" fill="white"/>
<path d="M154.361 18.0813L153.521 20.4111C153.04 19.93 152.55 19.7037 152.059 19.7131C150.984 19.7414 150.418 20.496 150.352 21.9674V29.2774H147.768V17.3645H150.333V18.2228C150.767 17.5814 151.39 17.2607 152.201 17.2607C153.012 17.2796 153.738 17.5532 154.361 18.0813Z" fill="white"/>
<path d="M164.067 29.278H161.596V28.8913C160.973 29.3346 160.275 29.5704 159.512 29.5893C158.229 29.5704 157.172 29.212 156.333 28.4952C155.493 27.7877 155.078 26.7502 155.078 25.392C155.078 24.2224 155.465 23.2414 156.239 22.4586C157.012 21.6662 158.068 21.2795 159.389 21.2984C160.124 21.2984 160.813 21.3833 161.454 21.5625C161.483 20.3929 160.898 19.7515 159.681 19.6477C158.643 19.6195 157.71 19.9024 156.88 20.5155L155.606 18.5725C156.757 17.7519 158.097 17.3274 159.615 17.2803C160.86 17.2803 161.917 17.6387 162.766 18.3461C163.624 19.0535 164.058 20.0911 164.077 21.4493V29.278H164.067ZM161.389 26.571V23.93C160.681 23.7413 159.983 23.6376 159.276 23.6376C158.719 23.6376 158.257 23.8262 157.889 24.1847C157.521 24.5525 157.342 24.9675 157.361 25.4297C157.361 25.9107 157.549 26.3635 157.927 26.7974C158.304 27.2312 158.814 27.4482 159.455 27.4482C160.134 27.4576 160.775 27.1558 161.389 26.571Z" fill="white"/>
<path d="M166.274 17.412H168.764V18.1571C169.471 17.5629 170.405 17.2705 171.565 17.2705C172.924 17.2705 173.942 17.7327 174.612 18.6571C175.282 19.5814 175.621 20.6661 175.621 21.8923V29.2777H173.15V21.9394C173.178 21.3358 172.98 20.7887 172.546 20.2982C172.113 19.8078 171.575 19.5814 170.915 19.6191C170.226 19.6191 169.707 19.8172 169.339 20.2228C168.981 20.6189 168.802 21.1943 168.802 21.9489V29.2871H166.255V17.412H166.274Z" fill="white"/>
<path d="M182.706 29.5697C179.508 29.5697 177.914 27.5796 177.914 23.5992C177.914 19.4395 179.527 17.3362 182.753 17.2701C183.715 17.289 184.451 17.5626 184.96 18.1096V14.2236L187.507 12.9502V29.2774H184.96V28.8718C184.281 29.3339 183.536 29.5697 182.706 29.5697ZM180.404 23.5709C180.423 26.0515 181.178 27.2966 182.677 27.3155C183.573 27.3343 184.319 26.9571 184.903 26.1836V20.911C184.441 20.1281 183.725 19.732 182.744 19.732C181.187 19.8263 180.404 21.1091 180.404 23.5709Z" fill="white"/>
<path d="M63.2156 41.9267C62.7346 41.9267 62.2911 41.8324 61.9044 41.6437C61.5177 41.455 61.178 41.2003 60.8951 40.8703C60.6122 40.5494 60.3952 40.1818 60.235 39.776C60.0839 39.3705 59.999 38.9556 59.999 38.5217C59.999 38.0784 60.0839 37.6536 60.2444 37.2387C60.4046 36.8333 60.6311 36.4748 60.9235 36.1541C61.2159 35.8334 61.5556 35.5882 61.9423 35.3995C62.3384 35.2109 62.7626 35.126 63.2156 35.126C63.6966 35.126 64.1306 35.2203 64.5267 35.4184C64.9229 35.6164 65.2528 35.8711 65.536 36.2013C65.8189 36.5313 66.036 36.8897 66.1867 37.2956C66.3378 37.701 66.4226 38.1065 66.4226 38.5308C66.4226 38.9742 66.3469 39.3989 66.1867 39.8139C66.0265 40.2193 65.8 40.5778 65.5171 40.8983C65.2247 41.2193 64.885 41.4644 64.4983 41.6437C64.0927 41.8324 63.6682 41.9267 63.2156 41.9267ZM61.0837 38.5308C61.0837 38.8423 61.131 39.1534 61.2348 39.4459C61.3386 39.7385 61.4799 40.0026 61.6685 40.2288C61.8574 40.4554 62.0741 40.6437 62.3384 40.7759C62.6024 40.9078 62.8948 40.9741 63.225 40.9741C63.5644 40.9741 63.8662 40.9078 64.1306 40.7665C64.3946 40.6251 64.621 40.4364 64.8002 40.2004C64.9793 39.9647 65.1115 39.7006 65.2153 39.408C65.3096 39.1159 65.3565 38.8234 65.3565 38.5308C65.3565 38.2197 65.3096 37.9086 65.2153 37.6256C65.1209 37.3331 64.9698 37.069 64.7812 36.8427C64.5926 36.6162 64.3661 36.4276 64.1022 36.2956C63.8382 36.1635 63.5549 36.0975 63.2345 36.0975C62.8948 36.0975 62.5929 36.1635 62.329 36.305C62.0646 36.4464 61.8385 36.6256 61.6594 36.8617C61.4799 37.0974 61.3386 37.352 61.2348 37.6445C61.131 37.9367 61.0837 38.2292 61.0837 38.5308Z" fill="white"/>
<path d="M69.875 41.8794V35.1826H74.3364V36.1164H70.9316V38.116H73.7801V38.9932H70.9316V41.8794H69.875Z" fill="white"/>
<path d="M86.7971 36.1164H84.5709V41.8794H83.5052V36.1164H81.2695V35.1826H86.7971V36.1164Z" fill="white"/>
<path d="M95.5499 35.1826V41.8794H94.4842V38.9273H91.1074V41.8794H90.0508V35.1826H91.1074V37.9841H94.4842V35.1826H95.5499Z" fill="white"/>
<path d="M104.012 40.9458V41.8794H99.418V35.1826H103.927V36.1164H100.474V38.0216H103.464V38.8988H100.474V40.9458H104.012Z" fill="white"/>
<path d="M114.933 41.9267C114.452 41.9267 114.009 41.8324 113.622 41.6437C113.235 41.455 112.896 41.2003 112.613 40.8703C112.33 40.5494 112.113 40.1818 111.953 39.776C111.802 39.3705 111.717 38.9556 111.717 38.5217C111.717 38.0784 111.802 37.6536 111.962 37.2387C112.122 36.8333 112.349 36.4748 112.641 36.1541C112.934 35.8334 113.273 35.5882 113.66 35.3995C114.056 35.2109 114.48 35.126 114.933 35.126C115.414 35.126 115.848 35.2203 116.244 35.4184C116.641 35.6164 116.971 35.8711 117.254 36.2013C117.537 36.5313 117.754 36.8897 117.904 37.2956C118.056 37.701 118.14 38.1065 118.14 38.5308C118.14 38.9742 118.065 39.3989 117.904 39.8139C117.744 40.2193 117.518 40.5778 117.235 40.8983C116.942 41.2193 116.603 41.4644 116.216 41.6437C115.81 41.8324 115.386 41.9267 114.933 41.9267ZM112.801 38.5308C112.801 38.8423 112.849 39.1534 112.953 39.4459C113.056 39.7385 113.198 40.0026 113.386 40.2288C113.575 40.4554 113.792 40.6437 114.056 40.7759C114.32 40.9078 114.613 40.9741 114.943 40.9741C115.282 40.9741 115.584 40.9078 115.848 40.7665C116.112 40.6251 116.339 40.4364 116.518 40.2004C116.697 39.9647 116.829 39.7006 116.933 39.408C117.027 39.1159 117.074 38.8234 117.074 38.5308C117.074 38.2197 117.027 37.9086 116.933 37.6256C116.839 37.3331 116.688 37.069 116.499 36.8427C116.31 36.6162 116.084 36.4276 115.82 36.2956C115.556 36.1635 115.273 36.0975 114.952 36.0975C114.613 36.0975 114.311 36.1635 114.047 36.305C113.783 36.4464 113.556 36.6256 113.377 36.8617C113.198 37.0974 113.056 37.352 112.953 37.6445C112.849 37.9367 112.801 38.2292 112.801 38.5308Z" fill="white"/>
<path d="M121.593 41.8794V35.1826H124.507C124.809 35.1826 125.083 35.2487 125.338 35.3713C125.592 35.4939 125.809 35.6637 125.998 35.8712C126.186 36.0787 126.328 36.3145 126.432 36.5692C126.536 36.8239 126.592 37.088 126.592 37.3616C126.592 37.6537 126.536 37.9368 126.432 38.2103C126.328 38.4839 126.167 38.7101 125.969 38.9083C125.771 39.1065 125.545 39.2478 125.281 39.3327L126.856 41.8794H125.668L124.215 39.5498H122.659V41.8794H121.593ZM122.649 38.6158H124.498C124.696 38.6158 124.866 38.5593 125.017 38.446C125.168 38.3331 125.29 38.1819 125.375 37.9841C125.46 37.7954 125.507 37.5878 125.507 37.3521C125.507 37.1164 125.46 36.9088 125.356 36.7201C125.253 36.5314 125.121 36.3899 124.96 36.2767C124.8 36.1636 124.621 36.107 124.442 36.107H122.649V38.6158Z" fill="white"/>
<path d="M130.186 41.8794V35.1826H132.562C133.289 35.1826 133.893 35.3335 134.374 35.626C134.855 35.9278 135.222 36.3239 135.458 36.8333C135.704 37.3426 135.826 37.8992 135.826 38.5218C135.826 39.2008 135.694 39.795 135.43 40.2948C135.166 40.7949 134.779 41.1909 134.289 41.4645C133.798 41.7381 133.223 41.8794 132.562 41.8794H130.186ZM134.751 38.5218C134.751 38.0501 134.666 37.6351 134.496 37.2672C134.326 36.9088 134.072 36.6257 133.751 36.4182C133.43 36.2107 133.034 36.107 132.572 36.107H131.251V40.9363H132.572C133.043 40.9363 133.44 40.8325 133.76 40.6157C134.081 40.3986 134.336 40.1156 134.506 39.748C134.675 39.3801 134.751 38.9837 134.751 38.5218Z" fill="white"/>
<path d="M139.297 41.8794V35.1826H140.354V41.8794H139.297Z" fill="white"/>
<path d="M145.277 37.1444V41.8794H144.221V35.1826H145.088L148.88 40.0212V35.1921H149.946V41.8794H149.022L145.277 37.1444Z" fill="white"/>
<path d="M155.747 35.1826H156.747L159.35 41.8794H158.237L157.586 40.0591H154.908L154.248 41.8794H153.125L155.747 35.1826ZM157.304 39.2762L156.247 36.3428L155.191 39.2762H157.304Z" fill="white"/>
<path d="M162.539 41.8794V35.1826H165.454C165.756 35.1826 166.029 35.2487 166.284 35.3713C166.538 35.4939 166.755 35.6637 166.944 35.8712C167.133 36.0787 167.274 36.3145 167.378 36.5692C167.482 36.8239 167.538 37.088 167.538 37.3616C167.538 37.6537 167.482 37.9368 167.378 38.2103C167.274 38.4839 167.114 38.7101 166.916 38.9083C166.718 39.1065 166.491 39.2478 166.227 39.3327L167.803 41.8794H166.614L165.161 39.5498H163.605V41.8794H162.539ZM163.596 38.6158H165.444C165.642 38.6158 165.812 38.5593 165.963 38.446C166.114 38.3331 166.237 38.1819 166.321 37.9841C166.407 37.7954 166.454 37.5878 166.454 37.3521C166.454 37.1164 166.407 36.9088 166.303 36.7201C166.199 36.5314 166.067 36.3899 165.907 36.2767C165.746 36.1636 165.567 36.107 165.388 36.107H163.596V38.6158Z" fill="white"/>
<path d="M171.31 35.1826L173.159 38.5123L175.027 35.1826H176.187L173.687 39.4839V41.8794H172.631V39.4649L170.15 35.1826H171.31Z" fill="white"/>
<path d="M56.1608 44.0576H8.66877L6.45215 33.2578H56.1608V44.0576Z" fill="white"/>
<path d="M30.0516 41.9264C29.5423 41.9264 29.0801 41.8321 28.6651 41.6434C28.25 41.4547 27.8916 41.1905 27.5992 40.87C27.2974 40.549 27.071 40.1815 26.9106 39.7757C26.7503 39.3702 26.6748 38.9458 26.6748 38.5214C26.6748 38.0781 26.7597 37.6533 26.9295 37.2479C27.0993 36.8424 27.3351 36.484 27.6369 36.1632C27.9388 35.8425 28.3066 35.5973 28.7216 35.4181C29.1367 35.2388 29.5989 35.1445 30.0988 35.1445C30.6081 35.1445 31.0703 35.2388 31.4853 35.4369C31.9004 35.6256 32.2588 35.8897 32.5512 36.2198C32.8436 36.5499 33.07 36.9084 33.2303 37.3138C33.3907 37.7196 33.4661 38.1346 33.4661 38.5684C33.4661 39.0118 33.3812 39.4267 33.2209 39.8325C33.0511 40.2379 32.8153 40.5964 32.5134 40.917C32.2116 41.2379 31.8438 41.4831 31.4287 41.6718C31.0137 41.8321 30.5609 41.9264 30.0516 41.9264ZM28.533 38.5305C28.533 38.7571 28.5613 38.9739 28.6273 39.1815C28.6934 39.3892 28.7877 39.5779 28.9103 39.7476C29.0329 39.9174 29.1933 40.0492 29.3914 40.1436C29.58 40.2379 29.8064 40.2944 30.0705 40.2944C30.3346 40.2944 30.5609 40.2474 30.7591 40.1436C30.9571 40.0398 31.1175 39.9079 31.2401 39.7287C31.3627 39.5589 31.457 39.3607 31.5136 39.1531C31.5702 38.9458 31.5985 38.7287 31.5985 38.5025C31.5985 38.2759 31.5702 38.0591 31.5042 37.8515C31.4382 37.6442 31.3439 37.4555 31.2212 37.2858C31.0986 37.116 30.9383 36.9932 30.7402 36.8989C30.5421 36.8045 30.3157 36.7576 30.0611 36.7576C29.7969 36.7576 29.5706 36.8045 29.3725 36.9084C29.1744 37.0122 29.0235 37.1441 28.9009 37.3043C28.7782 37.4745 28.6839 37.6628 28.6273 37.8704C28.5613 38.0967 28.533 38.3138 28.533 38.5305Z" fill="#2C65B0"/>
<path d="M40.4742 41.9268C39.9367 41.9268 39.4838 41.8419 39.0971 41.6626C38.7104 41.4834 38.3991 41.2474 38.1541 40.9363C37.9086 40.6252 37.7295 40.2762 37.6257 39.8798C37.5125 39.4838 37.4561 39.0591 37.4561 38.6252V35.1826H39.2952V38.6158C39.2952 38.8329 39.3141 39.05 39.3611 39.2478C39.4084 39.446 39.4743 39.6252 39.5686 39.7855C39.6629 39.9458 39.7856 40.0685 39.9273 40.1534C40.078 40.2478 40.2571 40.2853 40.4742 40.2853C40.6912 40.2853 40.8798 40.2383 41.0309 40.1534C41.1816 40.0591 41.3043 39.9363 41.3892 39.776C41.4835 39.6157 41.5494 39.4365 41.5967 39.2383C41.644 39.0405 41.6626 38.8329 41.6626 38.6158V35.1826H43.5021V38.6158C43.5021 39.078 43.4453 39.5119 43.3135 39.9177C43.1908 40.3232 43.0116 40.6721 42.7662 40.9741C42.5212 41.2758 42.2099 41.5115 41.8232 41.6721C41.4456 41.8419 41.0025 41.9268 40.4742 41.9268Z" fill="#2C65B0"/>
<path d="M53.0761 36.786H51.1518V41.8794H49.3127V36.786H47.3789V35.1826H53.0761V36.786Z" fill="#2C65B0"/>
</g>
</g>
<defs>
<clipPath id="clip0_17123_6739">
<rect width="280" height="51" fill="white"/>
</clipPath>
</defs>
</svg>
