<svg width="47" height="52" viewBox="0 0 47 52" fill="none" xmlns="http://www.w3.org/2000/svg">
<g filter="url(#filter0_d_17123_6706)">
<path d="M22.7811 44.5638C22.7811 44.5638 36.6852 41.0881 39.466 27.9947V11.5409C39.466 11.5409 27.995 10.9613 22.7811 6.55884C22.7811 6.55884 15.2494 11.7727 6.55908 11.425V26.6043C6.55908 26.6043 6.90686 40.2766 22.7811 44.5638Z" stroke="white" stroke-width="1.14068" stroke-miterlimit="10" stroke-linecap="round" stroke-linejoin="round"/>
<path d="M22.8422 39.6124C22.8422 39.6124 33.1233 37.0418 35.1798 27.3606V15.194C35.1798 15.194 26.6978 14.7657 22.8422 11.51C22.8422 11.51 17.2733 15.3656 10.8472 15.1082V26.3324C10.8472 26.3324 11.1046 36.4426 22.8422 39.6124Z" stroke="white" stroke-width="1.14068" stroke-miterlimit="10" stroke-linecap="round" stroke-linejoin="round"/>
<path d="M16.9878 25.3296L21.738 29.0372L29.5016 21.8533" stroke="white" stroke-width="1.14068" stroke-miterlimit="10" stroke-linecap="round" stroke-linejoin="round"/>
</g>
<defs>
<filter id="filter0_d_17123_6706" x="0.000175476" y="-6.86646e-05" width="46.025" height="51.1227" filterUnits="userSpaceOnUse" color-interpolation-filters="sRGB">
<feFlood flood-opacity="0" result="BackgroundImageFix"/>
<feColorMatrix in="SourceAlpha" type="matrix" values="0 0 0 0 0 0 0 0 0 0 0 0 0 0 0 0 0 0 127 0" result="hardAlpha"/>
<feOffset/>
<feGaussianBlur stdDeviation="2.9943"/>
<feComposite in2="hardAlpha" operator="out"/>
<feColorMatrix type="matrix" values="0 0 0 0 0 0 0 0 0 0 0 0 0 0 0 0 0 0 0.43 0"/>
<feBlend mode="normal" in2="BackgroundImageFix" result="effect1_dropShadow_17123_6706"/>
<feBlend mode="normal" in="SourceGraphic" in2="effect1_dropShadow_17123_6706" result="shape"/>
</filter>
</defs>
</svg>
