<svg width="20" height="21" viewBox="0 0 20 21" fill="none" xmlns="http://www.w3.org/2000/svg">
<mask id="path-1-inside-1_1_445" fill="white">
<path d="M18.8535 9.33405C19.0042 9.33412 19.1533 9.35574 19.2925 9.39768C19.4316 9.43961 19.5581 9.50103 19.6645 9.57844C19.771 9.65585 19.8554 9.74772 19.913 9.84882C19.9705 9.94992 20.0001 10.0583 20 10.1677C19.9999 10.2771 19.9701 10.3854 19.9124 10.4864C19.8546 10.5875 19.77 10.6793 19.6634 10.7566C19.5568 10.8339 19.4303 10.8952 19.2911 10.937C19.1518 10.9788 19.0026 11.0002 18.852 11.0002L18.8535 9.33405ZM17.1242 10.1666L17.1242 9.3335L17.1249 9.3335L17.1242 10.1666ZM9.4474 10.9996C9.14312 10.9996 8.85131 10.9118 8.63616 10.7556C8.421 10.5994 8.30013 10.3875 8.30013 10.1666C8.30013 9.94561 8.421 9.73372 8.63616 9.57749C8.85131 9.42126 9.14312 9.3335 9.4474 9.3335L9.4474 10.9996ZM9.43325 9.3335C9.73752 9.3335 10.0293 9.42126 10.2445 9.57749C10.4596 9.73372 10.5805 9.94561 10.5805 10.1666C10.5805 10.3875 10.4596 10.5994 10.2445 10.7556C10.0293 10.9118 9.73752 10.9996 9.43325 10.9996L9.43325 9.3335ZM1.14727 10.9996C0.842997 10.9996 0.551185 10.9118 0.336028 10.7556C0.120873 10.5994 8.48679e-07 10.3875 8.59325e-07 10.1666C8.69971e-07 9.94561 0.120873 9.73372 0.336028 9.57749C0.551185 9.42126 0.842997 9.3335 1.14727 9.3335L1.14727 10.9996ZM18.852 11.0002L18.8233 11.0002L18.8244 9.33405L18.8535 9.33405L18.852 11.0002ZM18.8233 11.0002L18.4829 11.0002L18.4848 9.33405L18.8244 9.33405L18.8233 11.0002ZM18.4829 11.0002L18.1433 11.0002L18.1449 9.33405L18.4848 9.33405L18.4829 11.0002ZM18.1433 11.0002L17.803 10.9999L17.8049 9.33377L18.1449 9.33405L18.1433 11.0002ZM17.803 10.9999L17.4634 10.9996L17.4649 9.3335L17.8049 9.33377L17.803 10.9999ZM17.4634 10.9996L17.1234 10.9996L17.1249 9.3335L17.4649 9.3335L17.4634 10.9996ZM17.1242 10.9996L9.4474 10.9996L9.4474 9.3335L17.1242 9.3335L17.1242 10.9996ZM9.43325 10.9996L1.14727 10.9996L1.14727 9.3335L9.43325 9.3335L9.43325 10.9996Z"/>
</mask>
<path d="M18.8535 9.33405C19.0042 9.33412 19.1533 9.35574 19.2925 9.39768C19.4316 9.43961 19.5581 9.50103 19.6645 9.57844C19.771 9.65585 19.8554 9.74772 19.913 9.84882C19.9705 9.94992 20.0001 10.0583 20 10.1677C19.9999 10.2771 19.9701 10.3854 19.9124 10.4864C19.8546 10.5875 19.77 10.6793 19.6634 10.7566C19.5568 10.8339 19.4303 10.8952 19.2911 10.937C19.1518 10.9788 19.0026 11.0002 18.852 11.0002L18.8535 9.33405ZM17.1242 10.1666L17.1242 9.3335L17.1249 9.3335L17.1242 10.1666ZM9.4474 10.9996C9.14312 10.9996 8.85131 10.9118 8.63616 10.7556C8.421 10.5994 8.30013 10.3875 8.30013 10.1666C8.30013 9.94561 8.421 9.73372 8.63616 9.57749C8.85131 9.42126 9.14312 9.3335 9.4474 9.3335L9.4474 10.9996ZM9.43325 9.3335C9.73752 9.3335 10.0293 9.42126 10.2445 9.57749C10.4596 9.73372 10.5805 9.94561 10.5805 10.1666C10.5805 10.3875 10.4596 10.5994 10.2445 10.7556C10.0293 10.9118 9.73752 10.9996 9.43325 10.9996L9.43325 9.3335ZM1.14727 10.9996C0.842997 10.9996 0.551185 10.9118 0.336028 10.7556C0.120873 10.5994 8.48679e-07 10.3875 8.59325e-07 10.1666C8.69971e-07 9.94561 0.120873 9.73372 0.336028 9.57749C0.551185 9.42126 0.842997 9.3335 1.14727 9.3335L1.14727 10.9996ZM18.852 11.0002L18.8233 11.0002L18.8244 9.33405L18.8535 9.33405L18.852 11.0002ZM18.8233 11.0002L18.4829 11.0002L18.4848 9.33405L18.8244 9.33405L18.8233 11.0002ZM18.4829 11.0002L18.1433 11.0002L18.1449 9.33405L18.4848 9.33405L18.4829 11.0002ZM18.1433 11.0002L17.803 10.9999L17.8049 9.33377L18.1449 9.33405L18.1433 11.0002ZM17.803 10.9999L17.4634 10.9996L17.4649 9.3335L17.8049 9.33377L17.803 10.9999ZM17.4634 10.9996L17.1234 10.9996L17.1249 9.3335L17.4649 9.3335L17.4634 10.9996ZM17.1242 10.9996L9.4474 10.9996L9.4474 9.3335L17.1242 9.3335L17.1242 10.9996ZM9.43325 10.9996L1.14727 10.9996L1.14727 9.3335L9.43325 9.3335L9.43325 10.9996Z" fill="white"/>
<path d="M18.4848 9.33405L19.4848 9.3352L17.4848 9.33267L18.4848 9.33405ZM18.852 11.0002L19.852 11.0011L19.8535 9.33497L18.8535 9.33405L17.8535 9.33313L17.852 10.9992L18.852 11.0002ZM18.8237 10.1671L17.8237 10.1662L17.8229 10.9992L18.8229 11.0002L19.8229 11.0011L19.8237 10.168L18.8237 10.1671ZM18.4837 10.1671L19.4837 10.1685L19.4848 9.33543L18.4848 9.33405L17.4848 9.33267L17.4837 10.1657L18.4837 10.1671ZM18.1441 10.1671L17.1441 10.1662L17.1433 10.9992L18.1433 11.0002L19.1433 11.0011L19.1441 10.168L18.1441 10.1671ZM17.8037 10.1668L16.8037 10.1664L16.8034 10.9994L17.8034 10.9999L18.8034 11.0003L18.8037 10.1673L17.8037 10.1668ZM17.4641 10.1666L18.4641 10.1675L18.4649 9.33441L17.4649 9.3335L16.4649 9.33258L16.4641 10.1656L17.4641 10.1666ZM9.4474 9.3335L8.4474 9.3335L8.4474 10.9996L9.4474 10.9996L10.4474 10.9996L10.4474 9.3335L9.4474 9.3335ZM9.43325 10.9996L10.4332 10.9996L10.4332 9.3335L9.43325 9.3335L8.43325 9.3335L8.43325 10.9996L9.43325 10.9996ZM1.14727 9.3335L0.147273 9.3335L0.147273 10.9996L1.14727 10.9996L2.14727 10.9996L2.14727 9.3335L1.14727 9.3335ZM18.8233 11.0002L19.8233 11.0009L19.8244 9.33474L18.8244 9.33405L17.8244 9.33336L17.8233 10.9995L18.8233 11.0002ZM18.4829 11.0002L19.4829 11.0013L19.4848 9.3352L18.4848 9.33405L17.4848 9.3329L17.4829 10.999L18.4829 11.0002ZM18.1433 11.0002L19.1433 11.0011L19.1449 9.33497L18.1449 9.33405L17.1449 9.33313L17.1433 10.9992L18.1433 11.0002ZM17.803 10.9999L18.803 11.001L18.8049 9.33492L17.8049 9.33377L16.8049 9.33263L16.803 10.9987L17.803 10.9999ZM17.4634 10.9996L18.4634 11.0005L18.4649 9.33441L17.4649 9.3335L16.4649 9.33258L16.4634 10.9987L17.4634 10.9996ZM18.8535 9.33405L18.8545 7.33405L18.8535 7.33405L18.8535 9.33405ZM18.852 11.0002L18.8529 9.00016L18.852 9.00016L18.852 11.0002ZM18.1433 11.0002L18.1417 13.0002L18.1433 13.0002L18.1433 11.0002ZM17.4649 9.3335L17.4665 7.3335L17.4649 7.3335L17.4649 9.3335ZM17.1242 10.1666L15.1242 10.1666L19.1242 10.1684L17.1242 10.1666ZM18.1449 9.33405L18.1432 11.3341L18.1449 11.3341L18.1449 9.33405ZM17.803 10.9999L17.8013 12.9999L17.8013 12.9999L17.803 10.9999ZM17.4634 10.9996L17.465 8.99961L17.4634 8.99961L17.4634 10.9996ZM17.1234 10.9996L15.1234 10.9978L15.1216 12.9996L17.1234 12.9996L17.1234 10.9996ZM17.1242 10.9996L17.1242 12.9996L19.1242 12.9996L19.1242 10.9996L17.1242 10.9996ZM18.8535 9.33405L18.8525 11.3341C18.8152 11.334 18.7699 11.329 18.7154 11.3126L19.2925 9.39768L19.8695 7.48273C19.5367 7.38245 19.1931 7.33422 18.8545 7.33405L18.8535 9.33405ZM19.2925 9.39768L18.7154 11.3126C18.6619 11.2965 18.5814 11.2637 18.4884 11.1961L19.6645 9.57844L20.8407 7.96083C20.5347 7.73836 20.2014 7.58273 19.8695 7.48273L19.2925 9.39768ZM19.6645 9.57844L18.4884 11.1961C18.3953 11.1284 18.2753 11.0147 18.1749 10.8384L19.913 9.84882L21.651 8.85924C21.4355 8.48074 21.1467 8.18332 20.8407 7.96083L19.6645 9.57844ZM19.913 9.84882L18.1749 10.8384C18.0718 10.6573 17.9998 10.4262 18 10.1658L20 10.1677L22 10.1695C22.0004 9.69033 21.8692 9.24258 21.651 8.85924L19.913 9.84882ZM20 10.1677L18 10.1658C18.0002 9.90548 18.0727 9.67471 18.176 9.49401L19.9124 10.4864L21.6488 11.4788C21.8676 11.096 21.9996 10.6486 22 10.1695L20 10.1677ZM19.9124 10.4864L18.176 9.49401C18.2765 9.31813 18.3964 9.20485 18.4893 9.13746L19.6634 10.7566L20.8375 12.3757C21.1437 12.1537 21.4328 11.8568 21.6488 11.4788L19.9124 10.4864ZM19.6634 10.7566L18.4893 9.13746C18.5822 9.07008 18.6626 9.03746 18.716 9.02142L19.2911 10.937L19.8661 12.8525C20.198 12.7529 20.5314 12.5976 20.8375 12.3757L19.6634 10.7566ZM19.2911 10.937L18.716 9.02142C18.7704 9.0051 18.8156 9.00015 18.8529 9.00016L18.852 11.0002L18.851 13.0002C19.1896 13.0003 19.5333 12.9524 19.8661 12.8525L19.2911 10.937ZM17.1242 10.1666L19.1242 10.1666L19.1242 9.3335L17.1242 9.3335L15.1242 9.3335L15.1242 10.1666L17.1242 10.1666ZM17.1242 9.3335L17.1242 11.3335L17.1249 11.3335L17.1249 9.3335L17.1249 7.3335L17.1242 7.3335L17.1242 9.3335ZM17.1249 9.3335L15.1249 9.33166L15.1242 10.1647L17.1242 10.1666L19.1242 10.1684L19.1249 9.33533L17.1249 9.3335ZM9.4474 10.9996L9.4474 8.99961C9.48511 8.99961 9.53045 9.00472 9.5844 9.02095C9.63703 9.03678 9.71769 9.06929 9.81128 9.13725L8.63616 10.7556L7.46103 12.374C8.06572 12.813 8.7843 12.9996 9.4474 12.9996L9.4474 10.9996ZM8.63616 10.7556L9.81128 9.13725C9.99521 9.27081 10.3001 9.61286 10.3001 10.1666L8.30013 10.1666L6.30013 10.1666C6.30013 11.1621 6.84679 11.928 7.46103 12.374L8.63616 10.7556ZM8.30013 10.1666L10.3001 10.1666C10.3001 10.7202 9.99521 11.0623 9.81128 11.1959L8.63616 9.57749L7.46103 7.95913C6.84679 8.40515 6.30013 9.17099 6.30013 10.1666L8.30013 10.1666ZM8.63616 9.57749L9.81128 11.1959C9.71768 11.2638 9.63703 11.2963 9.5844 11.3122C9.53045 11.3284 9.48511 11.3335 9.4474 11.3335L9.4474 9.3335L9.4474 7.3335C8.7843 7.3335 8.06572 7.52006 7.46103 7.95913L8.63616 9.57749ZM9.43325 9.3335L9.43325 11.3335C9.39554 11.3335 9.3502 11.3284 9.29625 11.3122C9.24362 11.2963 9.16296 11.2638 9.06937 11.1959L10.2445 9.57749L11.4196 7.95913C10.8149 7.52006 10.0963 7.3335 9.43325 7.3335L9.43325 9.3335ZM10.2445 9.57749L9.06937 11.1959C8.88544 11.0623 8.58052 10.7202 8.58052 10.1666L10.5805 10.1666L12.5805 10.1666C12.5805 9.17099 12.0339 8.40515 11.4196 7.95913L10.2445 9.57749ZM10.5805 10.1666L8.58052 10.1666C8.58052 9.61286 8.88544 9.27081 9.06937 9.13725L10.2445 10.7556L11.4196 12.374C12.0339 11.928 12.5805 11.1621 12.5805 10.1666L10.5805 10.1666ZM10.2445 10.7556L9.06937 9.13725C9.16296 9.06929 9.24362 9.03678 9.29624 9.02095C9.35019 9.00472 9.39553 8.99961 9.43325 8.99961L9.43325 10.9996L9.43325 12.9996C10.0964 12.9996 10.8149 12.813 11.4196 12.374L10.2445 10.7556ZM1.14727 10.9996L1.14727 8.99961C1.18499 8.99961 1.23033 9.00472 1.28428 9.02095C1.3369 9.03678 1.41756 9.06929 1.51115 9.13725L0.336028 10.7556L-0.839093 12.374C-0.234409 12.813 0.484174 12.9996 1.14727 12.9996L1.14727 10.9996ZM0.336028 10.7556L1.51115 9.13725C1.69509 9.27081 2 9.61287 2 10.1666L8.59325e-07 10.1666L-2 10.1666C-2 11.1621 -1.45334 11.928 -0.839093 12.374L0.336028 10.7556ZM8.59325e-07 10.1666L2 10.1666C2 10.7202 1.69509 11.0623 1.51115 11.1959L0.336028 9.57749L-0.839093 7.95913C-1.45334 8.40515 -2 9.17099 -2 10.1666L8.59325e-07 10.1666ZM0.336028 9.57749L1.51115 11.1959C1.41756 11.2638 1.3369 11.2963 1.28427 11.3122C1.23032 11.3284 1.18499 11.3335 1.14727 11.3335L1.14727 9.3335L1.14727 7.3335C0.484178 7.3335 -0.234405 7.52006 -0.839093 7.95913L0.336028 9.57749ZM18.852 11.0002L18.852 9.00016L18.8233 9.00016L18.8233 11.0002L18.8233 13.0002L18.852 13.0002L18.852 11.0002ZM18.8244 9.33405L18.8244 11.3341L18.8535 11.3341L18.8535 9.33405L18.8535 7.33405L18.8244 7.33405L18.8244 9.33405ZM18.8233 11.0002L18.8233 9.00016L18.4829 9.00016L18.4829 11.0002L18.4829 13.0002L18.8233 13.0002L18.8233 11.0002ZM18.4848 9.33405L18.4848 11.3341L18.8244 11.3341L18.8244 9.33405L18.8244 7.33405L18.4848 7.33405L18.4848 9.33405ZM18.4829 11.0002L18.4829 9.00016L18.1433 9.00016L18.1433 11.0002L18.1433 13.0002L18.4829 13.0002L18.4829 11.0002ZM18.1449 9.33405L18.1449 11.3341L18.4848 11.3341L18.4848 9.33405L18.4848 7.33405L18.1449 7.33405L18.1449 9.33405ZM18.1433 11.0002L18.145 9.00016L17.8046 8.99989L17.803 10.9999L17.8013 12.9999L18.1417 13.0002L18.1433 11.0002ZM17.8049 9.33377L17.8033 11.3338L18.1432 11.3341L18.1449 9.33405L18.1465 7.33405L17.8065 7.33377L17.8049 9.33377ZM17.803 10.9999L17.8046 8.99989L17.465 8.99961L17.4634 10.9996L17.4617 12.9996L17.8013 12.9999L17.803 10.9999ZM17.4649 9.3335L17.4633 11.3335L17.8033 11.3338L17.8049 9.33377L17.8065 7.33377L17.4665 7.3335L17.4649 9.3335ZM17.4634 10.9996L17.4634 8.99961L17.1234 8.99961L17.1234 10.9996L17.1234 12.9996L17.4634 12.9996L17.4634 10.9996ZM17.1234 10.9996L19.1234 11.0014L19.1249 9.33533L17.1249 9.3335L15.1249 9.33166L15.1234 10.9978L17.1234 10.9996ZM17.1249 9.3335L17.1249 11.3335L17.4649 11.3335L17.4649 9.3335L17.4649 7.3335L17.1249 7.3335L17.1249 9.3335ZM17.1242 10.9996L17.1242 8.99961L9.4474 8.99961L9.4474 10.9996L9.4474 12.9996L17.1242 12.9996L17.1242 10.9996ZM9.4474 9.3335L9.4474 11.3335L17.1242 11.3335L17.1242 9.3335L17.1242 7.3335L9.4474 7.3335L9.4474 9.3335ZM17.1242 9.3335L15.1242 9.3335L15.1242 10.9996L17.1242 10.9996L19.1242 10.9996L19.1242 9.3335L17.1242 9.3335ZM9.43325 10.9996L9.43325 8.99961L1.14727 8.99961L1.14727 10.9996L1.14727 12.9996L9.43325 12.9996L9.43325 10.9996ZM1.14727 9.3335L1.14727 11.3335L9.43325 11.3335L9.43325 9.3335L9.43325 7.3335L1.14727 7.3335L1.14727 9.3335Z" fill="#2C65B0" mask="url(#path-1-inside-1_1_445)"/>
<path d="M10.4586 1L18.3996 8.94137C18.5824 9.12419 18.7274 9.34123 18.8264 9.58011C18.9253 9.81898 18.9763 10.075 18.9763 10.3336C18.9763 10.5921 18.9253 10.8481 18.8264 11.087C18.7274 11.3259 18.5824 11.5429 18.3996 11.7258L10.4582 19.6667" stroke="#2C65B0" stroke-width="2" stroke-linecap="round" stroke-linejoin="round"/>
</svg>
