<svg width="48" height="47" viewBox="0 0 48 47" fill="none" xmlns="http://www.w3.org/2000/svg">
<path d="M47.5053 25.0954V45.8718H4.53656V25.0954H47.5053ZM8.22699 27.1823C8.17634 28.1727 7.44218 28.9833 6.49847 29.0446V41.9216C7.44231 41.9828 8.17653 42.7948 8.22699 43.7849H43.8149C43.8654 42.7946 44.5994 41.9826 45.5434 41.9216V29.0446C44.5995 28.9835 43.8655 28.1728 43.8149 27.1823H8.22699ZM26.0209 28.4743C27.361 28.4743 28.5527 29.2864 29.4008 30.5544C30.2497 31.8236 30.769 33.567 30.769 35.4831C30.7689 37.3998 30.2497 39.1433 29.4008 40.4128C28.5527 41.6811 27.361 42.4928 26.0209 42.4929C24.6808 42.4929 23.4892 41.681 22.6411 40.4128C21.7921 39.1433 21.273 37.3998 21.2729 35.4831C21.2729 33.5669 21.7921 31.8236 22.6411 30.5544C23.4893 29.2864 24.6807 28.4743 26.0209 28.4743Z" fill="#71ACF8" stroke="#71ACF8" stroke-width="0.361742"/>
<path d="M24.5085 21.86C25.9238 21.5779 27.3773 22.2127 28.5457 23.4254L28.8406 23.7321H21.9451L22.155 23.444C22.6925 22.7085 23.3919 22.1693 24.2253 21.9283L24.5085 21.86Z" fill="#71ACF8" stroke="#71ACF8" stroke-width="0.361742"/>
<path d="M44.2861 13.1293L46.8652 23.5082L46.9208 23.7328H44.8915L44.8574 23.5952L43.2949 17.31C42.3717 17.5097 41.4683 16.9341 41.1786 15.9936L14.415 23.725L14.3906 23.7328H8.18158L8.13177 23.3774L44.0595 12.9995L44.2402 12.9477L44.2861 13.1293Z" fill="#71ACF8" stroke="#71ACF8" stroke-width="0.361742"/>
<path d="M20.3831 14.5192C22.3084 13.3206 24.8823 14.1921 26.7639 16.3161L26.9534 16.5309L26.679 16.61L18.5549 18.9567L18.3176 19.0261L18.3245 18.778C18.3738 16.9497 19.0596 15.343 20.3831 14.5192Z" fill="#71ACF8" stroke="#71ACF8" stroke-width="0.361742"/>
<path d="M37.6546 0.426147L43.5843 11.4984L43.6898 11.6947L43.4749 11.7572L41.8753 12.2201L41.7347 12.2611L41.6653 12.1322L37.7044 4.73474C36.8659 5.18087 35.854 4.8825 35.3441 4.05408L5.23077 22.7992L5.20929 22.8119L5.18488 22.8187L1.04523 24.014L0.947571 24.0424L0.873352 23.974L0.474915 23.6117L0.298157 23.4506L0.501282 23.3236L37.3997 0.357788L37.5638 0.255249L37.6546 0.426147Z" fill="#71ACF8" stroke="#71ACF8" stroke-width="0.361742"/>
</svg>
