<svg width="38" height="46" viewBox="0 0 38 46" fill="none" xmlns="http://www.w3.org/2000/svg">
<path d="M35.4191 24.9168C35.4191 35.4201 28.0668 40.6718 19.328 43.7177C18.8704 43.8728 18.3734 43.8653 17.9206 43.6967C9.16088 40.6718 1.80859 35.4201 1.80859 24.9168V10.2123C1.80859 9.65515 2.02991 9.12084 2.42386 8.72689C2.81781 8.33294 3.35212 8.11162 3.90925 8.11162C8.11055 8.11162 13.3622 5.59084 17.0173 2.39784C17.4624 2.01762 18.0285 1.80872 18.6138 1.80872C19.1992 1.80872 19.7653 2.01762 20.2103 2.39784C23.8865 5.61184 29.1171 8.11162 33.3184 8.11162C33.8755 8.11162 34.4098 8.33294 34.8038 8.72689C35.1977 9.12084 35.4191 9.65515 35.4191 10.2123V24.9168Z" stroke="#71ACF8" stroke-width="3.61742" stroke-linecap="round" stroke-linejoin="round"/>
<path d="M12.3105 22.8157L16.5119 27.017L24.9145 18.6144" stroke="#71ACF8" stroke-width="3.61742" stroke-linecap="round" stroke-linejoin="round"/>
</svg>
