<svg width="33" height="33" viewBox="0 0 33 33" fill="none" xmlns="http://www.w3.org/2000/svg">
<path d="M19.2432 2.86264C19.8741 4.636 21.8999 5.4752 23.6004 4.66705C26.2998 3.38372 29.1166 6.20011 27.8333 8.89997C27.0251 10.6 27.8643 12.6262 29.6377 13.2571C32.4541 14.2583 32.4541 18.2415 29.6377 19.2431C27.8643 19.874 27.0251 21.8998 27.8333 23.6003C29.1166 26.3001 26.2998 29.1165 23.6004 27.8332C21.8999 27.025 19.8741 27.8642 19.2432 29.6376C18.2416 32.454 14.2584 32.454 13.2572 29.6376C12.6263 27.8642 10.6001 27.025 8.90009 27.8332C6.20022 29.1165 3.38383 26.3001 4.66716 23.6003C5.47532 21.8998 4.63611 19.874 2.86231 19.2431C0.0458981 18.2415 0.0458981 14.2583 2.86231 13.2571C4.63611 12.6262 5.47532 10.6 4.66716 8.89997C3.38383 6.20011 6.20022 3.38372 8.90009 4.66705C10.6001 5.4752 12.6263 4.636 13.2572 2.86264C14.2584 0.0457866 18.2416 0.0457866 19.2432 2.86264Z" stroke="white" stroke-width="1.5" stroke-miterlimit="10" stroke-linecap="round" stroke-linejoin="round"/>
<path d="M24.7093 16.2504C24.7093 20.9225 20.9219 24.7099 16.2498 24.7099C11.5781 24.7099 7.79065 20.9225 7.79065 16.2504C7.79065 11.5787 11.5781 7.79126 16.2498 7.79126C20.9219 7.79126 24.7093 11.5787 24.7093 16.2504Z" stroke="white" stroke-width="1.5" stroke-miterlimit="10" stroke-linecap="round" stroke-linejoin="round"/>
<path d="M12.3351 16.2389L15.2536 18.5877L19.7376 13.3918" stroke="white" stroke-width="1.5" stroke-miterlimit="10" stroke-linecap="round" stroke-linejoin="round"/>
</svg>
