<svg width="73" height="73" viewBox="0 0 73 73" fill="none" xmlns="http://www.w3.org/2000/svg">
<path d="M12.1667 39.5417V63.875H33.4584V39.5417H12.1667ZM36.5 39.5417V63.875H57.7917V39.5417H36.5ZM60.8334 39.5417V66.9167H9.12504V39.5417H6.08337V21.2917H15.33L15.2084 19.7708C15.2084 16.9474 16.33 14.2396 18.3265 12.2431C20.3229 10.2466 23.0308 9.125 25.8542 9.125C29.7171 9.125 33.1238 11.1933 34.9792 14.2958C36.8346 11.1933 40.2413 9.125 44.1042 9.125C46.9277 9.125 49.6355 10.2466 51.632 12.2431C53.6284 14.2396 54.75 16.9474 54.75 19.7708L54.6284 21.2917H63.875V39.5417H60.8334ZM9.12504 24.3333V36.5H33.4584V24.3333H9.12504ZM60.8334 36.5V24.3333H36.5V36.5H60.8334ZM51.5563 21.2917L51.7084 19.7708C51.7084 17.7541 50.9072 15.8199 49.4812 14.3939C48.0551 12.9678 46.121 12.1667 44.1042 12.1667C42.0875 12.1667 40.1533 12.9678 38.7272 14.3939C37.3012 15.8199 36.5 17.7541 36.5 19.7708V21.2917H51.5563ZM33.4584 21.2917V19.7708C33.4584 17.7541 32.6572 15.8199 31.2312 14.3939C29.8051 12.9678 27.871 12.1667 25.8542 12.1667C23.8375 12.1667 21.9033 12.9678 20.4773 14.3939C19.0512 15.8199 18.25 17.7541 18.25 19.7708L18.4021 21.2917H33.4584Z" fill="white"/>
</svg>
