<svg width="26" height="25" viewBox="0 0 26 25" fill="none" xmlns="http://www.w3.org/2000/svg">
<path d="M0.384044 14.9645L12.9359 25L25.4878 14.9645C25.6359 14.8739 25.7581 14.7587 25.846 14.6268C25.9339 14.495 25.9855 14.3495 25.9974 14.2002C26.0092 14.0509 25.981 13.9013 25.9147 13.7615C25.8483 13.6217 25.7454 13.495 25.6128 13.39C25.4803 13.285 25.3212 13.2041 25.1463 13.1528C24.9715 13.1014 24.785 13.0809 24.5994 13.0926C24.4138 13.1042 24.2335 13.1478 24.0707 13.2203C23.9079 13.2929 23.7664 13.3926 23.6557 13.5129L14.2353 21.0213L14.2353 1.04428C14.2353 0.767318 14.0984 0.501702 13.8547 0.305863C13.6111 0.110023 13.2806 -8.95735e-07 12.9359 -9.20004e-07C12.5913 -9.44273e-07 12.2608 0.110023 12.0172 0.305863C11.7735 0.501702 11.6366 0.767318 11.6366 1.04428L11.6366 21.0213L2.21615 13.5129C1.97148 13.3177 1.64031 13.2085 1.2955 13.2095C0.950698 13.2105 0.620498 13.3215 0.377546 13.5182C0.134593 13.7148 -0.00121188 13.981 6.88783e-06 14.2581C0.00122565 14.5352 0.139367 14.8006 0.384044 14.9958L0.384044 14.9645Z" fill="white"/>
</svg>
