<svg width="41" height="40" viewBox="0 0 41 40" fill="none" xmlns="http://www.w3.org/2000/svg">
<path d="M20.2542 27.7844H20.2749" stroke="#71ACF8" stroke-width="3.61742" stroke-linecap="round" stroke-linejoin="round"/>
<path d="M28.4515 27.7844H28.4722" stroke="#71ACF8" stroke-width="3.61742" stroke-linecap="round" stroke-linejoin="round"/>
<path d="M1.80872 33.7796C1.80872 34.8395 2.24056 35.856 3.00924 36.6055C3.77792 37.355 4.82047 37.776 5.90755 37.776H34.5994C35.6865 37.776 36.729 37.355 37.4977 36.6055C38.2664 35.856 38.6982 34.8395 38.6982 33.7796V12.7987C38.6984 12.6195 38.6492 12.4435 38.5556 12.2892C38.4621 12.1349 38.3277 12.008 38.1665 11.9218C38.0054 11.8356 37.8234 11.7932 37.6396 11.7991C37.4559 11.8051 37.2772 11.8591 37.1222 11.9555L27.9777 17.6383C27.8228 17.7347 27.6441 17.7888 27.4603 17.7947C27.2766 17.8006 27.0946 17.7582 26.9335 17.672C26.7723 17.5858 26.6379 17.4589 26.5444 17.3046C26.4508 17.1503 26.4015 16.9743 26.4017 16.7951V12.7987C26.4019 12.6195 26.3527 12.4435 26.2591 12.2892C26.1656 12.1349 26.0312 12.008 25.87 11.9218C25.7088 11.8356 25.5269 11.7932 25.3431 11.7991C25.1594 11.8051 24.9807 11.8591 24.8257 11.9555L15.6833 17.6383C15.5283 17.7353 15.3494 17.7897 15.1653 17.7959C14.9813 17.8021 14.7989 17.7599 14.6375 17.6736C14.476 17.5873 14.3413 17.4601 14.2477 17.3056C14.154 17.151 14.1048 16.9746 14.1052 16.7951V5.80508C14.1052 4.74518 13.6734 3.72869 12.9047 2.97922C12.136 2.22976 11.0935 1.80872 10.0064 1.80872H5.90755C4.82047 1.80872 3.77792 2.22976 3.00924 2.97922C2.24056 3.72869 1.80872 4.74518 1.80872 5.80508V33.7796Z" stroke="#71ACF8" stroke-width="3.61742" stroke-linecap="round" stroke-linejoin="round"/>
<path d="M12.056 27.7844H12.0767" stroke="#71ACF8" stroke-width="3.61742" stroke-linecap="round" stroke-linejoin="round"/>
</svg>
