<svg width="16" height="18" viewBox="0 0 16 18" fill="none" xmlns="http://www.w3.org/2000/svg">
<path d="M11.8286 17.8225L12.1546 17.8617C12.4295 17.8863 12.7132 17.7849 12.9176 17.5893L15.4942 15.129C15.6652 14.9632 15.7657 14.7465 15.7692 14.5182C15.7708 14.4069 15.7483 14.298 15.7029 14.1979C15.6575 14.0979 15.5903 14.0087 15.5051 13.9357L11.7562 10.7139C11.4426 10.4474 10.9475 10.4387 10.5933 10.701L8.579 12.1784C7.98882 11.7261 7.01285 10.9224 6.30826 9.99033C5.60366 9.05827 5.11408 7.92335 4.84992 7.25613L6.96992 5.91855C7.34528 5.68415 7.50396 5.23727 7.3296 4.86892L5.31485 0.466467C5.2215 0.268839 5.0471 0.112287 4.82686 0.0434125C4.59782 -0.0265224 4.35113 -0.0138573 4.1291 0.0949701L0.849662 1.61492C0.588858 1.73603 0.396749 1.9586 0.33326 2.2136C0.181597 2.79688 -1.04945 8.01165 2.44006 12.6171C5.58256 16.774 10.4385 17.6466 11.8304 17.8142L11.8286 17.8225Z" fill="#2C65B0"/>
</svg>
