<svg width="43" height="49" viewBox="0 0 43 49" fill="none" xmlns="http://www.w3.org/2000/svg">
<path d="M21.3168 0.181946L21.3891 0.186829H21.3901C24.4268 0.402617 27.4695 0.971353 30.434 1.87628C33.3803 2.77598 36.2482 4.00715 38.9575 5.53644L39.2914 5.72491L39.3452 5.75519L39.3696 5.81183L39.5268 6.18097C40.8588 9.30483 41.742 12.5228 42.1567 15.7562L42.2338 16.4026L42.2953 17.0316C42.5767 20.1713 42.4071 23.3034 41.7895 26.3509C41.1077 29.7159 39.9111 32.8125 38.2309 35.553C36.5344 38.3202 34.0929 40.9608 31.1733 43.1917C28.2264 45.4433 24.9369 47.1639 21.6586 48.1663L21.3569 48.2591L21.3041 48.2747L21.2514 48.2591L20.9496 48.1663C17.6712 47.1639 14.3817 45.4433 11.435 43.1917C8.51532 40.9608 6.07483 38.3201 4.37836 35.553C2.69802 32.8125 1.50071 29.7162 0.818787 26.3509C0.160079 23.1002 0.0110972 19.7526 0.375427 16.4026L0.451599 15.7562C0.86617 12.5224 1.74981 9.3044 3.08148 6.18097L3.23871 5.81183L3.26312 5.75519L3.31683 5.72491L3.65082 5.53644C6.36021 4.00718 9.22803 2.77571 12.1743 1.87628C15.139 0.971062 18.1824 0.402596 21.2192 0.186829L21.2914 0.181946L21.3041 0.180969L21.3168 0.181946ZM21.3041 2.93097C18.4775 3.13839 15.644 3.67045 12.8813 4.51398C10.2473 5.31807 7.67958 6.4042 5.24261 7.74445C4.03476 10.6831 3.25751 13.7008 2.92914 16.72C2.59739 19.7704 2.73271 22.8156 3.33148 25.7708C3.94722 28.8093 5.0239 31.595 6.52972 34.0511C9.60659 39.0694 15.3774 43.5022 21.3041 45.4173C27.231 43.5021 33.0025 39.0696 36.0795 34.0511C37.5853 31.5953 38.6611 28.8093 39.2768 25.7708C39.8756 22.8156 40.011 19.7704 39.6791 16.72C39.3509 13.7012 38.5729 10.6835 37.3647 7.74445C34.928 6.40437 32.3608 5.31798 29.727 4.51398C26.9645 3.67069 24.1309 3.13839 21.3041 2.93097Z" fill="#71ACF8" stroke="#71ACF8" stroke-width="0.361742"/>
<path d="M21.4566 5.6911L22.4869 7.28973C23.3998 8.70629 24.4199 10.1216 25.4097 11.4948C26.6622 13.232 27.9628 15.0353 29.1002 16.9138C29.9678 18.3466 30.6898 19.7676 31.2447 21.1374L31.5875 21.9831L31.6304 22.0895L31.5523 22.1735L21.772 32.7175L21.6392 32.861L21.5064 32.7175L15.563 26.3102L15.4488 26.1872L15.563 26.0641L17.3365 24.1511L17.4693 24.0085L17.6021 24.1511L21.6392 28.5036L28.2056 21.4235C27.7812 20.4984 27.2744 19.5446 26.69 18.5798C25.6176 16.8089 24.358 15.0622 23.1353 13.3659C22.5284 12.5242 21.9101 11.6622 21.3043 10.7878C20.6983 11.6621 20.0803 12.5242 19.4732 13.3659C18.2504 15.062 16.9906 16.8088 15.9185 18.5798C13.2119 23.0492 12.2549 27.0216 13.0259 30.3981C13.2347 31.3118 13.6164 32.2113 14.1617 33.072C14.9932 34.3835 16.0673 35.4045 17.3541 36.1091C18.5627 36.7708 19.9289 37.1208 21.3043 37.1208C22.6796 37.1208 24.0458 36.7707 25.2545 36.1091C26.5414 35.4045 27.6155 34.3835 28.4468 33.072C28.9924 32.2113 29.3739 31.3118 29.5826 30.3981C29.8929 29.0389 29.923 27.5714 29.6705 26.0222L29.6568 25.9343L29.7164 25.8698L31.8091 23.613L32.0357 23.3698L32.1177 23.6921C32.7847 26.3144 32.8704 28.9405 32.3716 31.1247C32.0813 32.3964 31.5599 33.6301 30.8238 34.7917C29.7212 36.5316 28.2884 37.8941 26.565 38.8376C24.9528 39.7202 23.1338 40.1872 21.3043 40.1872C19.4754 40.1872 17.6566 39.7201 16.0445 38.8376C14.3211 37.894 12.8874 36.532 11.7847 34.7917C11.0485 33.6303 10.5281 32.3964 10.2379 31.1247C9.26541 26.8663 10.3796 22.082 13.5084 16.9147C14.6459 15.0359 15.9463 13.2321 17.1988 11.4948C18.189 10.1213 19.2096 8.70637 20.1226 7.28973L21.1519 5.6911L21.3043 5.45477L21.4566 5.6911Z" fill="#71ACF8" stroke="#71ACF8" stroke-width="0.361742"/>
</svg>
