<svg width="51" height="51" viewBox="0 0 51 51" fill="none" xmlns="http://www.w3.org/2000/svg">
<path d="M20.9461 12.7496C20.9461 11.5419 21.4259 10.3837 22.2799 9.52972C23.1338 8.67576 24.292 8.19601 25.4997 8.19601C26.7074 8.19601 27.8656 8.67576 28.7196 9.52972C29.5735 10.3837 30.0533 11.5419 30.0533 12.7496C30.0533 13.9573 29.5735 15.1155 28.7196 15.9694C27.8656 16.8234 26.7074 17.3032 25.4997 17.3032C24.292 17.3032 23.1338 16.8234 22.2799 15.9694C21.4259 15.1155 20.9461 13.9573 20.9461 12.7496ZM25.4997 5.46387C23.5674 5.46387 21.7143 6.23147 20.3479 7.5978C18.9816 8.96414 18.214 10.8173 18.214 12.7496C18.214 14.6819 18.9816 16.535 20.3479 17.9014C21.7143 19.2677 23.5674 20.0353 25.4997 20.0353C27.432 20.0353 29.2852 19.2677 30.6515 17.9014C32.0178 16.535 32.7854 14.6819 32.7854 12.7496C32.7854 10.8173 32.0178 8.96414 30.6515 7.5978C29.2852 6.23147 27.432 5.46387 25.4997 5.46387ZM10.0176 13.6603C9.05143 13.6603 8.12486 14.0441 7.44169 14.7273C6.75852 15.4104 6.37472 16.337 6.37472 17.3032C6.37472 18.2693 6.75852 19.1959 7.44169 19.879C8.12486 20.5622 9.05143 20.946 10.0176 20.946C10.9837 20.946 11.9103 20.5622 12.5935 19.879C13.2766 19.1959 13.6604 18.2693 13.6604 17.3032C13.6604 16.337 13.2766 15.4104 12.5935 14.7273C11.9103 14.0441 10.9837 13.6603 10.0176 13.6603ZM3.64258 17.3032C3.64258 16.466 3.80747 15.637 4.12785 14.8635C4.44822 14.0901 4.9178 13.3873 5.50977 12.7953C6.10175 12.2034 6.80452 11.7338 7.57797 11.4134C8.35142 11.093 9.1804 10.9282 10.0176 10.9282C10.8548 10.9282 11.6837 11.093 12.4572 11.4134C13.2306 11.7338 13.9334 12.2034 14.5254 12.7953C15.1174 13.3873 15.5869 14.0901 15.9073 14.8635C16.2277 15.637 16.3926 16.466 16.3926 17.3032C16.3926 18.9939 15.7209 20.6154 14.5254 21.811C13.3298 23.0065 11.7083 23.6782 10.0176 23.6782C8.32682 23.6782 6.70532 23.0065 5.50977 21.811C4.31423 20.6154 3.64258 18.9939 3.64258 17.3032ZM40.9819 13.6603C40.0157 13.6603 39.0891 14.0441 38.406 14.7273C37.7228 15.4104 37.339 16.337 37.339 17.3032C37.339 18.2693 37.7228 19.1959 38.406 19.879C39.0891 20.5622 40.0157 20.946 40.9819 20.946C41.948 20.946 42.8746 20.5622 43.5578 19.879C44.2409 19.1959 44.6247 18.2693 44.6247 17.3032C44.6247 16.337 44.2409 15.4104 43.5578 14.7273C42.8746 14.0441 41.948 13.6603 40.9819 13.6603ZM34.6069 17.3032C34.6069 15.6124 35.2785 13.9909 36.4741 12.7953C37.6696 11.5998 39.2911 10.9282 40.9819 10.9282C42.6726 10.9282 44.2941 11.5998 45.4897 12.7953C46.6852 13.9909 47.3569 15.6124 47.3569 17.3032C47.3569 18.9939 46.6852 20.6154 45.4897 21.811C44.2941 23.0065 42.6726 23.6782 40.9819 23.6782C39.2911 23.6782 37.6696 23.0065 36.4741 21.811C35.2785 20.6154 34.6069 18.9939 34.6069 17.3032ZM16.3926 26.8657C16.3926 25.1062 17.8206 23.6782 19.5801 23.6782H31.4194C33.1789 23.6782 34.6069 25.1062 34.6069 26.8657V36.4282C34.6069 38.8435 33.6474 41.16 31.9394 42.8679C30.2315 44.5758 27.9151 45.5353 25.4997 45.5353C23.0844 45.5353 20.7679 44.5758 19.06 42.8679C17.3521 41.16 16.3926 38.8435 16.3926 36.4282V26.8657ZM19.5801 26.4103C19.4593 26.4103 19.3435 26.4583 19.2581 26.5437C19.1727 26.6291 19.1247 26.7449 19.1247 26.8657V36.4282C19.1247 38.1189 19.7964 39.7404 20.9919 40.936C22.1875 42.1315 23.809 42.8032 25.4997 42.8032C27.1905 42.8032 28.812 42.1315 30.0075 40.936C31.2031 39.7404 31.8747 38.1189 31.8747 36.4282V26.8657C31.8747 26.7449 31.8267 26.6291 31.7414 26.5437C31.656 26.4583 31.5401 26.4103 31.4194 26.4103H19.5801ZM14.5711 26.8693L6.00497 29.1643C5.60058 29.2727 5.22151 29.4597 4.88941 29.7147C4.55731 29.9696 4.27869 30.2875 4.06946 30.6501C3.86023 31.0128 3.72449 31.4131 3.67 31.8282C3.6155 32.2433 3.64332 32.6651 3.75186 33.0694L5.28369 38.7869C5.63405 40.0956 6.27199 41.3097 7.15101 42.3406C8.03002 43.3715 9.12798 44.1933 10.3649 44.7461C11.6017 45.299 12.9464 45.5689 14.3008 45.5362C15.6552 45.5035 16.9852 45.169 18.194 44.5572C17.484 43.9194 16.8606 43.1913 16.3398 42.3915C16.1418 42.4668 15.939 42.5324 15.7314 42.5882C14.9227 42.805 14.0792 42.8604 13.2491 42.7511C12.419 42.6419 11.6185 42.3702 10.8934 41.9516C10.1683 41.533 9.53278 40.9756 9.0231 40.3113C8.51342 39.6471 8.13958 38.8889 7.92294 38.0802L6.39111 32.3609C6.35997 32.2442 6.37644 32.12 6.4369 32.0155C6.49736 31.9109 6.59685 31.8347 6.71351 31.8035L14.5711 29.698V26.8693ZM32.8073 44.5554C33.3598 44.8347 33.9463 45.0587 34.5668 45.2275C35.7221 45.5371 36.9271 45.6161 38.1129 45.4599C39.2987 45.3038 40.4422 44.9156 41.478 44.3176C42.5138 43.7195 43.4217 42.9232 44.1497 41.9743C44.8778 41.0253 45.4118 39.9422 45.7212 38.7869L47.253 33.0676C47.4717 32.2512 47.3572 31.3814 46.9347 30.6495C46.5122 29.9175 45.8162 29.3833 44.9999 29.1643L36.4283 26.8693V29.6962L44.2932 31.8035C44.4095 31.8351 44.5086 31.9115 44.5687 32.016C44.6288 32.1205 44.645 32.2445 44.6138 32.3609L43.0838 38.0802C42.8531 38.9416 42.4442 39.7451 41.8836 40.4386C41.323 41.1322 40.6231 41.7004 39.8292 42.1065C39.0352 42.5127 38.1649 42.7477 37.2745 42.7965C36.384 42.8453 35.4932 42.7067 34.6597 42.3897C34.1388 43.1911 33.514 43.9197 32.8073 44.5554Z" fill="#2C65B0"/>
</svg>
