<svg width="37" height="42" viewBox="0 0 37 42" fill="none" xmlns="http://www.w3.org/2000/svg">
<path d="M17.7617 0.481445L17.7549 0.490234L17.7539 0.491211C15.2964 3.27705 13.3794 4.8129 11.1279 5.82031C8.54059 6.97813 5.36212 7.42723 1.10449 7.21973C0.869423 7.20692 0.638331 7.29309 0.467773 7.45605C0.296539 7.61864 0.200205 7.84472 0.200195 8.08008V8.80273C0.200296 22.6567 7.17574 35.298 17.999 40.9941C18.0084 40.9994 18.0162 41.004 18.0225 41.0068C18.0267 41.0087 18.0308 41.0107 18.0332 41.0117C18.0357 41.0128 18.037 41.0132 18.0381 41.0137C18.0448 41.0169 18.051 41.0198 18.0547 41.0215C18.0602 41.024 18.0622 41.0248 18.0635 41.0254L18.0732 41.0303L18.082 41.0342C18.1002 41.041 18.1198 41.046 18.1396 41.0518V41.0527C18.1506 41.0564 18.1574 41.0588 18.1621 41.0605L18.1758 41.0654L18.1914 41.0693C18.2102 41.0733 18.234 41.078 18.2588 41.082C18.2577 41.0818 18.2573 41.0821 18.2568 41.082C18.2568 41.082 18.2596 41.0825 18.2627 41.083V41.082L18.2637 41.083C18.2673 41.0838 18.2749 41.0837 18.2842 41.085V41.0859C18.2898 41.0868 18.2961 41.0862 18.3018 41.0869C18.3058 41.0871 18.31 41.0879 18.3145 41.0879L18.3994 41.0957H18.4014C18.4293 41.0957 18.4567 41.0911 18.4844 41.0879V41.0889C18.5085 41.0889 18.5285 41.0851 18.5342 41.084L18.5381 41.083H18.5391C18.5621 41.0792 18.5859 41.0726 18.6104 41.0664L18.6113 41.0674C18.624 41.0645 18.6347 41.0611 18.6396 41.0596C18.6426 41.0587 18.6436 41.0589 18.6445 41.0586H18.6436L18.6553 41.0557C18.6705 41.0509 18.701 41.0416 18.7314 41.0273L18.7305 41.0264C18.7408 41.0222 18.7551 41.017 18.7695 41.0098L18.7666 41.0117C18.7681 41.0111 18.7685 41.0105 18.7725 41.0088C18.7783 41.0063 18.7906 41 18.8047 40.9922C29.6251 35.2953 36.6005 22.6554 36.6006 8.80273V8.08008C36.6006 7.84388 36.5017 7.61806 36.3311 7.45605C36.1821 7.31394 35.9897 7.22994 35.7842 7.21973H35.6953C31.4389 7.42833 28.2593 6.97813 25.6719 5.82031C23.5622 4.87588 21.7447 3.46674 19.501 0.999023L19.0459 0.491211L19.0449 0.490234H19.0459L19.0371 0.481445C19.0344 0.478734 19.0316 0.476646 19.0293 0.474609C19.0245 0.469642 19.0206 0.464807 19.0176 0.461914L18.9707 0.415039L18.9629 0.40918L18.9541 0.402344L18.9521 0.400391L18.9131 0.369141L18.9062 0.364258L18.8662 0.337891C18.8538 0.329594 18.8434 0.322637 18.8379 0.319336L18.8242 0.311523L18.8164 0.307617C18.8141 0.306382 18.8104 0.305649 18.8066 0.303711L18.8076 0.302734L18.7676 0.282227C18.7553 0.276075 18.7435 0.27163 18.7383 0.269531C18.7346 0.268063 18.7334 0.267381 18.7314 0.266602H18.7305V0.265625L18.6826 0.24707L18.6768 0.245117L18.6631 0.241211C18.658 0.239612 18.6514 0.237419 18.6445 0.235352L18.6309 0.231445L18.626 0.230469C18.6218 0.229306 18.6116 0.226073 18.6006 0.223633L18.5996 0.225586C18.5896 0.222958 18.579 0.220672 18.5674 0.21875L18.5684 0.216797C18.5628 0.215562 18.5496 0.214365 18.5342 0.211914L18.5352 0.210938H18.5332C18.5282 0.210154 18.5229 0.208598 18.5176 0.208008L18.5166 0.209961C18.5055 0.208305 18.4946 0.207668 18.4834 0.207031L18.4844 0.205078C18.4791 0.204502 18.4737 0.203654 18.4688 0.203125C18.4636 0.202576 18.4585 0.201655 18.4541 0.201172L18.4424 0.200195H18.3564L18.3457 0.201172L18.3164 0.205078V0.207031C18.3043 0.207733 18.2919 0.207975 18.2793 0.209961V0.208984C18.2736 0.209691 18.2683 0.210344 18.2646 0.210938C18.2613 0.211484 18.2575 0.211625 18.2559 0.211914C18.2516 0.212653 18.2516 0.213046 18.2529 0.212891L18.2451 0.213867L18.2363 0.214844C18.2285 0.216389 18.215 0.220487 18.1992 0.224609V0.223633C18.1882 0.226063 18.1783 0.228923 18.1729 0.230469C18.1692 0.231507 18.1671 0.232819 18.165 0.233398V0.232422L18.1562 0.235352L18.123 0.245117L18.1172 0.24707C18.0965 0.253961 18.0774 0.263022 18.0693 0.266602C18.058 0.271216 18.0473 0.275522 18.041 0.27832L18.0322 0.282227C18.0284 0.284164 18.0244 0.285616 18.0215 0.287109C18.0184 0.288731 18.0168 0.289899 18.0146 0.291016C18.011 0.292876 18.0098 0.293945 18.0098 0.293945L17.9971 0.299805L17.9844 0.306641V0.307617C17.9826 0.308552 17.98 0.30931 17.9756 0.311523L17.9678 0.31543L17.9619 0.319336C17.946 0.328914 17.9317 0.338056 17.918 0.347656V0.348633L17.8936 0.364258L17.8867 0.369141C17.8776 0.376186 17.8663 0.385706 17.8574 0.392578L17.8467 0.400391L17.8408 0.405273C17.8395 0.406294 17.8384 0.407948 17.8369 0.40918L17.8291 0.415039L17.8213 0.421875L17.8154 0.428711L17.7959 0.448242C17.7945 0.449699 17.7932 0.449943 17.793 0.450195V0.451172C17.7901 0.454053 17.7887 0.454681 17.7812 0.461914C17.7769 0.466171 17.7702 0.473248 17.7627 0.481445L17.8398 0.55957L17.7617 0.481445ZM17.7617 0.481445L17.7627 0.482422L17.7578 0.487305C17.7594 0.485542 17.7602 0.483106 17.7617 0.481445ZM18.3994 2.34668C16.3208 4.60819 14.286 6.32675 11.7314 7.44824C9.15951 8.57731 6.07872 9.09306 1.9248 8.97363C1.98096 21.9769 8.43049 33.7845 18.3994 39.252C28.3687 33.7846 34.8188 21.9772 34.875 8.97363C30.72 9.09348 27.639 8.57833 25.0674 7.44922C22.5128 6.32752 20.4781 4.60839 18.3994 2.34668ZM19.0439 0.490234L18.9004 0.619141L18.8984 0.621094L19.0449 0.491211L19.0439 0.490234Z" fill="#2C65B0" fill-rule="evenodd" clip-rule="evenodd" stroke="#2C65B0" stroke-width="0.4"/>
<path d="M26.1602 12.9873C26.4661 12.6225 27.0094 12.5751 27.374 12.8809C27.7384 13.1869 27.7852 13.7292 27.4795 14.0938L19.1543 24.0244L19.1533 24.0254C19.0066 24.1989 18.7966 24.3076 18.5693 24.3271L18.5703 24.3281C18.569 24.3283 18.5677 24.328 18.5664 24.3281C18.5644 24.3283 18.5625 24.329 18.5605 24.3291L18.5596 24.3281C18.5316 24.3309 18.5063 24.332 18.4932 24.332C18.2864 24.332 18.0861 24.257 17.9287 24.1211H17.9277L13.1729 19.9824C12.8144 19.6699 12.7745 19.1251 13.0879 18.7656C13.3995 18.4081 13.9435 18.3696 14.3027 18.6826L18.3965 22.2441L26.1602 12.9873Z" fill="#2C65B0" fill-rule="evenodd" clip-rule="evenodd" stroke="#2C65B0" stroke-width="0.4"/>
<path d="M18.4004 11.1562C20.1783 11.1562 21.892 11.6683 23.3799 12.6367L23.6748 12.8359V12.8369C24.0623 13.1125 24.1549 13.6492 23.8809 14.0381H23.8799C23.6048 14.4249 23.0674 14.5195 22.6787 14.2432V14.2422C21.4167 13.3511 19.9374 12.8799 18.4004 12.8799C14.2383 12.88 10.8438 16.3594 10.8438 20.6475C10.8438 24.9343 14.2383 28.414 18.4004 28.4141C22.5625 28.4141 25.9569 24.9344 25.957 20.6475C25.957 19.8391 25.8381 19.0425 25.6016 18.2812C25.461 17.8276 25.7134 17.3453 26.168 17.2031H26.1689C26.6226 17.0625 27.1062 17.3164 27.2471 17.7705C27.5354 18.6976 27.6807 19.6661 27.6807 20.6475C27.6806 25.8759 23.5228 30.1367 18.4004 30.1367C13.2792 30.1366 9.12021 25.8758 9.12012 20.6475C9.12012 15.419 13.2791 11.1563 18.4004 11.1562Z" fill="#2C65B0" fill-rule="evenodd" clip-rule="evenodd" stroke="#2C65B0" stroke-width="0.4"/>
</svg>
