<svg width="40" height="40" viewBox="0 0 40 40" fill="none" xmlns="http://www.w3.org/2000/svg">
<g clip-path="url(#clip0_17123_6592)">
<path d="M10 19.3447V30.0003H20.6556L18.4333 27.7781H12.2222V21.5669L10 19.3447Z" fill="#2C65B0"/>
<path d="M38.7449 35.8776L35.556 32.6443V35.5554H4.4449V30.9443H6.66712V29.1665H4.4449V21.7776H6.66712V19.9998H4.4449V12.8887H6.66712V11.111H4.4449V4.89984L22.156 22.511V19.3776L4.12268 1.43318C3.96726 1.27648 3.76871 1.16961 3.55232 1.1262C3.33593 1.08279 3.11152 1.1048 2.9077 1.18943C2.70387 1.27406 2.52986 1.41747 2.40786 1.60138C2.28586 1.78529 2.22139 2.00137 2.22268 2.22207V36.6665C2.22268 36.9612 2.33974 37.2438 2.54811 37.4522C2.75649 37.6606 3.0391 37.7776 3.33379 37.7776H37.956C38.1767 37.7789 38.3928 37.7144 38.5767 37.5924C38.7606 37.4704 38.904 37.2964 38.9886 37.0926C39.0733 36.8888 39.0953 36.6644 39.0519 36.448C39.0085 36.2316 38.9016 36.033 38.7449 35.8776Z" fill="#2C65B0"/>
<path d="M26.6666 33.3335H31.111C31.7004 33.3335 32.2656 33.0993 32.6824 32.6826C33.0991 32.2658 33.3332 31.7006 33.3332 31.1112V9.6668L30.7777 4.96679C30.58 4.62437 30.2946 4.34088 29.9508 4.14557C29.6071 3.95025 29.2174 3.85018 28.8221 3.85568C28.4178 3.85889 28.0221 3.97233 27.6775 4.18379C27.3329 4.39524 27.0525 4.6967 26.8666 5.05568L24.4443 9.68902V31.1112C24.4443 31.7006 24.6785 32.2658 25.0952 32.6826C25.512 33.0993 26.0772 33.3335 26.6666 33.3335ZM26.6666 10.2224L28.8221 6.03346L31.111 10.2335V26.6668H26.6666V10.2224ZM26.6666 28.4779H31.111V31.189H26.6666V28.4779Z" fill="#2C65B0"/>
</g>
<defs>
<clipPath id="clip0_17123_6592">
<rect width="40" height="40" fill="white"/>
</clipPath>
</defs>
</svg>
