<svg width="20" height="21" viewBox="0 0 20 21" fill="none" xmlns="http://www.w3.org/2000/svg">
<mask id="path-1-inside-1_1_395" fill="white">
<path d="M18.8535 9.33389C19.0042 9.33396 19.1533 9.35558 19.2925 9.39751C19.4316 9.43945 19.5581 9.50087 19.6645 9.57828C19.771 9.65568 19.8554 9.74756 19.913 9.84866C19.9705 9.94976 20.0001 10.0581 20 10.1675C19.9999 10.2769 19.9701 10.3852 19.9124 10.4863C19.8546 10.5873 19.77 10.6791 19.6634 10.7564C19.5568 10.8337 19.4303 10.895 19.2911 10.9368C19.1518 10.9786 19.0026 11.0001 18.852 11L18.8535 9.33389ZM17.1242 10.1664L17.1242 9.33333L17.1249 9.33333L17.1242 10.1664ZM9.4474 10.9994C9.14312 10.9994 8.85131 10.9117 8.63616 10.7554C8.421 10.5992 8.30013 10.3873 8.30013 10.1664C8.30013 9.94545 8.421 9.73356 8.63616 9.57733C8.85131 9.4211 9.14312 9.33333 9.4474 9.33333L9.4474 10.9994ZM9.43325 9.33333C9.73752 9.33333 10.0293 9.4211 10.2445 9.57733C10.4596 9.73356 10.5805 9.94545 10.5805 10.1664C10.5805 10.3873 10.4596 10.5992 10.2445 10.7554C10.0293 10.9117 9.73752 10.9994 9.43325 10.9994L9.43325 9.33333ZM1.14727 10.9994C0.842997 10.9994 0.551185 10.9117 0.336028 10.7554C0.120873 10.5992 8.48679e-07 10.3873 8.59325e-07 10.1664C8.69971e-07 9.94545 0.120873 9.73356 0.336028 9.57733C0.551185 9.4211 0.842997 9.33333 1.14727 9.33333L1.14727 10.9994ZM18.852 11L18.8233 11L18.8244 9.33389L18.8535 9.33389L18.852 11ZM18.8233 11L18.4829 11L18.4848 9.33389L18.8244 9.33389L18.8233 11ZM18.4829 11L18.1433 11L18.1449 9.33389L18.4848 9.33389L18.4829 11ZM18.1433 11L17.803 10.9997L17.8049 9.33361L18.1449 9.33389L18.1433 11ZM17.803 10.9997L17.4634 10.9994L17.4649 9.33333L17.8049 9.33361L17.803 10.9997ZM17.4634 10.9994L17.1234 10.9994L17.1249 9.33333L17.4649 9.33333L17.4634 10.9994ZM17.1242 10.9994L9.4474 10.9994L9.4474 9.33333L17.1242 9.33333L17.1242 10.9994ZM9.43325 10.9994L1.14727 10.9994L1.14727 9.33333L9.43325 9.33333L9.43325 10.9994Z"/>
</mask>
<path d="M18.8535 9.33389C19.0042 9.33396 19.1533 9.35558 19.2925 9.39751C19.4316 9.43945 19.5581 9.50087 19.6645 9.57828C19.771 9.65568 19.8554 9.74756 19.913 9.84866C19.9705 9.94976 20.0001 10.0581 20 10.1675C19.9999 10.2769 19.9701 10.3852 19.9124 10.4863C19.8546 10.5873 19.77 10.6791 19.6634 10.7564C19.5568 10.8337 19.4303 10.895 19.2911 10.9368C19.1518 10.9786 19.0026 11.0001 18.852 11L18.8535 9.33389ZM17.1242 10.1664L17.1242 9.33333L17.1249 9.33333L17.1242 10.1664ZM9.4474 10.9994C9.14312 10.9994 8.85131 10.9117 8.63616 10.7554C8.421 10.5992 8.30013 10.3873 8.30013 10.1664C8.30013 9.94545 8.421 9.73356 8.63616 9.57733C8.85131 9.4211 9.14312 9.33333 9.4474 9.33333L9.4474 10.9994ZM9.43325 9.33333C9.73752 9.33333 10.0293 9.4211 10.2445 9.57733C10.4596 9.73356 10.5805 9.94545 10.5805 10.1664C10.5805 10.3873 10.4596 10.5992 10.2445 10.7554C10.0293 10.9117 9.73752 10.9994 9.43325 10.9994L9.43325 9.33333ZM1.14727 10.9994C0.842997 10.9994 0.551185 10.9117 0.336028 10.7554C0.120873 10.5992 8.48679e-07 10.3873 8.59325e-07 10.1664C8.69971e-07 9.94545 0.120873 9.73356 0.336028 9.57733C0.551185 9.4211 0.842997 9.33333 1.14727 9.33333L1.14727 10.9994ZM18.852 11L18.8233 11L18.8244 9.33389L18.8535 9.33389L18.852 11ZM18.8233 11L18.4829 11L18.4848 9.33389L18.8244 9.33389L18.8233 11ZM18.4829 11L18.1433 11L18.1449 9.33389L18.4848 9.33389L18.4829 11ZM18.1433 11L17.803 10.9997L17.8049 9.33361L18.1449 9.33389L18.1433 11ZM17.803 10.9997L17.4634 10.9994L17.4649 9.33333L17.8049 9.33361L17.803 10.9997ZM17.4634 10.9994L17.1234 10.9994L17.1249 9.33333L17.4649 9.33333L17.4634 10.9994ZM17.1242 10.9994L9.4474 10.9994L9.4474 9.33333L17.1242 9.33333L17.1242 10.9994ZM9.43325 10.9994L1.14727 10.9994L1.14727 9.33333L9.43325 9.33333L9.43325 10.9994Z" fill="white"/>
<path d="M18.4848 9.33389L19.4848 9.33504L17.4848 9.33251L18.4848 9.33389ZM18.852 11L19.852 11.0009L19.8535 9.33481L18.8535 9.33389L17.8535 9.33297L17.852 10.9991L18.852 11ZM18.8237 10.1669L17.8237 10.166L17.8229 10.9991L18.8229 11L19.8229 11.0009L19.8237 10.1679L18.8237 10.1669ZM18.4837 10.1669L19.4837 10.1683L19.4848 9.33527L18.4848 9.33389L17.4848 9.33251L17.4837 10.1656L18.4837 10.1669ZM18.1441 10.1669L17.1441 10.166L17.1433 10.9991L18.1433 11L19.1433 11.0009L19.1441 10.1679L18.1441 10.1669ZM17.8037 10.1667L16.8037 10.1662L16.8034 10.9993L17.8034 10.9997L18.8034 11.0002L18.8037 10.1671L17.8037 10.1667ZM17.4641 10.1664L18.4641 10.1673L18.4649 9.33425L17.4649 9.33333L16.4649 9.33241L16.4641 10.1655L17.4641 10.1664ZM9.4474 9.33333L8.4474 9.33333L8.4474 10.9994L9.4474 10.9994L10.4474 10.9994L10.4474 9.33333L9.4474 9.33333ZM9.43325 10.9994L10.4332 10.9994L10.4332 9.33333L9.43325 9.33333L8.43325 9.33333L8.43325 10.9994L9.43325 10.9994ZM1.14727 9.33333L0.147273 9.33333L0.147273 10.9994L1.14727 10.9994L2.14727 10.9994L2.14727 9.33333L1.14727 9.33333ZM18.8233 11L19.8233 11.0007L19.8244 9.33458L18.8244 9.33389L17.8244 9.3332L17.8233 10.9993L18.8233 11ZM18.4829 11L19.4829 11.0011L19.4848 9.33504L18.4848 9.33389L17.4848 9.33274L17.4829 10.9989L18.4829 11ZM18.1433 11L19.1433 11.0009L19.1449 9.33481L18.1449 9.33389L17.1449 9.33297L17.1433 10.9991L18.1433 11ZM17.803 10.9997L18.803 11.0009L18.8049 9.33476L17.8049 9.33361L16.8049 9.33246L16.803 10.9986L17.803 10.9997ZM17.4634 10.9994L18.4634 11.0004L18.4649 9.33425L17.4649 9.33333L16.4649 9.33241L16.4634 10.9985L17.4634 10.9994ZM18.8535 9.33389L18.8545 7.33389L18.8535 7.33389L18.8535 9.33389ZM18.852 11L18.8529 9L18.852 9L18.852 11ZM18.1433 11L18.1417 13L18.1433 13L18.1433 11ZM17.4649 9.33333L17.4665 7.33333L17.4649 7.33333L17.4649 9.33333ZM17.1242 10.1664L15.1242 10.1664L19.1242 10.1682L17.1242 10.1664ZM18.1449 9.33389L18.1432 11.3339L18.1449 11.3339L18.1449 9.33389ZM17.803 10.9997L17.8013 12.9997L17.8013 12.9997L17.803 10.9997ZM17.4634 10.9994L17.465 8.99945L17.4634 8.99945L17.4634 10.9994ZM17.1234 10.9994L15.1234 10.9976L15.1216 12.9994L17.1234 12.9994L17.1234 10.9994ZM17.1242 10.9994L17.1242 12.9994L19.1242 12.9994L19.1242 10.9994L17.1242 10.9994ZM18.8535 9.33389L18.8525 11.3339C18.8152 11.3339 18.7699 11.3289 18.7154 11.3125L19.2925 9.39751L19.8695 7.48257C19.5367 7.38229 19.1931 7.33405 18.8545 7.33389L18.8535 9.33389ZM19.2925 9.39751L18.7154 11.3125C18.6619 11.2963 18.5814 11.2635 18.4884 11.1959L19.6645 9.57828L20.8407 7.96066C20.5347 7.7382 20.2014 7.58257 19.8695 7.48257L19.2925 9.39751ZM19.6645 9.57828L18.4884 11.1959C18.3953 11.1282 18.2753 11.0145 18.1749 10.8382L19.913 9.84866L21.651 8.85908C21.4355 8.48058 21.1467 8.18316 20.8407 7.96066L19.6645 9.57828ZM19.913 9.84866L18.1749 10.8382C18.0718 10.6571 17.9998 10.426 18 10.1657L20 10.1675L22 10.1693C22.0004 9.69016 21.8692 9.24242 21.651 8.85908L19.913 9.84866ZM20 10.1675L18 10.1657C18.0002 9.90531 18.0727 9.67455 18.176 9.49385L19.9124 10.4863L21.6488 11.4787C21.8676 11.0959 21.9996 10.6485 22 10.1693L20 10.1675ZM19.9124 10.4863L18.176 9.49385C18.2765 9.31797 18.3964 9.20469 18.4893 9.13729L19.6634 10.7564L20.8375 12.3755C21.1437 12.1535 21.4328 11.8566 21.6488 11.4787L19.9124 10.4863ZM19.6634 10.7564L18.4893 9.13729C18.5822 9.06992 18.6626 9.0373 18.716 9.02125L19.2911 10.9368L19.8661 12.8523C20.198 12.7527 20.5314 12.5975 20.8375 12.3755L19.6634 10.7564ZM19.2911 10.9368L18.716 9.02125C18.7704 9.00494 18.8156 8.99998 18.8529 9L18.852 11L18.851 13C19.1896 13.0002 19.5333 12.9523 19.8661 12.8523L19.2911 10.9368ZM17.1242 10.1664L19.1242 10.1664L19.1242 9.33333L17.1242 9.33333L15.1242 9.33333L15.1242 10.1664L17.1242 10.1664ZM17.1242 9.33333L17.1242 11.3333L17.1249 11.3333L17.1249 9.33333L17.1249 7.33333L17.1242 7.33333L17.1242 9.33333ZM17.1249 9.33333L15.1249 9.3315L15.1242 10.1646L17.1242 10.1664L19.1242 10.1682L19.1249 9.33517L17.1249 9.33333ZM9.4474 10.9994L9.4474 8.99944C9.48511 8.99944 9.53045 9.00456 9.5844 9.02079C9.63703 9.03661 9.71769 9.06913 9.81128 9.13709L8.63616 10.7554L7.46103 12.3738C8.06572 12.8129 8.7843 12.9994 9.4474 12.9994L9.4474 10.9994ZM8.63616 10.7554L9.81128 9.13709C9.99521 9.27064 10.3001 9.6127 10.3001 10.1664L8.30013 10.1664L6.30013 10.1664C6.30013 11.162 6.84679 11.9278 7.46103 12.3738L8.63616 10.7554ZM8.30013 10.1664L10.3001 10.1664C10.3001 10.7201 9.99521 11.0621 9.81128 11.1957L8.63616 9.57733L7.46103 7.95897C6.84679 8.40498 6.30013 9.17082 6.30013 10.1664L8.30013 10.1664ZM8.63616 9.57733L9.81128 11.1957C9.71768 11.2636 9.63703 11.2962 9.5844 11.312C9.53045 11.3282 9.48511 11.3333 9.4474 11.3333L9.4474 9.33333L9.4474 7.33333C8.7843 7.33333 8.06572 7.51989 7.46103 7.95897L8.63616 9.57733ZM9.43325 9.33333L9.43325 11.3333C9.39554 11.3333 9.3502 11.3282 9.29625 11.312C9.24362 11.2962 9.16296 11.2636 9.06937 11.1957L10.2445 9.57733L11.4196 7.95897C10.8149 7.51989 10.0963 7.33333 9.43325 7.33333L9.43325 9.33333ZM10.2445 9.57733L9.06937 11.1957C8.88544 11.0621 8.58052 10.7201 8.58052 10.1664L10.5805 10.1664L12.5805 10.1664C12.5805 9.17082 12.0339 8.40498 11.4196 7.95897L10.2445 9.57733ZM10.5805 10.1664L8.58052 10.1664C8.58052 9.6127 8.88544 9.27064 9.06937 9.13709L10.2445 10.7554L11.4196 12.3738C12.0339 11.9278 12.5805 11.162 12.5805 10.1664L10.5805 10.1664ZM10.2445 10.7554L9.06937 9.13709C9.16296 9.06913 9.24362 9.03661 9.29624 9.02079C9.35019 9.00456 9.39553 8.99944 9.43325 8.99944L9.43325 10.9994L9.43325 12.9994C10.0964 12.9994 10.8149 12.8129 11.4196 12.3738L10.2445 10.7554ZM1.14727 10.9994L1.14727 8.99944C1.18499 8.99944 1.23033 9.00456 1.28428 9.02078C1.3369 9.03661 1.41756 9.06913 1.51115 9.13709L0.336028 10.7554L-0.839093 12.3738C-0.234409 12.8129 0.484174 12.9994 1.14727 12.9994L1.14727 10.9994ZM0.336028 10.7554L1.51115 9.13709C1.69509 9.27065 2 9.61271 2 10.1664L8.59325e-07 10.1664L-2 10.1664C-2 11.1619 -1.45334 11.9278 -0.839093 12.3738L0.336028 10.7554ZM8.59325e-07 10.1664L2 10.1664C2 10.7201 1.69509 11.0621 1.51115 11.1957L0.336028 9.57733L-0.839093 7.95897C-1.45334 8.40499 -2 9.17083 -2 10.1664L8.59325e-07 10.1664ZM0.336028 9.57733L1.51115 11.1957C1.41756 11.2636 1.3369 11.2962 1.28427 11.312C1.23032 11.3282 1.18499 11.3333 1.14727 11.3333L1.14727 9.33333L1.14727 7.33333C0.484178 7.33333 -0.234405 7.51989 -0.839093 7.95897L0.336028 9.57733ZM18.852 11L18.852 9L18.8233 9L18.8233 11L18.8233 13L18.852 13L18.852 11ZM18.8244 9.33389L18.8244 11.3339L18.8535 11.3339L18.8535 9.33389L18.8535 7.33389L18.8244 7.33389L18.8244 9.33389ZM18.8233 11L18.8233 9L18.4829 9L18.4829 11L18.4829 13L18.8233 13L18.8233 11ZM18.4848 9.33389L18.4848 11.3339L18.8244 11.3339L18.8244 9.33389L18.8244 7.33389L18.4848 7.33389L18.4848 9.33389ZM18.4829 11L18.4829 9L18.1433 9L18.1433 11L18.1433 13L18.4829 13L18.4829 11ZM18.1449 9.33389L18.1449 11.3339L18.4848 11.3339L18.4848 9.33389L18.4848 7.33389L18.1449 7.33389L18.1449 9.33389ZM18.1433 11L18.145 9L17.8046 8.99972L17.803 10.9997L17.8013 12.9997L18.1417 13L18.1433 11ZM17.8049 9.33361L17.8033 11.3336L18.1432 11.3339L18.1449 9.33389L18.1465 7.33389L17.8065 7.33361L17.8049 9.33361ZM17.803 10.9997L17.8046 8.99972L17.465 8.99945L17.4634 10.9994L17.4617 12.9994L17.8013 12.9997L17.803 10.9997ZM17.4649 9.33333L17.4633 11.3333L17.8033 11.3336L17.8049 9.33361L17.8065 7.33361L17.4665 7.33333L17.4649 9.33333ZM17.4634 10.9994L17.4634 8.99945L17.1234 8.99945L17.1234 10.9994L17.1234 12.9994L17.4634 12.9994L17.4634 10.9994ZM17.1234 10.9994L19.1234 11.0013L19.1249 9.33517L17.1249 9.33333L15.1249 9.3315L15.1234 10.9976L17.1234 10.9994ZM17.1249 9.33333L17.1249 11.3333L17.4649 11.3333L17.4649 9.33333L17.4649 7.33333L17.1249 7.33333L17.1249 9.33333ZM17.1242 10.9994L17.1242 8.99945L9.4474 8.99944L9.4474 10.9994L9.4474 12.9994L17.1242 12.9994L17.1242 10.9994ZM9.4474 9.33333L9.4474 11.3333L17.1242 11.3333L17.1242 9.33333L17.1242 7.33333L9.4474 7.33333L9.4474 9.33333ZM17.1242 9.33333L15.1242 9.33333L15.1242 10.9994L17.1242 10.9994L19.1242 10.9994L19.1242 9.33333L17.1242 9.33333ZM9.43325 10.9994L9.43325 8.99944L1.14727 8.99944L1.14727 10.9994L1.14727 12.9994L9.43325 12.9994L9.43325 10.9994ZM1.14727 9.33333L1.14727 11.3333L9.43325 11.3333L9.43325 9.33333L9.43325 7.33333L1.14727 7.33333L1.14727 9.33333Z" fill="white" mask="url(#path-1-inside-1_1_395)"/>
<path d="M10.4585 1L18.3995 8.94137C18.5823 9.12419 18.7274 9.34123 18.8263 9.58011C18.9253 9.81898 18.9762 10.075 18.9762 10.3336C18.9762 10.5921 18.9253 10.8481 18.8263 11.087C18.7274 11.3259 18.5823 11.5429 18.3995 11.7258L10.4581 19.6667" stroke="white" stroke-width="2" stroke-linecap="round" stroke-linejoin="round"/>
</svg>
