<svg width="280" height="51" viewBox="0 0 280 51" fill="none" xmlns="http://www.w3.org/2000/svg">
<g clip-path="url(#clip0_17123_6907)">
<mask id="mask0_17123_6907" style="mask-type:luminance" maskUnits="userSpaceOnUse" x="0" y="0" width="280" height="51">
<path d="M280 0H0V51H280V0Z" fill="white"/>
</mask>
<g mask="url(#mask0_17123_6907)">
<path d="M275.265 49.1797C275.265 50.1887 274.454 51 273.445 51H6.91392C5.90465 51 5.09349 50.1887 5.09349 49.1797L0 1.82042C0 0.820605 0.820615 0 1.82045 0H278.17C279.179 0 279.991 0.820605 279.991 1.82042L275.265 49.1797Z" fill="#2C65B0"/>
<path d="M206.776 3.71631H203.881C206.116 6.0555 208.059 8.40412 209.776 10.7433H208.861C207.107 8.03626 205.258 5.68764 203.532 3.71631H203.39C215.124 18.2419 212.379 37.9363 210.134 47.2835H215.407C216.388 43.4072 216.812 39.7002 216.812 36.2009H220.859C221.689 40.6433 221.915 44.4541 221.991 47.2835H257.013C256.928 47.2176 240.657 25.4764 206.776 3.71631ZM210.766 13.8937C210.427 13.29 210.087 12.7052 209.738 12.1393H210.766C211.172 12.7241 211.568 13.3089 211.945 13.8937H210.766ZM212.077 16.3932H213.492C214.2 17.6099 214.841 18.8078 215.435 20.0057H213.681C213.181 18.7607 212.643 17.5534 212.077 16.3932ZM216.265 29.3908C215.954 27.4383 215.52 25.5613 214.983 23.7597H217.152C217.954 25.6839 218.623 27.5704 219.18 29.3908H216.265Z" fill="white"/>
<path d="M200.56 3.71631C209.049 38.5589 176.216 45.6614 170.349 47.2835H202.767C215.312 26.5517 208.955 11.6299 202.966 3.71631H200.56Z" fill="white"/>
<path d="M275.369 2.46179H4.62222C3.61294 2.46179 2.80176 3.2824 2.80176 4.2822L7.21609 46.7178C7.21609 47.7269 8.03672 48.5382 9.03657 48.5382H271.181C272.19 48.5382 273.002 47.7269 273.002 46.7178L277.19 4.2822C277.19 3.27297 276.378 2.46179 275.369 2.46179ZM271.502 45.2181C271.37 46.3878 271.228 47.0384 270.228 47.0384H9.99865C8.98938 47.0384 8.7913 46.2461 8.72529 45.2181L4.30151 5.23488C4.30151 4.22562 4.57503 3.96152 5.57487 3.96152H274.407C275.416 3.96152 275.68 4.23506 275.68 5.23488L271.502 45.2181Z" fill="white"/>
<path d="M39.2106 29.2777H36.6732V19.9775L32.9569 29.2777L29.2406 19.9775V29.2777H26.6938V13.2146H29.2406L32.9569 22.2318L36.6732 13.2146H39.2106V29.2777Z" fill="white"/>
<path d="M50.6804 29.2776H48.1903V28.674C47.4828 29.2682 46.5489 29.5606 45.3888 29.5606C44.0307 29.5606 43.0119 29.0984 42.342 28.1741C41.6724 27.2497 41.333 26.165 41.333 24.9388V17.5534H43.8042V24.8916C43.7758 25.4953 43.9739 26.0424 44.4079 26.5328C44.8416 27.0233 45.3794 27.2497 46.0395 27.2119C46.728 27.2119 47.2469 27.0139 47.6055 26.6083C47.9638 26.2121 48.1429 25.6368 48.1429 24.8822V17.5439H50.6804V29.2776Z" fill="white"/>
<path d="M55.9245 29.2776H53.3306V14.2426L55.9245 12.9504V29.2776Z" fill="white"/>
<path d="M58.5847 14.1955L61.0748 12.9504V18.157C61.7823 17.5628 62.7162 17.2704 63.8763 17.2704C65.2344 17.2704 66.2532 17.7326 66.9228 18.6569C67.5927 19.5813 67.9321 20.666 67.9321 21.8922V29.2776H65.4609V21.9393C65.4893 21.3357 65.2912 20.7886 64.8572 20.2981C64.4232 19.8076 63.8857 19.5813 63.2252 19.619C62.5367 19.619 62.0182 19.8171 61.6596 20.2227C61.3013 20.6188 61.1221 21.1942 61.1221 21.9488V29.2871H58.5752V14.1955H58.5847Z" fill="white"/>
<path d="M79.5717 23.4015C79.5527 25.0144 79.2323 26.3349 78.6097 27.363C77.7795 28.7495 76.4684 29.4853 74.6762 29.5701C72.8841 29.4947 71.5729 28.759 70.7431 27.363C70.1205 26.3443 69.7997 25.0238 69.7808 23.4015C69.7997 21.7226 70.1205 20.3737 70.7431 19.3456C71.5918 18.0063 72.903 17.3083 74.6762 17.2611C76.4494 17.3083 77.7606 18.0063 78.6097 19.3456C79.2323 20.3737 79.5527 21.7226 79.5717 23.4015ZM74.6573 27.0235C75.5818 27.0235 76.2608 26.5707 76.6948 25.6558C76.9872 25.0144 77.1289 24.2692 77.1289 23.4298C77.1289 22.5337 76.9872 21.7697 76.6948 21.1283C76.2797 20.2134 75.6007 19.7607 74.6573 19.7607C73.7426 19.7607 73.0821 20.2134 72.6671 21.1283C72.3841 21.7697 72.2334 22.5337 72.2334 23.4298C72.2334 24.2787 72.3747 25.0238 72.6671 25.6558C73.1484 26.5707 73.8085 27.0235 74.6573 27.0235Z" fill="white"/>
<path d="M84.5802 29.2776H81.9863V14.2426L84.5802 12.9504V29.2776Z" fill="white"/>
<path d="M90.4567 29.2776H87.8628V14.2426L90.4567 12.9504V29.2776Z" fill="white"/>
<path d="M102.304 29.2777H99.8324V28.891C99.2097 29.3343 98.5117 29.5701 97.7478 29.5889C96.4651 29.5701 95.4084 29.2116 94.5692 28.4948C93.7295 27.7874 93.3145 26.7498 93.3145 25.3916C93.3145 24.222 93.7011 23.241 94.4749 22.4582C95.2482 21.6659 96.3045 21.2791 97.6251 21.298C98.361 21.298 99.0495 21.3829 99.6907 21.5621C99.7191 20.3925 99.1344 19.7511 97.9175 19.6474C96.8798 19.6191 95.9462 19.902 95.1161 20.5151L93.8428 18.5721C94.9934 17.7515 96.3329 17.327 97.8516 17.2799C99.0965 17.2799 100.153 17.6383 101.002 18.3457C101.86 19.0531 102.294 20.0907 102.313 21.4489V29.2777H102.304ZM99.6154 26.5706V23.9296C98.9079 23.741 98.2099 23.6372 97.5024 23.6372C96.9461 23.6372 96.4837 23.8259 96.1159 24.1843C95.7482 24.5521 95.569 24.9671 95.5876 25.4293C95.5876 25.9104 95.7766 26.3631 96.1538 26.797C96.531 27.2309 97.0404 27.4478 97.6816 27.4478C98.361 27.4572 99.0117 27.1554 99.6154 26.5706Z" fill="white"/>
<path d="M104.511 17.412H107.001V18.1571C107.708 17.5629 108.642 17.2705 109.802 17.2705C111.161 17.2705 112.179 17.7327 112.849 18.6571C113.519 19.5814 113.858 20.6661 113.858 21.8923V29.2777H111.387V21.9394C111.415 21.3358 111.217 20.7887 110.783 20.2982C110.349 19.8078 109.812 19.5814 109.152 19.6191C108.463 19.6191 107.944 19.8172 107.576 20.2228C107.218 20.6189 107.039 21.1943 107.039 21.9489V29.2871H104.492V17.412H104.511Z" fill="white"/>
<path d="M120.933 29.57C117.735 29.57 116.141 27.5798 116.141 23.5994C116.141 19.4398 117.754 17.3364 120.98 17.2704C121.942 17.2893 122.678 17.5628 123.187 18.1099V14.2238L125.734 12.9504V29.2776H123.187V28.872C122.517 29.3342 121.763 29.57 120.933 29.57ZM118.631 23.5711C118.65 26.0518 119.405 27.2968 120.914 27.3157C121.81 27.3345 122.555 26.9573 123.14 26.1838V20.9112C122.678 20.1284 121.961 19.7322 120.98 19.7322C119.414 19.8265 118.631 21.1093 118.631 23.5711Z" fill="white"/>
<path d="M145.221 24.4861C145.221 25.7783 144.834 26.9007 144.061 27.8534C143.287 28.8061 142.156 29.2777 140.665 29.2777H134.336V13.2146H140.429C141.693 13.2146 142.75 13.6013 143.599 14.3747C144.448 15.1482 144.872 16.2329 144.872 17.6194C144.853 19.2323 144.334 20.3548 143.316 20.9773C144.58 21.7036 145.221 22.8732 145.221 24.4861ZM142.608 24.5521C142.59 23.9579 142.42 23.458 142.08 23.0524C141.74 22.6468 141.306 22.4299 140.76 22.4204H136.854V26.7404H140.665C141.259 26.7404 141.731 26.514 142.08 26.0707C142.438 25.6179 142.608 25.118 142.608 24.5521ZM142.42 17.8175C142.42 17.2233 142.259 16.7517 141.948 16.3744C141.637 16.0065 141.184 15.8273 140.59 15.8273H136.873V19.7323H140.561C141.108 19.7323 141.542 19.5248 141.882 19.1192C142.221 18.7136 142.401 18.2797 142.42 17.8175Z" fill="white"/>
<path d="M154.361 18.0817L153.521 20.4115C153.04 19.9304 152.55 19.704 152.059 19.7135C150.984 19.7418 150.418 20.4964 150.352 21.9678V29.2778H147.768V17.3649H150.333V18.2232C150.767 17.5818 151.39 17.2611 152.201 17.2611C153.012 17.28 153.738 17.5535 154.361 18.0817Z" fill="white"/>
<path d="M164.067 29.2777H161.596V28.891C160.973 29.3343 160.275 29.5701 159.511 29.5889C158.228 29.5701 157.172 29.2116 156.332 28.4948C155.493 27.7874 155.078 26.7498 155.078 25.3916C155.078 24.222 155.464 23.241 156.238 22.4582C157.011 21.6659 158.068 21.2791 159.388 21.298C160.124 21.298 160.813 21.3829 161.454 21.5621C161.482 20.3925 160.898 19.7511 159.681 19.6474C158.643 19.6191 157.709 19.902 156.879 20.5151L155.606 18.5721C156.757 17.7515 158.096 17.327 159.615 17.2799C160.86 17.2799 161.916 17.6383 162.765 18.3457C163.623 19.0531 164.057 20.0907 164.076 21.4489V29.2777H164.067ZM161.388 26.5706V23.9296C160.681 23.741 159.983 23.6372 159.275 23.6372C158.719 23.6372 158.256 23.8259 157.889 24.1843C157.521 24.5521 157.341 24.9671 157.36 25.4293C157.36 25.9104 157.549 26.3631 157.926 26.797C158.304 27.2309 158.813 27.4478 159.454 27.4478C160.133 27.4572 160.775 27.1554 161.388 26.5706Z" fill="white"/>
<path d="M166.274 17.412H168.764V18.1571C169.471 17.5629 170.405 17.2705 171.565 17.2705C172.924 17.2705 173.942 17.7327 174.612 18.6571C175.282 19.5814 175.621 20.6661 175.621 21.8923V29.2777H173.15V21.9394C173.178 21.3358 172.98 20.7887 172.546 20.2982C172.113 19.8078 171.575 19.5814 170.915 19.6191C170.226 19.6191 169.707 19.8172 169.339 20.2228C168.981 20.6189 168.802 21.1943 168.802 21.9489V29.2871H166.255V17.412H166.274Z" fill="white"/>
<path d="M182.705 29.57C179.508 29.57 177.914 27.5798 177.914 23.5994C177.914 19.4398 179.527 17.3364 182.752 17.2704C183.715 17.2893 184.45 17.5628 184.959 18.1099V14.2238L187.506 12.9504V29.2776H184.959V28.872C184.28 29.3342 183.535 29.57 182.705 29.57ZM180.404 23.5711C180.423 26.0518 181.177 27.2968 182.677 27.3157C183.573 27.3345 184.318 26.9573 184.903 26.1838V20.9112C184.441 20.1284 183.724 19.7322 182.743 19.7322C181.187 19.8265 180.404 21.1093 180.404 23.5711Z" fill="white"/>
<path d="M63.2161 41.9264C62.7351 41.9264 62.2916 41.832 61.9049 41.6433C61.5182 41.4546 61.1785 41.2 60.8956 40.8699C60.6127 40.549 60.3957 40.1814 60.2355 39.7756C60.0844 39.3702 59.9995 38.9552 59.9995 38.5214C59.9995 38.078 60.0843 37.6533 60.2449 37.2384C60.4051 36.8329 60.6316 36.4744 60.924 36.1537C61.2164 35.8331 61.5561 35.5878 61.9428 35.3992C62.3389 35.2105 62.7631 35.1256 63.2161 35.1256C63.697 35.1256 64.1311 35.22 64.5272 35.418C64.9234 35.6161 65.2532 35.8708 65.5365 36.2009C65.8194 36.5309 66.0364 36.8894 66.1872 37.2952C66.3383 37.7006 66.4231 38.1061 66.4231 38.5305C66.4231 38.9738 66.3474 39.3986 66.1872 39.8135C66.027 40.2189 65.8005 40.5774 65.5176 40.898C65.2252 41.2189 64.8855 41.4641 64.4988 41.6433C64.0932 41.832 63.6686 41.9264 63.2161 41.9264ZM61.0842 38.5305C61.0842 38.8419 61.1315 39.153 61.2353 39.4456C61.3391 39.7381 61.4803 40.0022 61.669 40.2284C61.8579 40.455 62.0746 40.6433 62.3389 40.7756C62.6029 40.9074 62.8953 40.9737 63.2255 40.9737C63.5649 40.9737 63.8667 40.9074 64.1311 40.7661C64.395 40.6248 64.6215 40.4361 64.8007 40.2C64.9798 39.9643 65.112 39.7002 65.2157 39.4077C65.31 39.1155 65.357 38.823 65.357 38.5305C65.357 38.2194 65.31 37.9083 65.2157 37.6252C65.1214 37.3327 64.9703 37.0686 64.7817 36.8424C64.5931 36.6158 64.3666 36.4273 64.1027 36.2952C63.8387 36.1632 63.5554 36.0972 63.235 36.0972C62.8953 36.0972 62.5934 36.1632 62.3294 36.3047C62.0651 36.446 61.839 36.6253 61.6598 36.8613C61.4803 37.097 61.3391 37.3516 61.2353 37.6442C61.1315 37.9363 61.0842 38.2288 61.0842 38.5305Z" fill="white"/>
<path d="M69.875 41.8791V35.1823H74.3364V36.1161H70.9316V38.1156H73.7801V38.9928H70.9316V41.8791H69.875Z" fill="white"/>
<path d="M86.7971 36.1161H84.5709V41.8791H83.5052V36.1161H81.2695V35.1823H86.7971V36.1161Z" fill="white"/>
<path d="M95.5499 35.1823V41.8791H94.4842V38.9269H91.1074V41.8791H90.0508V35.1823H91.1074V37.9838H94.4842V35.1823H95.5499Z" fill="white"/>
<path d="M104.011 40.9454V41.8791H99.4175V35.1823H103.926V36.1161H100.474V38.0213H103.464V38.8985H100.474V40.9454H104.011Z" fill="white"/>
<path d="M114.934 41.9264C114.453 41.9264 114.009 41.832 113.623 41.6433C113.236 41.4546 112.896 41.2 112.613 40.8699C112.33 40.549 112.113 40.1814 111.953 39.7756C111.802 39.3702 111.717 38.9552 111.717 38.5214C111.717 38.078 111.802 37.6533 111.963 37.2384C112.123 36.8329 112.349 36.4744 112.642 36.1537C112.934 35.8331 113.274 35.5878 113.661 35.3992C114.057 35.2105 114.481 35.1256 114.934 35.1256C115.415 35.1256 115.849 35.22 116.245 35.418C116.641 35.6161 116.971 35.8708 117.254 36.2009C117.537 36.5309 117.754 36.8894 117.905 37.2952C118.056 37.7006 118.141 38.1061 118.141 38.5305C118.141 38.9738 118.066 39.3986 117.905 39.8135C117.745 40.2189 117.518 40.5774 117.235 40.898C116.943 41.2189 116.603 41.4641 116.217 41.6433C115.811 41.832 115.386 41.9264 114.934 41.9264ZM112.802 38.5305C112.802 38.8419 112.849 39.153 112.953 39.4456C113.057 39.7381 113.198 40.0022 113.387 40.2284C113.576 40.455 113.792 40.6433 114.057 40.7756C114.321 40.9074 114.613 40.9737 114.943 40.9737C115.283 40.9737 115.584 40.9074 115.849 40.7661C116.113 40.6248 116.339 40.4361 116.518 40.2C116.698 39.9643 116.83 39.7002 116.934 39.4077C117.028 39.1155 117.075 38.823 117.075 38.5305C117.075 38.2194 117.028 37.9083 116.934 37.6252C116.839 37.3327 116.688 37.0686 116.499 36.8424C116.311 36.6158 116.084 36.4273 115.82 36.2952C115.556 36.1632 115.274 36.0972 114.953 36.0972C114.613 36.0972 114.311 36.1632 114.047 36.3047C113.783 36.446 113.557 36.6253 113.378 36.8613C113.198 37.097 113.057 37.3516 112.953 37.6442C112.849 37.9363 112.802 38.2288 112.802 38.5305Z" fill="white"/>
<path d="M121.593 41.8791V35.1823H124.507C124.809 35.1823 125.083 35.2483 125.338 35.3709C125.592 35.4935 125.809 35.6633 125.998 35.8708C126.186 36.0783 126.328 36.3141 126.432 36.5689C126.536 36.8235 126.592 37.0876 126.592 37.3612C126.592 37.6533 126.536 37.9364 126.432 38.21C126.328 38.4836 126.167 38.7098 125.969 38.9079C125.771 39.1061 125.545 39.2475 125.281 39.3323L126.856 41.8791H125.668L124.215 39.5495H122.659V41.8791H121.593ZM122.649 38.6154H124.498C124.696 38.6154 124.866 38.559 125.017 38.4457C125.168 38.3327 125.29 38.1816 125.375 37.9838C125.46 37.7951 125.507 37.5874 125.507 37.3517C125.507 37.116 125.46 36.9084 125.356 36.7197C125.253 36.531 125.121 36.3896 124.96 36.2764C124.8 36.1632 124.621 36.1066 124.442 36.1066H122.649V38.6154Z" fill="white"/>
<path d="M130.186 41.8791V35.1823H132.562C133.289 35.1823 133.893 35.3332 134.374 35.6256C134.855 35.9274 135.222 36.3236 135.458 36.833C135.704 37.3422 135.826 37.8989 135.826 38.5214C135.826 39.2005 135.694 39.7946 135.43 40.2944C135.166 40.7946 134.779 41.1906 134.289 41.4641C133.798 41.7377 133.223 41.8791 132.562 41.8791H130.186ZM134.751 38.5214C134.751 38.0497 134.666 37.6348 134.496 37.2668C134.326 36.9084 134.072 36.6253 133.751 36.4179C133.43 36.2104 133.034 36.1066 132.572 36.1066H131.251V40.9359H132.572C133.043 40.9359 133.44 40.8321 133.76 40.6154C134.081 40.3982 134.336 40.1152 134.506 39.7476C134.675 39.3797 134.751 38.9834 134.751 38.5214Z" fill="white"/>
<path d="M139.297 41.8791V35.1823H140.354V41.8791H139.297Z" fill="white"/>
<path d="M145.277 37.1441V41.8791H144.221V35.1823H145.089L148.881 40.0208V35.1917H149.946V41.8791H149.022L145.277 37.1441Z" fill="white"/>
<path d="M155.748 35.1823H156.747L159.351 41.8791H158.238L157.587 40.0587H154.908L154.248 41.8791H153.125L155.748 35.1823ZM157.304 39.2759L156.248 36.3424L155.191 39.2759H157.304Z" fill="white"/>
<path d="M162.539 41.8791V35.1823H165.453C165.755 35.1823 166.029 35.2483 166.283 35.3709C166.538 35.4935 166.755 35.6633 166.944 35.8708C167.132 36.0783 167.274 36.3141 167.378 36.5689C167.481 36.8235 167.538 37.0876 167.538 37.3612C167.538 37.6533 167.481 37.9364 167.378 38.21C167.274 38.4836 167.113 38.7098 166.915 38.9079C166.717 39.1061 166.491 39.2475 166.227 39.3323L167.802 41.8791H166.613L165.161 39.5495H163.605V41.8791H162.539ZM163.595 38.6154H165.444C165.642 38.6154 165.812 38.559 165.963 38.4457C166.113 38.3327 166.236 38.1816 166.321 37.9838C166.406 37.7951 166.453 37.5874 166.453 37.3517C166.453 37.116 166.406 36.9084 166.302 36.7197C166.199 36.531 166.066 36.3896 165.906 36.2764C165.746 36.1632 165.567 36.1066 165.387 36.1066H163.595V38.6154Z" fill="white"/>
<path d="M171.311 35.1823L173.16 38.512L175.027 35.1823H176.187L173.688 39.4835V41.8791H172.632V39.4646L170.151 35.1823H171.311Z" fill="white"/>
<path d="M56.1608 44.0578H8.66877L6.45215 33.2579H56.1608V44.0578Z" fill="white"/>
<path d="M30.0516 41.9264C29.5423 41.9264 29.0801 41.8321 28.6651 41.6434C28.25 41.4547 27.8916 41.1905 27.5992 40.87C27.2974 40.549 27.071 40.1815 26.9106 39.7757C26.7503 39.3702 26.6748 38.9458 26.6748 38.5214C26.6748 38.0781 26.7597 37.6533 26.9295 37.2479C27.0993 36.8424 27.3351 36.484 27.6369 36.1632C27.9388 35.8425 28.3066 35.5973 28.7216 35.4181C29.1367 35.2388 29.5989 35.1445 30.0988 35.1445C30.6081 35.1445 31.0703 35.2388 31.4853 35.4369C31.9004 35.6256 32.2588 35.8897 32.5512 36.2198C32.8436 36.5499 33.07 36.9084 33.2303 37.3138C33.3907 37.7196 33.4661 38.1346 33.4661 38.5684C33.4661 39.0118 33.3812 39.4267 33.2209 39.8325C33.0511 40.2379 32.8153 40.5964 32.5134 40.917C32.2116 41.2379 31.8438 41.4831 31.4287 41.6718C31.0137 41.8321 30.5609 41.9264 30.0516 41.9264ZM28.533 38.5305C28.533 38.7571 28.5613 38.9739 28.6273 39.1815C28.6934 39.3892 28.7877 39.5779 28.9103 39.7476C29.0329 39.9174 29.1933 40.0492 29.3914 40.1436C29.58 40.2379 29.8064 40.2944 30.0705 40.2944C30.3346 40.2944 30.5609 40.2474 30.7591 40.1436C30.9571 40.0398 31.1175 39.9079 31.2401 39.7287C31.3627 39.5589 31.457 39.3607 31.5136 39.1531C31.5702 38.9458 31.5985 38.7287 31.5985 38.5025C31.5985 38.2759 31.5702 38.0591 31.5042 37.8515C31.4382 37.6442 31.3439 37.4555 31.2212 37.2858C31.0986 37.116 30.9383 36.9932 30.7402 36.8989C30.5421 36.8045 30.3157 36.7576 30.0611 36.7576C29.7969 36.7576 29.5706 36.8045 29.3725 36.9084C29.1744 37.0122 29.0235 37.1441 28.9009 37.3043C28.7782 37.4745 28.6839 37.6628 28.6273 37.8704C28.5613 38.0967 28.533 38.3138 28.533 38.5305Z" fill="#2C65B0"/>
<path d="M40.4742 41.9264C39.9367 41.9264 39.4838 41.8415 39.0971 41.6623C38.7104 41.483 38.3991 41.247 38.1541 40.9359C37.9086 40.6248 37.7295 40.2758 37.6257 39.8795C37.5125 39.4835 37.4561 39.0587 37.4561 38.6249V35.1823H39.2952V38.6154C39.2952 38.8325 39.3141 39.0496 39.3611 39.2474C39.4084 39.4456 39.4743 39.6248 39.5686 39.7851C39.6629 39.9454 39.7856 40.0682 39.9273 40.153C40.078 40.2474 40.2571 40.2849 40.4742 40.2849C40.6912 40.2849 40.8798 40.2379 41.0309 40.153C41.1816 40.0587 41.3043 39.9359 41.3892 39.7756C41.4835 39.6154 41.5494 39.4361 41.5967 39.238C41.644 39.0401 41.6626 38.8325 41.6626 38.6154V35.1823H43.5021V38.6154C43.5021 39.0777 43.4453 39.5115 43.3135 39.9173C43.1908 40.3228 43.0116 40.6718 42.7662 40.9738C42.5212 41.2754 42.2099 41.5111 41.8232 41.6717C41.4456 41.8415 41.0025 41.9264 40.4742 41.9264Z" fill="#2C65B0"/>
<path d="M53.0761 36.7856H51.1518V41.879H49.3127V36.7856H47.3789V35.1823H53.0761V36.7856Z" fill="#2C65B0"/>
</g>
</g>
<defs>
<clipPath id="clip0_17123_6907">
<rect width="280" height="51" fill="white"/>
</clipPath>
</defs>
</svg>
