<svg width="20" height="20" viewBox="0 0 20 20" fill="none" xmlns="http://www.w3.org/2000/svg">
<path d="M11.1965 13.4122C11.3636 13.4889 11.552 13.5065 11.7305 13.4619C11.909 13.4173 12.067 13.3133 12.1784 13.1669L12.4658 12.7904C12.6166 12.5894 12.8121 12.4262 13.037 12.3138C13.2618 12.2013 13.5097 12.1428 13.761 12.1428H16.1896C16.619 12.1428 17.0308 12.3134 17.3344 12.617C17.6381 12.9207 17.8086 13.3325 17.8086 13.7619V16.1904C17.8086 16.6198 17.6381 17.0317 17.3344 17.3353C17.0308 17.6389 16.619 17.8095 16.1896 17.8095C12.325 17.8095 8.61871 16.2743 5.88604 13.5416C3.15336 10.809 1.61816 7.10265 1.61816 3.23807C1.61816 2.80867 1.78874 2.39686 2.09237 2.09323C2.396 1.7896 2.80781 1.61902 3.23721 1.61902H5.66578C6.09518 1.61902 6.50699 1.7896 6.81062 2.09323C7.11425 2.39686 7.28483 2.80867 7.28483 3.23807V5.66664C7.28483 5.91799 7.22631 6.16588 7.1139 6.3907C7.0015 6.61551 6.83829 6.81107 6.63721 6.96188L6.25835 7.24602C6.10974 7.3595 6.00499 7.52092 5.9619 7.70287C5.91881 7.88483 5.94004 8.07609 6.02197 8.24416C7.12833 10.4913 8.94794 12.3086 11.1965 13.4122Z" stroke="#14110E" stroke-width="1.61905" stroke-linecap="round" stroke-linejoin="round"/>
</svg>
